<svg width="77" height="35" viewBox="0 0 77 35" fill="none" xmlns="http://www.w3.org/2000/svg">
<path fill-rule="evenodd" clip-rule="evenodd" d="M23.4434 21.124H24.9722C25.344 21.114 25.7363 20.7631 25.7363 20.3981V10.61H43.2518C43.5284 10.61 43.7624 10.4056 43.7576 10.1358V9.20599C43.7628 8.92495 43.4987 8.73023 43.2518 8.74027H24.0255C23.8023 8.73023 23.3278 8.95747 23.3278 9.55327V16.9534L19.1893 9.50389C18.9881 9.13613 18.897 8.92495 18.4461 8.67684C18.0952 8.46726 17.6219 8.51745 17.2565 8.52708H16.2183C15.7313 8.51745 15.4182 8.94864 15.4105 9.3433V20.3989C15.4182 20.7635 15.808 21.1144 16.1757 21.1248H17.1851C17.5585 21.1148 17.9499 20.7639 17.9443 20.3989V12.6503L22.2626 20.3985C22.3903 20.6097 22.8428 21.114 23.4434 21.124Z" fill="#9A9996"/>
<path fill-rule="evenodd" clip-rule="evenodd" d="M43.5897 14.6493H42.3861C41.9585 14.6365 41.8577 14.4393 41.7493 14.1752C41.704 14.0647 41.3503 13.53 40.202 13.5364C39.0731 13.5296 38.7414 13.86 38.7414 14.359C38.7414 15.1584 40.2161 15.278 40.9604 15.4563C42.7848 15.877 44.2365 16.3616 44.2253 18.3582C44.2365 19.9621 42.6888 21.2649 40.1603 21.267C37.6213 21.2649 36.0997 19.8393 36.0997 18.6252C36.0997 18.1643 36.2683 18.0442 36.6573 18.0206L37.661 18.0374C38.3476 18.0206 38.2717 18.2775 38.5066 18.6131C38.7844 18.9873 39.3505 19.325 40.2622 19.325C41.1652 19.325 41.814 18.9203 41.8047 18.4281C41.814 17.489 40.2105 17.5299 38.8546 17.1208C37.3932 16.6728 36.286 16.0541 36.286 14.4626C36.286 12.9498 37.6879 11.7109 40.1117 11.7129C42.6442 11.7109 43.988 13.0606 43.984 14.1306C43.9884 14.453 43.7921 14.6365 43.5897 14.6493Z" fill="#9A9996"/>
<path fill-rule="evenodd" clip-rule="evenodd" d="M47.666 9.28671V12.0353L49.2968 12.0252C49.5341 12.0252 49.7545 12.2284 49.7545 12.493V13.3228C49.7545 13.5729 49.5341 13.7777 49.2968 13.7801L47.666 13.7877V17.6303C47.666 18.5859 47.9149 19.2013 48.9206 19.1945H49.0375C49.5341 19.1945 49.72 19.4864 49.7124 19.7795V20.582C49.7204 20.847 49.4626 21.114 49.2185 21.1244C48.976 21.1144 48.7468 21.1144 48.4365 21.1244C47.4572 21.0943 47.1951 21.0943 46.4202 20.5391C45.4783 19.8638 45.2531 18.6489 45.2531 18.0382V13.7873L44.6946 13.7797C44.4634 13.7777 44.2377 13.5725 44.2265 13.3224V12.4926C44.2377 12.2284 44.4634 12.0248 44.6946 12.0248L45.2531 12.0349V9.28631C45.2531 8.91775 45.5526 8.59576 45.9625 8.60058H46.9502C47.3657 8.59616 47.666 8.91775 47.666 9.28671Z" fill="#9A9996"/>
<path fill-rule="evenodd" clip-rule="evenodd" d="M52.791 20.4359V9.2859C52.791 8.91774 52.449 8.59615 52.0398 8.60057H51.0157C50.6371 8.60057 50.2934 8.91774 50.2934 9.2859V20.4355C50.2934 20.7928 50.6222 21.1136 51.0157 21.1136L52.0398 21.1236C52.457 21.114 52.791 20.7928 52.791 20.4359Z" fill="#9A9996"/>
<path fill-rule="evenodd" clip-rule="evenodd" d="M32.9678 18.4084C33.134 18.2017 33.2709 18.021 33.6278 18.021L34.8037 18.0379C35.4525 18.0142 35.4814 18.4084 35.312 18.903C35.047 19.6466 34.3521 20.3279 33.6133 20.7125C32.8766 21.1016 32.1411 21.2782 31.194 21.2782C28.4804 21.2782 26.5701 19.1211 26.5701 16.4889C26.5701 13.86 28.2206 11.7101 31.1703 11.7133C34.1309 11.7101 35.7263 13.8339 35.7187 16.4889C35.7267 16.6423 35.7267 17.1875 35.0105 17.1875H29.0312C29.0312 18.3486 29.9835 19.2315 31.1406 19.2315C31.8753 19.2319 32.5181 19.0179 32.9678 18.4084ZM29.0312 15.4567H33.2641C33.2641 14.453 32.2134 13.6003 31.1406 13.6003C30.0683 13.6003 29.0296 14.463 29.0312 15.4567Z" fill="#9A9996"/>
<path fill-rule="evenodd" clip-rule="evenodd" d="M54.7711 9.11887C54.4535 9.14577 54.1396 9.21965 54.1287 9.63358V10.119C54.1392 10.4558 54.4383 10.5088 54.6844 10.5088H61.844C62.1732 10.5088 62.4458 10.239 62.4418 9.91461V9.10442C62.4458 8.60979 62.1451 8.41989 61.8649 8.43555L54.7711 9.11887Z" fill="#9A9996"/>
<path fill-rule="evenodd" clip-rule="evenodd" d="M59.9313 18.4152C60.0952 18.2016 60.2345 18.0274 60.5894 18.0378H61.7657C62.4149 18.0141 62.4458 18.4084 62.2676 18.9078C62.0098 19.653 61.3149 20.3279 60.5777 20.7125C59.8374 21.1016 59.1023 21.2854 58.1556 21.2854C55.4355 21.2854 53.5313 19.121 53.5313 16.4957C53.5313 13.8676 55.1842 11.7273 58.1331 11.7273C61.0856 11.7273 62.6891 13.8343 62.6847 16.4957C62.6891 16.6427 62.6891 17.1979 61.9745 17.1979H55.9868C55.9948 18.3586 56.9459 19.2383 58.1054 19.2383C58.8361 19.2383 59.4821 19.0179 59.9313 18.4152ZM56.0313 15.4567H60.2638C60.2638 14.453 59.2284 13.6002 58.1556 13.6002C57.0832 13.6002 56.0362 14.463 56.0313 15.4567Z" fill="#9A9996"/>
<path fill-rule="evenodd" clip-rule="evenodd" d="M62.9698 27.2202C62.9698 26.9295 63.189 26.7095 63.4708 26.7095C63.7502 26.7095 63.9691 26.9299 63.9691 27.2202C63.9691 27.5148 63.7502 27.7353 63.4708 27.7353C63.189 27.7353 62.9698 27.5148 62.9698 27.2202ZM63.4708 27.836C63.8065 27.836 64.0931 27.5751 64.0931 27.2202C64.0931 26.8661 63.8065 26.6091 63.4708 26.6091C63.1332 26.6091 62.8457 26.8665 62.8457 27.2202C62.8457 27.5751 63.1332 27.836 63.4708 27.836ZM63.3395 27.2707H63.464L63.6507 27.5751H63.7731L63.5696 27.2647C63.676 27.2515 63.7527 27.1965 63.7527 27.0708C63.7527 26.9299 63.672 26.8665 63.5045 26.8665H63.2335V27.5755H63.3395V27.2707ZM63.3395 27.18V26.9556H63.4865C63.5624 26.9556 63.6414 26.9724 63.6414 27.0628C63.6414 27.1704 63.5611 27.18 63.4692 27.18H63.3395Z" fill="#9A9996"/>
<path fill-rule="evenodd" clip-rule="evenodd" d="M6.87292 23.7666C6.87292 23.4659 7.0544 23.2651 7.37277 23.2651H8.50616C9.44683 23.2651 10.1458 23.8798 10.1458 24.7956C10.1458 25.7322 9.42154 26.314 8.5459 26.314H7.83247V27.3671C7.83247 27.6818 7.62932 27.8617 7.3539 27.8617C7.07929 27.8617 6.87333 27.6818 6.87333 27.3671V23.7666H6.87292ZM7.83247 25.4685H8.48608C8.89078 25.4685 9.14532 25.1738 9.14532 24.7896C9.14532 24.4049 8.89078 24.1107 8.48608 24.1107H7.83247V25.4685Z" fill="#9A9996"/>
<path fill-rule="evenodd" clip-rule="evenodd" d="M11.7141 23.7666C11.7141 23.4591 11.8871 23.2651 12.2075 23.2651H13.3336C14.3201 23.2651 14.9283 23.7088 14.9283 24.7161C14.9283 25.4183 14.3972 25.8226 13.7436 25.9238L14.832 27.0909C14.9219 27.1868 14.9621 27.2812 14.9621 27.3711C14.9621 27.6212 14.7593 27.8621 14.4799 27.8621C14.3634 27.8621 14.2117 27.8196 14.1089 27.6959L12.6885 25.9768H12.6736V27.3675C12.6736 27.6823 12.4701 27.8621 12.1942 27.8621C11.9196 27.8621 11.7133 27.6823 11.7133 27.3675V23.7666H11.7141ZM12.674 25.2842H13.3336C13.6853 25.2842 13.9298 25.0714 13.9298 24.7161C13.9298 24.3487 13.6853 24.1512 13.3336 24.1512H12.674V25.2842Z" fill="#9A9996"/>
<path fill-rule="evenodd" clip-rule="evenodd" d="M16.3745 25.5456C16.3745 24.2139 17.2722 23.1913 18.5774 23.1913C19.8661 23.1913 20.7823 24.2476 20.7823 25.5456C20.7823 26.8693 19.8922 27.9023 18.5774 27.9023C17.2782 27.9023 16.3745 26.8693 16.3745 25.5456ZM19.7826 25.5456C19.7826 24.7731 19.38 24.0733 18.577 24.0733C17.778 24.0733 17.3741 24.7731 17.3741 25.5456C17.3741 26.3281 17.7644 27.0202 18.577 27.0202C19.392 27.0202 19.7826 26.3281 19.7826 25.5456Z" fill="#9A9996"/>
<path fill-rule="evenodd" clip-rule="evenodd" d="M22.4586 23.7666C22.4586 23.5056 22.638 23.2651 22.9584 23.2651H24.5973C24.8791 23.2651 25.0272 23.4819 25.0272 23.7088C25.0272 23.9276 24.8847 24.1512 24.5973 24.1512H23.4185V25.0847H24.411C24.7205 25.0847 24.8727 25.3047 24.8727 25.5187C24.8727 25.7427 24.7205 25.9671 24.411 25.9671H23.4185V27.3671C23.4185 27.6818 23.2129 27.8617 22.9395 27.8617C22.6633 27.8617 22.4586 27.6818 22.4586 27.3671V23.7666Z" fill="#9A9996"/>
<path fill-rule="evenodd" clip-rule="evenodd" d="M26.5826 23.8228C26.5826 23.5052 26.7416 23.2647 27.0808 23.2647H28.6703C28.9766 23.2647 29.1236 23.4815 29.1236 23.7084C29.1236 23.9272 28.9702 24.1508 28.6703 24.1508H27.5413V25.0843H28.5932C28.906 25.0843 29.0593 25.3043 29.0593 25.5243C29.0593 25.7423 28.8995 25.9671 28.5932 25.9671H27.5413V26.9435H28.7269C29.0356 26.9435 29.1814 27.1603 29.1814 27.3848C29.1814 27.5996 29.0276 27.8264 28.7269 27.8264H27.074C26.7926 27.8264 26.5826 27.6333 26.5826 27.3442V23.8228Z" fill="#9A9996"/>
<path fill-rule="evenodd" clip-rule="evenodd" d="M33.5222 23.83C33.5222 24.0798 33.3556 24.3046 33.0947 24.3046C32.8297 24.3046 32.6249 24.1107 32.2415 24.1107C31.9669 24.1107 31.716 24.2616 31.716 24.529C31.7172 25.1879 33.8543 24.7639 33.8543 26.4184C33.8543 27.331 33.1011 27.9027 32.2138 27.9027C31.7232 27.9027 30.6605 27.7863 30.6605 27.1872C30.6605 26.9371 30.8247 26.7291 31.0892 26.7291C31.3908 26.7291 31.7481 26.9797 32.164 26.9797C32.5884 26.9797 32.8196 26.7436 32.8196 26.428C32.8196 25.6724 30.6793 26.1309 30.6793 24.6422C30.6793 23.7465 31.4169 23.1917 32.2672 23.1917C32.6249 23.1913 33.5222 23.3254 33.5222 23.83Z" fill="#9A9996"/>
<path fill-rule="evenodd" clip-rule="evenodd" d="M38.242 23.83C38.242 24.0798 38.0746 24.3046 37.8136 24.3046C37.5491 24.3046 37.3455 24.1107 36.9613 24.1107C36.6859 24.1107 36.4357 24.2616 36.4357 24.529C36.4357 25.1879 38.5744 24.7639 38.5744 26.4184C38.5744 27.331 37.818 27.9027 36.934 27.9027C36.4422 27.9027 35.3782 27.7863 35.3782 27.1872C35.3782 26.9371 35.5477 26.7291 35.807 26.7291C36.1093 26.7291 36.4675 26.9797 36.8834 26.9797C37.3062 26.9797 37.5374 26.7436 37.5374 26.428C37.5374 25.6724 35.3971 26.1309 35.3971 24.6422C35.3971 23.7465 36.133 23.1917 36.9854 23.1917C37.3455 23.1913 38.242 23.3254 38.242 23.83Z" fill="#9A9996"/>
<path fill-rule="evenodd" clip-rule="evenodd" d="M42.9025 25.5456C42.9025 24.2139 43.7974 23.1913 45.105 23.1913C46.3918 23.1913 47.3071 24.2476 47.3071 25.5456C47.3071 26.8693 46.4166 27.9023 45.105 27.9023C43.8046 27.9023 42.9025 26.8693 42.9025 25.5456ZM46.309 25.5456C46.309 24.7731 45.9036 24.0733 45.1054 24.0733C44.3032 24.0733 43.9002 24.7731 43.9002 25.5456C43.9006 26.3281 44.2912 27.0202 45.1054 27.0202C45.9192 27.0202 46.3078 26.3281 46.309 25.5456Z" fill="#9A9996"/>
<path fill-rule="evenodd" clip-rule="evenodd" d="M48.9464 23.7265C48.9464 23.4073 49.1523 23.2238 49.4269 23.2238C49.5494 23.2238 49.7453 23.3254 49.8304 23.4378L51.8607 26.147H51.8728V23.7265C51.8728 23.4073 52.0775 23.2238 52.3517 23.2238C52.6275 23.2238 52.8323 23.4073 52.8323 23.7265V27.3671C52.8323 27.6819 52.6271 27.8617 52.3517 27.8617C52.2317 27.8617 52.0398 27.7658 51.9506 27.6482L49.9191 24.9727H49.9059V27.3671C49.9059 27.6819 49.7003 27.8617 49.4269 27.8617C49.1519 27.8617 48.9464 27.6819 48.9464 27.3671V23.7265Z" fill="#9A9996"/>
<path fill-rule="evenodd" clip-rule="evenodd" d="M55.7062 23.7184C55.817 23.4282 56.0655 23.1913 56.3935 23.1913C56.7331 23.1913 56.9692 23.4113 57.0784 23.7184L58.3331 27.2033C58.3728 27.3045 58.3836 27.3944 58.3836 27.4418C58.3836 27.6923 58.1809 27.8621 57.9432 27.8621C57.6726 27.8621 57.5397 27.7224 57.4751 27.5325L57.2836 26.9299H55.5026L55.3103 27.5257C55.2469 27.7224 55.112 27.8621 54.849 27.8621C54.5944 27.8621 54.3732 27.6722 54.3732 27.4145C54.3732 27.3145 54.409 27.2378 54.4222 27.2037L55.7062 23.7184ZM55.7788 26.0466H56.9941L56.4003 24.1878H56.3883L55.7788 26.0466Z" fill="#9A9996"/>
<path fill-rule="evenodd" clip-rule="evenodd" d="M59.9663 23.7265C59.9663 23.4073 60.1707 23.2238 60.4453 23.2238C60.7215 23.2238 60.925 23.4073 60.925 23.7265V26.9436H62.0661C62.3921 26.9436 62.5342 27.1869 62.5266 27.4012C62.5137 27.6164 62.3483 27.8264 62.0661 27.8264H60.4645C60.1498 27.8264 59.9663 27.6217 59.9663 27.2989V23.7265Z" fill="#9A9996"/>
<path fill-rule="evenodd" clip-rule="evenodd" d="M40.1543 23.7666C40.1543 23.4454 40.3599 23.2651 40.6349 23.2651C40.9095 23.2651 41.115 23.4454 41.115 23.7666V27.4012C41.115 27.7228 40.9091 27.9027 40.6349 27.9027C40.3599 27.9027 40.1543 27.7228 40.1543 27.4012V23.7666Z" fill="#9A9996"/>
<path fill-rule="evenodd" clip-rule="evenodd" d="M7.89354 19.0439C6.76096 18.2751 5.83594 17.3188 5.11287 16.2516C4.67325 15.7466 4.27176 15.1981 3.93492 14.5899C3.11589 13.104 2.72646 11.5001 2.72646 9.92105C2.72646 6.51608 4.52992 3.21308 7.7209 1.44936C8.01278 1.28998 8.30908 1.14905 8.60738 1.02219C6.37313 1.74164 4.37495 3.08219 2.97417 5.13618C-0.262182 9.88452 0.96756 16.3616 5.71911 19.596C8.57446 21.5392 12.0553 21.8708 15.0785 20.7928C12.6387 21.0879 10.0844 20.5387 7.89354 19.0439Z" fill="#9A9996"/>
<path fill-rule="evenodd" clip-rule="evenodd" d="M5.97484 15.042C5.48744 14.1591 5.15542 13.2357 4.9615 12.2998C4.78244 11.7972 4.64272 11.2789 4.55279 10.734C4.47249 10.2418 4.43355 9.76085 4.43355 9.27947C4.43355 4.98882 7.53781 1.20926 11.9096 0.49141C12.1099 0.457284 12.3098 0.437612 12.5098 0.417939C12.4849 0.417939 12.4596 0.41272 12.4347 0.41272C10.8597 0.41272 9.28828 0.774456 7.82367 1.58786C4.68207 3.32026 2.90912 6.57026 2.90912 9.92064C2.90912 11.4724 3.29053 13.0518 4.09751 14.5128C5.5023 17.0578 7.89915 18.7027 10.5405 19.2346C8.66919 18.3979 7.04319 16.9711 5.97484 15.042Z" fill="#AA0132"/>
<path fill-rule="evenodd" clip-rule="evenodd" d="M22.0076 8.62386C22.0076 6.94847 21.4267 5.25983 20.2383 3.88515C18.8026 2.22342 16.7819 1.37067 14.7561 1.37067C13.106 1.37067 11.4523 1.93515 10.1121 3.09584C8.4857 4.50063 7.65503 6.48716 7.65503 8.48655C7.65503 8.5271 7.65583 8.56363 7.65744 8.59977C7.9979 7.25279 8.73703 5.99856 9.86238 5.02496C11.1845 3.88154 12.8157 3.32308 14.4449 3.32308C16.4411 3.32308 18.432 4.16258 19.8493 5.80063C21.0216 7.15483 21.5929 8.82139 21.5929 10.4731C21.5929 10.6879 21.5837 10.9019 21.5652 11.1118C21.8583 10.3161 22.0076 9.47259 22.0076 8.62386Z" fill="#F6AC34"/>
<path fill-rule="evenodd" clip-rule="evenodd" d="M14.7565 1.21288C16.1508 1.21288 17.538 1.61757 18.746 2.39725C17.2405 1.22051 15.3599 0.528351 13.3617 0.528351C12.892 0.528351 12.4138 0.564886 11.9361 0.645584C7.63941 1.35019 4.59015 5.06551 4.59015 9.27947C4.59015 9.75122 4.62789 10.2294 4.70658 10.7112C4.97557 12.346 5.68098 13.7982 6.68187 14.9705C6.15433 14.0985 5.78055 13.1144 5.6063 12.0513C5.53163 11.6041 5.49549 11.1596 5.49549 10.7204C5.4971 7.94575 6.91835 5.38951 9.17147 3.84861C9.42521 3.54108 9.69862 3.24639 10.0102 2.97981C11.3796 1.79222 13.0691 1.21288 14.7565 1.21288Z" fill="#FDD675"/>
<path d="M9.8917 30.253L8.64268 33.1276L7.39367 30.253H6.82477V33.8583H7.24632V30.9182L8.52465 33.8306L8.53709 33.8583H8.74305L10.0145 30.9206V33.8583H10.4361V30.253H9.8917Z" fill="#AA0132"/>
<path d="M12.6563 30.2534H12.2569L10.683 33.8587H11.1287L11.5254 32.9268H13.3228L13.7046 33.8587H14.1747L12.6563 30.2534ZM13.165 32.5346H11.6948L12.4411 30.7797L13.165 32.5346Z" fill="#AA0132"/>
<path d="M15.3073 31.9095L17.1373 30.2534H16.5451L14.8793 31.7682V30.2534H14.4578V33.8587H14.8793V32.0813L16.623 33.8587H17.2268L15.3073 31.9095Z" fill="#AA0132"/>
<path d="M17.8949 30.2534H17.473V33.8587H17.8949V30.2534Z" fill="#AA0132"/>
<path d="M20.9152 30.2534V33.2392L18.8395 30.2534H18.3457V33.8587H18.7681V30.8724L20.8437 33.8587H21.3376V30.2534H20.9152Z" fill="#AA0132"/>
<path d="M23.5602 31.8701V32.2624H24.4033V33.368C24.1737 33.4969 23.8758 33.5571 23.4687 33.5571C22.62 33.5571 22.027 32.9397 22.027 32.0564C22.027 31.1731 22.62 30.5561 23.4687 30.5561C23.8417 30.5561 24.2576 30.7323 24.4587 30.9756L24.4925 31.0166L24.7984 30.6966L24.7663 30.6641C24.4395 30.3324 24.0027 30.1642 23.4683 30.1642C22.3714 30.1642 21.6054 30.9423 21.6054 32.0568C21.6054 33.1713 22.3714 33.9494 23.4683 33.9494C23.9842 33.9494 24.4206 33.8434 24.8008 33.6258L24.8249 33.6121V31.8709H23.5602V31.8701Z" fill="#AA0132"/>
<path d="M26.7039 30.3698H27.875L28.684 32.6614H28.6936L29.507 30.3698H30.6729V33.8816H29.8993V31.1884H29.8892L28.9666 33.8816H28.3764L27.4884 31.1884H27.4787V33.8816H26.7043V30.3698H26.7039Z" fill="#AA0132"/>
<path d="M32.8104 30.2802C33.906 30.2802 34.705 30.9993 34.705 32.1259C34.705 33.252 33.9064 33.9711 32.8104 33.9711C31.7143 33.9711 30.9158 33.252 30.9158 32.1259C30.9154 30.9993 31.7143 30.2802 32.8104 30.2802ZM32.8104 33.2568C33.4704 33.2568 33.9016 32.7803 33.9016 32.1259C33.9016 31.4714 33.47 30.9945 32.8104 30.9945C32.1507 30.9945 31.7191 31.471 31.7191 32.1255C31.7191 32.7799 32.1507 33.2568 32.8104 33.2568Z" fill="#AA0132"/>
<path d="M34.9482 30.3698H36.3069C37.0263 30.3698 37.6314 30.6175 37.6314 31.4361C37.6314 31.9275 37.3688 32.3093 36.873 32.3981L37.7654 33.8812H36.8376L36.1037 32.4776H35.7223V33.8812H34.9482V30.3698ZM35.7223 31.8232H36.1784C36.461 31.8232 36.8284 31.8135 36.8284 31.4309C36.8284 31.0792 36.5104 31.0242 36.2278 31.0242H35.7223V31.8232Z" fill="#AA0132"/>
<path d="M37.9983 30.3698H40.3843V31.0844H38.772V31.7388H40.2948V32.4531H38.772V33.1665H40.4735V33.8812H37.9979V30.3698H37.9983Z" fill="#AA0132"/>
<path d="M43.4954 30.2534H42.4367V33.8587H42.8583V32.1925H43.5701C44.0796 32.1925 44.6742 31.94 44.6742 31.2278C44.6742 30.3232 43.772 30.2534 43.4954 30.2534ZM44.2526 31.2278C44.2526 31.7449 43.7652 31.8007 43.5556 31.8007H42.8587V30.6452H43.5364C43.8824 30.6448 44.2526 30.7978 44.2526 31.2278Z" fill="#AA0132"/>
<path d="M46.68 30.1634C45.584 30.1634 44.8176 30.9415 44.8176 32.056C44.8176 33.1705 45.5836 33.9486 46.68 33.9486C47.7769 33.9486 48.5433 33.1705 48.5433 32.056C48.5433 30.9415 47.7769 30.1634 46.68 30.1634ZM46.68 33.5567C45.8321 33.5567 45.2391 32.9392 45.2391 32.056C45.2391 31.1727 45.8321 30.5556 46.68 30.5556C47.5284 30.5556 48.1218 31.1727 48.1218 32.056C48.1218 32.9392 47.5284 33.5567 46.68 33.5567Z" fill="#AA0132"/>
<path d="M50.0384 31.8769C49.6116 31.7484 49.2423 31.6368 49.2423 31.1735C49.2423 30.7174 49.6417 30.5556 49.9842 30.5556C50.2644 30.5556 50.4696 30.66 50.6306 30.8828L50.6575 30.9214L51.018 30.662L50.9887 30.6235C50.7559 30.318 50.4214 30.1634 49.9938 30.1634C49.4286 30.1634 48.8207 30.4794 48.8207 31.1735C48.8207 31.9263 49.3736 32.1005 49.8626 32.2535C50.2745 32.3832 50.631 32.4956 50.631 32.9144C50.631 33.2921 50.3263 33.5571 49.8895 33.5571C49.5522 33.5571 49.2884 33.4122 49.1262 33.138L49.1009 33.0954L48.7071 33.3588L48.7352 33.3985C48.9958 33.7639 49.3928 33.949 49.9143 33.949C50.48 33.949 51.0534 33.5937 51.0534 32.9148C51.053 32.1825 50.5142 32.0203 50.0384 31.8769Z" fill="#AA0132"/>
<path d="M52.5586 31.8769C52.1314 31.7484 51.762 31.6368 51.762 31.1735C51.762 30.7174 52.1615 30.5556 52.504 30.5556C52.7842 30.5556 52.9902 30.66 53.1499 30.8828L53.1772 30.9214L53.5374 30.662L53.5085 30.6235C53.2756 30.318 52.9408 30.1634 52.5136 30.1634C51.9479 30.1634 51.3401 30.4794 51.3401 31.1735C51.3401 31.9263 51.8937 32.1005 52.3819 32.2535C52.7938 32.3832 53.1507 32.4956 53.1507 32.9144C53.1507 33.2921 52.8456 33.5571 52.4092 33.5571C52.0724 33.5571 51.8082 33.4122 51.6468 33.1384L51.6211 33.0954L51.2264 33.3584L51.2549 33.3985C51.5155 33.7639 51.9126 33.949 52.4341 33.949C52.9998 33.949 53.5727 33.5937 53.5727 32.9148C53.5727 32.1825 53.0343 32.0203 52.5586 31.8769Z" fill="#AA0132"/>
<path d="M54.4503 30.2534H54.0283V33.8587H54.4503V30.2534Z" fill="#AA0132"/>
<path d="M56.7384 31.9504C57.0483 31.8276 57.2286 31.5674 57.2286 31.2274C57.2286 30.5713 56.8427 30.253 56.0498 30.253H54.9903V33.8583H56.159C56.4457 33.8583 57.3807 33.784 57.3807 32.8297C57.3811 32.3885 57.1298 32.054 56.7384 31.9504ZM56.0446 31.7706H55.4127V30.6448H56.09C56.5721 30.6448 56.807 30.8355 56.807 31.2274C56.8066 31.355 56.7512 31.7706 56.0446 31.7706ZM55.4127 32.1632H56.1646C56.5489 32.1632 56.96 32.3407 56.96 32.8401C56.96 33.0746 56.85 33.468 56.1144 33.468H55.4127V32.1632Z" fill="#AA0132"/>
<path d="M58.2102 33.468V30.2534H57.7886V33.8587H59.847V33.468H58.2102Z" fill="#AA0132"/>
<path d="M60.6303 33.468V32.1925H62.3366V31.8003H60.6303V30.6448H62.4511V30.2534H60.2084V33.8587H62.5302V33.468H60.6303Z" fill="#AA0132"/>
</svg>
