<svg width="259" height="117" viewBox="0 0 259 117" fill="none" xmlns="http://www.w3.org/2000/svg">
<path fill-rule="evenodd" clip-rule="evenodd" d="M78.7342 70.9442H83.8688C85.1174 70.9105 86.4348 69.732 86.4348 68.5063V35.6329H145.26C146.189 35.6329 146.976 34.9466 146.959 34.0405V30.9176C146.977 29.9738 146.09 29.3198 145.26 29.3535H80.6893C79.9396 29.3198 78.3459 30.083 78.3459 32.084V56.9373L64.4468 31.9181C63.7712 30.683 63.4652 29.9738 61.9509 29.1405C60.7725 28.4366 59.1827 28.6052 57.9557 28.6375H54.4688C52.8332 28.6052 51.7815 30.0533 51.7559 31.3788V68.509C51.7815 69.7333 53.0908 70.9118 54.3259 70.9469H57.7157C58.9697 70.9132 60.2843 69.7347 60.2655 68.509V42.4854L74.7686 68.5077C75.1974 69.2169 76.717 70.9105 78.7342 70.9442Z" fill="white"/>
<path fill-rule="evenodd" clip-rule="evenodd" d="M146.396 49.1989H142.353C140.917 49.1558 140.579 48.4937 140.215 47.6065C140.062 47.2357 138.874 45.4397 135.018 45.4612C131.226 45.4383 130.113 46.548 130.113 48.2241C130.113 50.9087 135.065 51.3105 137.565 51.9092C143.692 53.3223 148.568 54.9498 148.53 61.6553C148.568 67.042 143.37 71.4175 134.878 71.4242C126.351 71.4175 121.24 66.6294 121.24 62.5519C121.24 61.004 121.807 60.6008 123.113 60.5213L126.484 60.5779C128.79 60.5213 128.535 61.3842 129.324 62.5115C130.257 63.7682 132.158 64.9021 135.22 64.9021C138.253 64.9021 140.432 63.543 140.401 61.8899C140.432 58.736 135.046 58.8736 130.493 57.4996C125.585 55.9948 121.866 53.9169 121.866 48.572C121.866 43.4913 126.574 39.3302 134.715 39.3369C143.22 39.3302 147.733 43.8634 147.72 47.4568C147.734 48.5396 147.075 49.1558 146.396 49.1989Z" fill="white"/>
<path fill-rule="evenodd" clip-rule="evenodd" d="M160.086 31.1893V40.4203L165.563 40.3866C166.36 40.3866 167.1 41.0689 167.1 41.9575V44.7445C167.1 45.5846 166.36 46.2723 165.563 46.2804L160.086 46.306V59.2113C160.086 62.4204 160.922 64.4875 164.299 64.4646H164.692C166.36 64.4646 166.984 65.4448 166.958 66.4291V69.1246C166.985 70.0145 166.12 70.9112 165.3 70.9462C164.485 70.9125 163.716 70.9125 162.673 70.9462C159.385 70.8451 158.504 70.8451 155.902 68.9803C152.738 66.7123 151.982 62.6321 151.982 60.5812V46.3046L150.106 46.279C149.33 46.2723 148.572 45.5832 148.534 44.7432V41.9561C148.572 41.0689 149.33 40.3852 150.106 40.3852L151.982 40.419V31.188C151.982 29.9502 152.988 28.8688 154.365 28.8849H157.682C159.077 28.8701 160.086 29.9502 160.086 31.1893Z" fill="white"/>
<path fill-rule="evenodd" clip-rule="evenodd" d="M177.297 68.6337V31.1866C177.297 29.9501 176.149 28.8701 174.775 28.8849H171.335C170.063 28.8849 168.909 29.9501 168.909 31.1866V68.6324C168.909 69.8324 170.014 70.9098 171.335 70.9098L174.775 70.9435C176.176 70.9111 177.297 69.8324 177.297 68.6337Z" fill="white"/>
<path fill-rule="evenodd" clip-rule="evenodd" d="M110.722 61.8244C111.28 61.13 111.74 60.5232 112.938 60.5232L116.888 60.5799C119.067 60.5003 119.164 61.8244 118.595 63.4856C117.705 65.9828 115.371 68.271 112.89 69.5627C110.416 70.8693 107.945 71.4626 104.765 71.4626C95.6509 71.4626 89.2354 64.2178 89.2354 55.3778C89.2354 46.5487 94.7785 39.3281 104.685 39.3389C114.628 39.3281 119.986 46.461 119.961 55.3778C119.988 55.8929 119.988 57.724 117.582 57.724H97.5009C97.5009 61.6235 100.699 64.5886 104.585 64.5886C107.053 64.5899 109.212 63.8713 110.722 61.8244ZM97.5009 51.9111H111.717C111.717 48.5402 108.188 45.6763 104.585 45.6763C100.984 45.6763 97.4955 48.5739 97.5009 51.9111Z" fill="white"/>
<path fill-rule="evenodd" clip-rule="evenodd" d="M183.947 30.6251C182.881 30.7154 181.826 30.9635 181.79 32.3537V33.9839C181.825 35.1152 182.83 35.2932 183.656 35.2932H207.702C208.807 35.2932 209.723 34.387 209.71 33.2976V30.5765C209.723 28.9153 208.713 28.2775 207.772 28.3301L183.947 30.6251Z" fill="white"/>
<path fill-rule="evenodd" clip-rule="evenodd" d="M201.279 61.847C201.829 61.1297 202.297 60.5445 203.489 60.5795H207.439C209.62 60.5 209.724 61.8241 209.125 63.5015C208.259 66.0041 205.925 68.2707 203.45 69.5624C200.963 70.869 198.494 71.4865 195.315 71.4865C186.18 71.4865 179.784 64.2175 179.784 55.4004C179.784 46.5739 185.335 39.3857 195.239 39.3857C205.155 39.3857 210.541 46.462 210.526 55.4004C210.541 55.8939 210.541 57.7587 208.141 57.7587H188.031C188.058 61.6569 191.252 64.6112 195.146 64.6112C197.6 64.6112 199.77 63.8709 201.279 61.847ZM188.181 51.9108H202.395C202.395 48.5399 198.918 45.6759 195.315 45.6759C191.713 45.6759 188.197 48.5736 188.181 51.9108Z" fill="white"/>
<path fill-rule="evenodd" clip-rule="evenodd" d="M211.483 91.4184C211.483 90.4422 212.219 89.7033 213.166 89.7033C214.104 89.7033 214.839 90.4436 214.839 91.4184C214.839 92.4082 214.104 93.1484 213.166 93.1484C212.219 93.1484 211.483 92.4082 211.483 91.4184ZM213.166 93.4868C214.293 93.4868 215.256 92.6104 215.256 91.4184C215.256 90.2292 214.293 89.3662 213.166 89.3662C212.032 89.3662 211.066 90.2305 211.066 91.4184C211.066 92.6104 212.032 93.4868 213.166 93.4868ZM212.725 91.5883H213.143L213.77 92.6104H214.181L213.498 91.5681C213.855 91.5236 214.112 91.3389 214.112 90.9168C214.112 90.4436 213.841 90.2305 213.279 90.2305H212.369V92.6118H212.725V91.5883ZM212.725 91.2836V90.5299H213.218C213.473 90.5299 213.739 90.5865 213.739 90.8899C213.739 91.2512 213.469 91.2836 213.16 91.2836H212.725Z" fill="white"/>
<path fill-rule="evenodd" clip-rule="evenodd" d="M23.083 79.8189C23.083 78.8089 23.6925 78.1348 24.7617 78.1348H28.5682C31.7275 78.1348 34.075 80.1991 34.075 83.2748C34.075 86.4205 31.6425 88.3743 28.7017 88.3743H26.3056V91.9111C26.3056 92.9683 25.6233 93.5723 24.6984 93.5723C23.7761 93.5723 23.0844 92.9683 23.0844 91.9111V79.8189H23.083ZM26.3056 85.5347H28.5008C29.8599 85.5347 30.7148 84.5449 30.7148 83.2545C30.7148 81.9628 29.8599 80.9744 28.5008 80.9744H26.3056V85.5347Z" fill="white"/>
<path fill-rule="evenodd" clip-rule="evenodd" d="M39.3416 79.8189C39.3416 78.786 39.9227 78.1348 40.9987 78.1348H44.7809C48.0939 78.1348 50.1367 79.6247 50.1367 83.0078C50.1367 85.3661 48.3528 86.7239 46.1576 87.0637L49.8131 90.9834C50.1151 91.3057 50.2499 91.6226 50.2499 91.9246C50.2499 92.7647 49.569 93.5737 48.6305 93.5737C48.2395 93.5737 47.7298 93.4308 47.3846 93.0155L42.6141 87.2417H42.5642V91.9125C42.5642 92.9696 41.8806 93.5737 40.9542 93.5737C40.0319 93.5737 39.3389 92.9696 39.3389 91.9125V79.8189H39.3416ZM42.5655 84.9158H44.7809C45.9621 84.9158 46.7833 84.2011 46.7833 83.0078C46.7833 81.774 45.9621 81.1106 44.7809 81.1106H42.5655V84.9158V84.9158Z" fill="white"/>
<path fill-rule="evenodd" clip-rule="evenodd" d="M54.9932 85.7936C54.9932 81.321 58.0081 77.8867 62.3917 77.8867C66.72 77.8867 69.797 81.4343 69.797 85.7936C69.797 90.2392 66.8076 93.7086 62.3917 93.7086C58.0284 93.7086 54.9932 90.2392 54.9932 85.7936ZM66.4395 85.7936C66.4395 83.1993 65.0871 80.8491 62.3904 80.8491C59.7071 80.8491 58.3506 83.1993 58.3506 85.7936C58.3506 88.4216 59.6612 90.7462 62.3904 90.7462C65.1276 90.7462 66.4395 88.4216 66.4395 85.7936Z" fill="white"/>
<path fill-rule="evenodd" clip-rule="evenodd" d="M75.4268 79.8189C75.4268 78.9424 76.0295 78.1348 77.1055 78.1348H82.6096C83.5561 78.1348 84.0537 78.8629 84.0537 79.6247C84.0537 80.3596 83.575 81.1106 82.6096 81.1106H78.6507V84.2456H81.9839C83.0235 84.2456 83.5345 84.9845 83.5345 85.7032C83.5345 86.4556 83.0235 87.2093 81.9839 87.2093H78.6507V91.9111C78.6507 92.9683 77.9604 93.5723 77.0421 93.5723C76.1144 93.5723 75.4268 92.9683 75.4268 91.9111V79.8189Z" fill="white"/>
<path fill-rule="evenodd" clip-rule="evenodd" d="M89.2773 80.008C89.2773 78.9415 89.8113 78.1338 90.9507 78.1338H96.2889C97.3177 78.1338 97.8112 78.8619 97.8112 79.6237C97.8112 80.3586 97.2961 81.1097 96.2889 81.1097H92.4973V84.2446H96.03C97.0804 84.2446 97.5955 84.9835 97.5955 85.7225C97.5955 86.4546 97.0588 87.2097 96.03 87.2097H92.4973V90.489H96.479C97.5159 90.489 98.0054 91.2171 98.0054 91.9708C98.0054 92.6922 97.489 93.454 96.479 93.454H90.9278C89.9825 93.454 89.2773 92.8055 89.2773 91.8346V80.008Z" fill="white"/>
<path fill-rule="evenodd" clip-rule="evenodd" d="M112.584 80.0326C112.584 80.8713 112.024 81.6264 111.148 81.6264C110.258 81.6264 109.57 80.9751 108.283 80.9751C107.36 80.9751 106.518 81.4821 106.518 82.3801C106.522 84.5928 113.699 83.1689 113.699 88.7256C113.699 91.7904 111.169 93.7105 108.19 93.7105C106.542 93.7105 102.973 93.3195 102.973 91.3077C102.973 90.4677 103.524 89.7692 104.413 89.7692C105.425 89.7692 106.625 90.6106 108.022 90.6106C109.448 90.6106 110.224 89.8178 110.224 88.7579C110.224 86.2203 103.036 87.7601 103.036 82.7604C103.036 79.7521 105.513 77.8887 108.369 77.8887C109.57 77.8873 112.584 78.3377 112.584 80.0326Z" fill="white"/>
<path fill-rule="evenodd" clip-rule="evenodd" d="M128.435 80.0326C128.435 80.8713 127.873 81.6264 126.997 81.6264C126.108 81.6264 125.424 80.9751 124.134 80.9751C123.209 80.9751 122.369 81.4821 122.369 82.3801C122.369 84.5928 129.552 83.1689 129.552 88.7256C129.552 91.7904 127.011 93.7105 124.042 93.7105C122.391 93.7105 118.817 93.3195 118.817 91.3077C118.817 90.4677 119.386 89.7692 120.257 89.7692C121.273 89.7692 122.476 90.6106 123.872 90.6106C125.292 90.6106 126.069 89.8178 126.069 88.7579C126.069 86.2203 118.881 87.7601 118.881 82.7604C118.881 79.7521 121.352 77.8887 124.215 77.8887C125.424 77.8873 128.435 78.3377 128.435 80.0326Z" fill="white"/>
<path fill-rule="evenodd" clip-rule="evenodd" d="M144.087 85.7936C144.087 81.321 147.092 77.8867 151.484 77.8867C155.806 77.8867 158.88 81.4343 158.88 85.7936C158.88 90.2392 155.889 93.7086 151.484 93.7086C147.117 93.7086 144.087 90.2392 144.087 85.7936ZM155.528 85.7936C155.528 83.1993 154.166 80.8491 151.485 80.8491C148.791 80.8491 147.438 83.1993 147.438 85.7936C147.439 88.4216 148.751 90.7462 151.485 90.7462C154.219 90.7462 155.524 88.4216 155.528 85.7936Z" fill="white"/>
<path fill-rule="evenodd" clip-rule="evenodd" d="M164.386 79.6843C164.386 78.6123 165.077 77.9961 166 77.9961C166.411 77.9961 167.069 78.3372 167.355 78.7148L174.174 87.8136H174.214V79.6843C174.214 78.6123 174.902 77.9961 175.823 77.9961C176.749 77.9961 177.437 78.6123 177.437 79.6843V91.9113C177.437 92.9685 176.748 93.5725 175.823 93.5725C175.42 93.5725 174.775 93.2503 174.476 92.8552L167.653 83.8696H167.608V91.9113C167.608 92.9685 166.918 93.5725 166 93.5725C165.076 93.5725 164.386 92.9685 164.386 91.9113V79.6843V79.6843Z" fill="white"/>
<path fill-rule="evenodd" clip-rule="evenodd" d="M187.088 79.6571C187.46 78.6823 188.295 77.8867 189.396 77.8867C190.537 77.8867 191.33 78.6256 191.697 79.6571L195.91 91.3611C196.044 91.7008 196.08 92.0029 196.08 92.162C196.08 93.0034 195.399 93.5737 194.601 93.5737C193.692 93.5737 193.246 93.1045 193.029 92.4667L192.386 90.4428H186.404L185.758 92.4438C185.545 93.1045 185.092 93.5737 184.209 93.5737C183.354 93.5737 182.611 92.9359 182.611 92.0703C182.611 91.7345 182.731 91.477 182.776 91.3624L187.088 79.6571ZM187.332 87.4764H191.414L189.419 81.2334H189.379L187.332 87.4764Z" fill="white"/>
<path fill-rule="evenodd" clip-rule="evenodd" d="M201.396 79.6843C201.396 78.6123 202.082 77.9961 203.004 77.9961C203.932 77.9961 204.615 78.6123 204.615 79.6843V90.4888H208.448C209.542 90.4888 210.02 91.3059 209.994 92.026C209.951 92.7487 209.395 93.4539 208.448 93.4539H203.069C202.012 93.4539 201.396 92.7662 201.396 91.6821V79.6843Z" fill="white"/>
<path fill-rule="evenodd" clip-rule="evenodd" d="M134.857 79.8189C134.857 78.7402 135.548 78.1348 136.471 78.1348C137.394 78.1348 138.084 78.7402 138.084 79.8189V92.0257C138.084 93.1058 137.392 93.7099 136.471 93.7099C135.548 93.7099 134.857 93.1058 134.857 92.0257V79.8189Z" fill="white"/>
<path fill-rule="evenodd" clip-rule="evenodd" d="M26.5101 63.9585C22.7063 61.3764 19.5997 58.1646 17.1713 54.5806C15.6948 52.8843 14.3464 51.0424 13.2151 48.9997C10.4644 44.0093 9.1565 38.6226 9.1565 33.3194C9.1565 21.8838 15.2134 10.7907 25.9303 4.86729C26.9106 4.33198 27.9057 3.8587 28.9075 3.43262C21.4038 5.84891 14.6929 10.3511 9.98845 17.2494C-0.880815 33.1967 3.24926 54.95 19.2073 65.8126C28.797 72.3387 40.4874 73.4525 50.6407 69.8321C42.4466 70.8231 33.8682 68.9785 26.5101 63.9585Z" fill="white"/>
<path fill-rule="evenodd" clip-rule="evenodd" d="M20.0657 50.5179C18.4288 47.5528 17.3137 44.4515 16.6624 41.3085C16.0611 39.6203 15.5918 37.8796 15.2898 36.0498C15.0201 34.3967 14.8893 32.7813 14.8893 31.1646C14.8893 16.7545 25.315 4.06092 39.9974 1.65002C40.6703 1.53541 41.3418 1.46934 42.0133 1.40327C41.9297 1.40327 41.8447 1.38574 41.7611 1.38574C36.4714 1.38574 31.1939 2.60063 26.275 5.33244C15.724 11.1507 9.76953 22.0658 9.76953 33.318C9.76953 38.5295 11.0505 43.834 13.7607 48.7407C18.4787 57.2881 26.5285 62.8124 35.3995 64.599C29.1147 61.789 23.6538 56.9968 20.0657 50.5179Z" fill="white"/>
<path fill-rule="evenodd" clip-rule="evenodd" d="M73.9121 28.9633C73.9121 23.3365 71.961 17.6652 67.9698 13.0484C63.148 7.46747 56.3616 4.60352 49.5577 4.60352C44.0159 4.60352 38.4619 6.49933 33.9611 10.3975C28.4988 15.1155 25.709 21.7872 25.709 28.5021C25.709 28.6383 25.7117 28.761 25.7171 28.8824C26.8605 24.3586 29.3429 20.1463 33.1224 16.8764C37.5626 13.0363 43.041 11.1607 48.5127 11.1607C55.2169 11.1607 61.9035 13.9801 66.6632 19.4815C70.6005 24.0296 72.5192 29.6267 72.5192 35.1739C72.5192 35.8953 72.4882 36.614 72.4262 37.3192C73.4105 34.6467 73.9121 31.8138 73.9121 28.9633Z" fill="white"/>
<path fill-rule="evenodd" clip-rule="evenodd" d="M49.5596 4.0734C54.2425 4.0734 58.9012 5.43256 62.9584 8.05111C57.902 4.09902 51.5862 1.77441 44.8754 1.77441C43.2977 1.77441 41.6918 1.89712 40.0873 2.16814C25.6569 4.53454 15.416 17.0124 15.416 31.165C15.416 32.7493 15.5428 34.3552 15.807 35.9733C16.7105 41.4639 19.0796 46.341 22.4411 50.2782C20.6693 47.3495 19.414 44.0447 18.8288 40.4742C18.578 38.9721 18.4566 37.4794 18.4566 36.0043C18.462 26.6857 23.2353 18.1006 30.8023 12.9255C31.6545 11.8926 32.5728 10.9029 33.6191 10.0076C38.2184 6.0191 43.8924 4.0734 49.5596 4.0734Z" fill="white"/>
<path d="M33.2211 101.604L29.0263 111.259L24.8315 101.604H22.9209V113.713H24.3367V103.839L28.6299 113.62L28.6717 113.713H29.3634L33.6338 103.847V113.713H35.0495V101.604H33.2211Z" fill="white"/>
<path d="M42.5062 101.605H41.1645L35.8789 113.714H37.3756L38.7078 110.584H44.7445L46.0268 113.714H47.6057L42.5062 101.605ZM44.2146 109.267H39.2768L41.7835 103.373L44.2146 109.267Z" fill="white"/>
<path d="M51.4088 107.168L57.5547 101.605H55.5659L49.9715 106.693V101.605H48.5557V113.714H49.9715V107.745L55.8275 113.714H57.8554L51.4088 107.168Z" fill="white"/>
<path d="M60.0998 101.605H58.6826V113.714H60.0998V101.605Z" fill="white"/>
<path d="M70.2429 101.605V111.633L63.2718 101.605H61.6133V113.714H63.0318V103.685L70.0029 113.714H71.6614V101.605H70.2429Z" fill="white"/>
<path d="M79.1268 107.035V108.352H81.9584V112.066C81.1871 112.499 80.1866 112.701 78.8193 112.701C75.9689 112.701 73.9773 110.627 73.9773 107.661C73.9773 104.694 75.9689 102.622 78.8193 102.622C80.072 102.622 81.4689 103.214 82.1444 104.031L82.2577 104.168L83.2852 103.094L83.1773 102.984C82.0797 101.871 80.6127 101.306 78.818 101.306C75.1342 101.306 72.5615 103.919 72.5615 107.662C72.5615 111.405 75.1342 114.018 78.818 114.018C80.5507 114.018 82.0163 113.662 83.2933 112.931L83.3742 112.886V107.038H79.1268V107.035Z" fill="white"/>
<path d="M89.6846 101.996H93.6178L96.3348 109.693H96.3671L99.0989 101.996H103.015V113.79H100.416V104.745H100.383L97.284 113.79H95.3019L92.3193 104.745H92.2869V113.79H89.6859V101.996H89.6846Z" fill="white"/>
<path d="M110.193 101.695C113.873 101.695 116.556 104.11 116.556 107.894C116.556 111.676 113.874 114.091 110.193 114.091C106.512 114.091 103.83 111.676 103.83 107.894C103.829 104.11 106.512 101.695 110.193 101.695ZM110.193 111.692C112.41 111.692 113.858 110.092 113.858 107.894C113.858 105.696 112.408 104.094 110.193 104.094C107.978 104.094 106.528 105.695 106.528 107.892C106.528 110.09 107.978 111.692 110.193 111.692Z" fill="white"/>
<path d="M117.373 101.996H121.936C124.352 101.996 126.384 102.828 126.384 105.577C126.384 107.228 125.502 108.51 123.837 108.808L126.835 113.789H123.719L121.254 109.075H119.973V113.789H117.373V101.996V101.996ZM119.973 106.877H121.504C122.454 106.877 123.688 106.845 123.688 105.56C123.688 104.379 122.62 104.194 121.67 104.194H119.973V106.877Z" fill="white"/>
<path d="M127.617 101.996H135.63V104.396H130.215V106.594H135.329V108.993H130.215V111.389H135.929V113.789H127.615V101.996H127.617Z" fill="white"/>
<path d="M143.266 106.802V107.444H143.265V108.118V113.04H143.198V102.28H143.266V102.921V106.802ZM148.095 107.052C148.404 106.877 148.703 106.626 148.926 106.27C149.167 105.887 149.296 105.422 149.296 104.878C149.296 103.928 148.871 103.231 148.233 102.799C148.146 102.741 148.057 102.687 147.965 102.639C148.012 102.66 148.058 102.682 148.105 102.705C148.461 102.884 148.769 103.127 148.989 103.458C149.206 103.785 149.364 104.236 149.364 104.878C149.364 105.856 148.97 106.462 148.433 106.847C148.327 106.923 148.214 106.991 148.095 107.052Z" stroke="white" stroke-width="1.34838"/>
<path d="M151.193 107.659C151.193 105.945 151.779 104.532 152.746 103.55C153.218 103.071 153.791 102.684 154.448 102.414C153.823 102.687 153.267 103.074 152.8 103.56C151.812 104.589 151.26 106.023 151.26 107.659C151.26 109.295 151.812 110.729 152.8 111.758C153.259 112.236 153.804 112.618 154.415 112.89C153.771 112.621 153.21 112.24 152.746 111.768C151.779 110.786 151.193 109.373 151.193 107.659ZM160.749 103.56C160.28 103.071 159.72 102.683 159.092 102.41C159.754 102.68 160.329 103.068 160.804 103.55C161.771 104.532 162.357 105.945 162.357 107.659C162.357 109.373 161.771 110.786 160.804 111.768C160.339 112.239 159.778 112.621 159.134 112.89C159.745 112.618 160.29 112.236 160.749 111.759C161.738 110.729 162.29 109.295 162.29 107.659C162.29 106.023 161.738 104.589 160.749 103.56Z" stroke="white" stroke-width="1.34838"/>
<path d="M164.72 112.085C165.153 112.623 165.709 112.998 166.356 113.2C165.626 113.022 165.033 112.681 164.565 112.188L164.72 112.085ZM169.837 112.611C169.621 112.787 169.374 112.933 169.108 113.047C169.357 112.93 169.586 112.783 169.79 112.606C170.378 112.096 170.718 111.37 170.718 110.542C170.718 110.09 170.62 109.687 170.424 109.335C170.228 108.984 169.954 108.719 169.654 108.512C169.097 108.13 168.369 107.901 167.721 107.697C167.702 107.691 167.684 107.685 167.665 107.679L167.664 107.679C166.817 107.414 166.069 107.171 165.514 106.734C165.012 106.34 164.638 105.759 164.638 104.695C164.638 103.755 165.038 103.102 165.624 102.665C165.638 102.656 165.651 102.646 165.664 102.636C165.091 103.089 164.705 103.775 164.705 104.695C164.705 105.177 164.802 105.604 165 105.977C165.199 106.349 165.479 106.631 165.792 106.851C166.372 107.256 167.131 107.484 167.802 107.686C167.821 107.692 167.84 107.697 167.859 107.703C168.684 107.952 169.408 108.178 169.944 108.592C170.425 108.964 170.787 109.514 170.788 110.544C170.788 111.472 170.404 112.151 169.837 112.611ZM170.354 102.859L170.26 102.926C169.87 102.516 169.417 102.236 168.894 102.084C169.472 102.218 169.955 102.479 170.354 102.859Z" stroke="white" stroke-width="1.34838"/>
<path d="M177.567 113.048C177.834 112.934 178.081 112.788 178.298 112.612C178.865 112.151 179.249 111.472 179.249 110.543C179.249 109.514 178.887 108.963 178.407 108.592C177.871 108.178 177.148 107.952 176.323 107.703L177.567 113.048ZM177.567 113.048C177.817 112.931 178.047 112.784 178.252 112.606C178.84 112.096 179.18 111.37 179.18 110.542C179.18 110.09 179.083 109.687 178.885 109.334C178.69 108.984 178.416 108.719 178.115 108.512C177.558 108.13 176.83 107.901 176.182 107.697C176.164 107.691 176.145 107.685 176.126 107.679L176.125 107.679C175.28 107.414 174.531 107.171 173.976 106.734C173.474 106.34 173.099 105.759 173.099 104.695C173.099 103.755 173.499 103.102 174.085 102.666C174.103 102.652 174.121 102.64 174.138 102.627C173.558 103.079 173.168 103.769 173.168 104.695C173.168 105.177 173.264 105.604 173.463 105.977C173.661 106.35 173.941 106.631 174.255 106.851C174.835 107.256 175.595 107.484 176.267 107.686C176.285 107.692 176.304 107.698 176.322 107.703L177.567 113.048ZM174.82 113.2C174.089 113.023 173.496 112.681 173.026 112.188L173.182 112.084C173.616 112.624 174.173 112.999 174.82 113.2ZM178.816 102.859L178.722 102.926C178.334 102.516 177.882 102.237 177.361 102.085C177.936 102.22 178.418 102.48 178.816 102.859Z" stroke="white" stroke-width="1.34838"/>
<path d="M182.127 102.28H182.196V113.04H182.127V102.28Z" stroke="white" stroke-width="1.34838"/>
<path d="M185.428 106.701V107.346V107.376V108.02V112.402V113.039H185.358V102.279H185.428V102.921V106.701ZM191.973 110.293C191.973 109.64 191.801 109.094 191.506 108.657C191.843 109.061 192.038 109.606 192.038 110.258V110.258C192.038 110.944 191.871 111.43 191.642 111.782C191.409 112.137 191.086 112.397 190.714 112.587C190.612 112.64 190.507 112.686 190.402 112.727C190.764 112.567 191.061 112.357 191.298 112.104C191.86 111.503 191.973 110.781 191.973 110.293ZM191.089 106.143C191.412 105.641 191.458 105.132 191.459 104.879V104.877C191.459 104.079 191.214 103.37 190.613 102.882C190.408 102.715 190.174 102.586 189.919 102.489C190.285 102.601 190.571 102.753 190.791 102.934C191.248 103.312 191.527 103.911 191.527 104.877C191.527 105.387 191.375 105.814 191.089 106.143Z" stroke="white" stroke-width="1.34838"/>
<path d="M194.824 112.402V113.04H194.756V102.28H194.824V112.402Z" stroke="white" stroke-width="1.34838"/>
<path d="M202.952 112.402V113.04H202.883V102.28H202.952V102.92V106.801V107.444V107.475V108.118V112.402Z" stroke="white" stroke-width="1.34838"/>
</svg>
