<svg width="106" height="88" viewBox="0 0 106 88" fill="none" xmlns="http://www.w3.org/2000/svg">
<g clip-path="url(#clip0)">
<path d="M-0.0363777 5.91583C-0.622526 5.91583 -1.19551 5.74236 -1.68288 5.41734C-2.17024 5.09232 -2.5501 4.63035 -2.77441 4.08987C-2.99872 3.54938 -3.0574 2.95464 -2.94305 2.38086C-2.8287 1.80708 -2.54644 1.28003 -2.13198 0.866355C-1.71751 0.452683 -1.18944 0.170969 -0.614555 0.0568374C-0.03967 -0.0572947 0.556217 0.00128043 1.09775 0.225158C1.63928 0.449036 2.10213 0.828161 2.42778 1.31459C2.75343 1.80102 2.92724 2.3729 2.92724 2.95792C2.92634 3.74213 2.61381 4.49397 2.05822 5.04849C1.50263 5.60301 0.749346 5.91494 -0.0363777 5.91583V5.91583ZM-0.0363777 0.492989C-0.524834 0.492989 -1.00232 0.637555 -1.40846 0.908405C-1.8146 1.17925 -2.13114 1.56422 -2.31806 2.01463C-2.50499 2.46504 -2.5539 2.96065 -2.4586 3.4388C-2.36331 3.91695 -2.12809 4.35616 -1.7827 4.70089C-1.43731 5.04561 -0.997257 5.28037 -0.518186 5.37548C-0.0391149 5.47059 0.457455 5.42178 0.90873 5.23522C1.36001 5.04865 1.74571 4.73272 2.01708 4.32736C2.28845 3.922 2.4333 3.44544 2.4333 2.95792C2.43257 2.3044 2.17214 1.67786 1.70914 1.21575C1.24614 0.753647 0.618399 0.493716 -0.0363777 0.492989V0.492989Z" fill="#3F3D56"/>
<path d="M106.086 80.9715H101.211V76.1055H106.086V80.9715ZM101.586 80.5972H105.711V76.4798H101.586L101.586 80.5972Z" fill="#3F3D56"/>
<path d="M6.67994 84.2505L3.35449 80.6921L6.91977 77.373L10.2452 80.9315L6.67994 84.2505ZM3.88455 80.7105L6.69839 83.7215L9.71516 80.9131L6.90132 77.9021L3.88455 80.7105Z" fill="#3F3D56"/>
<path opacity="0.3" d="M57.0131 87.5036C75.9723 87.5036 91.3417 72.1637 91.3417 53.241C91.3417 34.3184 75.9723 18.9785 57.0131 18.9785C38.054 18.9785 22.6846 34.3184 22.6846 53.241C22.6846 72.1637 38.054 87.5036 57.0131 87.5036Z" fill="#AC1637"/>
<path d="M42.9155 9.65234L20.0586 37.3318L53.8867 77.1782L76.4387 50.7155L42.9155 9.65234Z" fill="#AC1637"/>
<path opacity="0.1" d="M42.9155 9.65234L20.0586 37.3318L53.8867 77.1782L76.4387 50.7155L42.9155 9.65234Z" fill="black"/>
<path d="M20.9731 37.6358C21.4787 36.7276 22.1057 35.8921 22.8367 35.1523L43.83 13.9105C43.83 13.9105 51.1441 12.6938 52.6679 16.3439L25.8493 38.2442L20.9731 37.6358Z" fill="#F2F2F2"/>
<path d="M19.9062 37.1797L50.9915 84.6304C50.9915 84.6304 54.0391 86.7596 57.0867 85.5429L88.9338 64.0988L55.1057 12.998L24.63 36.7234L19.9062 37.1797Z" fill="#AC1637"/>
<path d="M51.3054 20.4038L31.7993 34.3936L32.0875 34.7939L51.5936 20.8041L51.3054 20.4038Z" fill="#3F3D56"/>
<path d="M31.5409 39.6294L31.1289 39.9014L56.7286 78.5312L57.1405 78.2592L31.5409 39.6294Z" fill="#3F3D56"/>
<path d="M80.5567 64.2014L59.8379 79.416L60.1307 79.8132L80.8494 64.5985L80.5567 64.2014Z" fill="#3F3D56"/>
<path d="M55.0039 21.07L54.5986 21.3516L81.1125 59.3729L81.5177 59.0914L55.0039 21.07Z" fill="#3F3D56"/>
<path d="M46.8137 13.6094L22.6982 35.6992L22.9042 35.9232L47.0196 13.8333L46.8137 13.6094Z" fill="#3F3D56"/>
<path d="M48.8229 13.7985L23.6191 36.0059L23.8209 36.234L49.0246 14.0266L48.8229 13.7985Z" fill="#3F3D56"/>
<path d="M50.3991 14.2411L24.2354 36.0078L24.4306 36.2416L50.5943 14.4749L50.3991 14.2411Z" fill="#3F3D56"/>
</g>
<defs>
<clipPath id="clip0">
<rect width="106" height="88" fill="white"/>
</clipPath>
</defs>
</svg>
