<svg width="100" height="84" viewBox="0 0 100 84" fill="none" xmlns="http://www.w3.org/2000/svg">
<g clip-path="url(#clip0)">
<path d="M62.9534 26.336L62.6758 28.372L60.9598 40.935L58.1496 61.5086L57.4461 66.6596C57.3925 67.0528 57.1982 67.4132 56.8992 67.6742C56.6002 67.9351 56.2168 68.0789 55.8199 68.0789H37.0804C36.6842 68.079 36.3013 67.9357 36.0024 67.6756C35.7035 67.4155 35.5088 67.0561 35.4542 66.6636L34.7386 61.5086L31.881 40.935L30.1347 28.3629L29.8541 26.3401C29.8217 26.1077 29.8395 25.8711 29.9063 25.6462C29.9731 25.4213 30.0874 25.2133 30.2415 25.0363C30.3955 24.8593 30.5857 24.7175 30.7992 24.6203C31.0127 24.523 31.2446 24.4726 31.4792 24.4727H61.3273C61.5615 24.4728 61.7931 24.523 62.0063 24.62C62.2195 24.717 62.4096 24.8585 62.5636 25.035C62.7176 25.2115 62.8321 25.4189 62.8994 25.6434C62.9666 25.8678 62.985 26.1039 62.9534 26.336Z" fill="#AC1637"/>
<path d="M59.4468 19.0215H33.4567C32.5502 19.0215 31.8154 19.7563 31.8154 20.6627V22.831C31.8154 23.7375 32.5502 24.4722 33.4567 24.4722H59.4468C60.3532 24.4722 61.0881 23.7375 61.0881 22.831V20.6627C61.0881 19.7563 60.3532 19.0215 59.4468 19.0215Z" fill="#2F2E41"/>
<path d="M65.3014 27.1988C52.7722 28.5664 40.1314 28.5664 27.6021 27.1988C27.3866 27.1988 27.1732 27.1564 26.9741 27.0739C26.775 26.9914 26.594 26.8705 26.4416 26.7181C26.2892 26.5657 26.1683 26.3848 26.0859 26.1857C26.0034 25.9866 25.9609 25.7732 25.9609 25.5577V23.3892C25.9609 22.9539 26.1338 22.5365 26.4416 22.2287C26.7494 21.921 27.1669 21.748 27.6021 21.748C40.1214 23.2873 52.7821 23.2873 65.3014 21.748C65.7367 21.7481 66.1542 21.921 66.4619 22.2287C66.7697 22.5365 66.9426 22.9539 66.9426 23.3892V25.5577C66.9426 25.9929 66.7697 26.4103 66.4619 26.7181C66.1542 27.0259 65.7367 27.1988 65.3014 27.1988Z" fill="#2F2E41"/>
<path d="M58.921 60.7602H33.6875C33.461 60.7602 33.2419 60.6794 33.0696 60.5323C32.8973 60.3853 32.7831 60.1816 32.7476 59.9578L30.0215 42.7834C30 42.6475 30.0081 42.5086 30.0454 42.3762C30.0827 42.2437 30.1483 42.121 30.2377 42.0163C30.327 41.9117 30.438 41.8276 30.5629 41.77C30.6879 41.7124 30.8238 41.6826 30.9614 41.6826H61.8288C61.9672 41.6826 62.104 41.7128 62.2295 41.7711C62.3551 41.8294 62.4664 41.9143 62.5557 42.0201C62.645 42.1258 62.7102 42.2498 62.7467 42.3833C62.7832 42.5168 62.7902 42.6566 62.7671 42.7931L59.8592 59.9675C59.8217 60.1892 59.7069 60.3904 59.5352 60.5355C59.3634 60.6807 59.1459 60.7602 58.921 60.7602Z" fill="#2F2E41"/>
<path d="M4.60913 11.9158C4.02298 11.9158 3.45 11.7424 2.96263 11.4173C2.47527 11.0923 2.09541 10.6304 1.8711 10.0899C1.64679 9.54938 1.5881 8.95464 1.70245 8.38086C1.81681 7.80708 2.09906 7.28003 2.51353 6.86636C2.928 6.45268 3.45607 6.17097 4.03095 6.05684C4.60584 5.94271 5.20173 6.00128 5.74326 6.22516C6.28479 6.44904 6.74764 6.82816 7.07329 7.31459C7.39893 7.80102 7.57275 8.3729 7.57275 8.95792C7.57185 9.74213 7.25932 10.494 6.70373 11.0485C6.14814 11.603 5.39485 11.9149 4.60913 11.9158V11.9158ZM4.60913 6.49299C4.12067 6.49299 3.64318 6.63756 3.23705 6.90841C2.83091 7.17925 2.51437 7.56422 2.32744 8.01463C2.14052 8.46504 2.09161 8.96065 2.18691 9.4388C2.2822 9.91695 2.51741 10.3562 2.86281 10.7009C3.2082 11.0456 3.64825 11.2804 4.12732 11.3755C4.60639 11.4706 5.10296 11.4218 5.55424 11.2352C6.00551 11.0487 6.39122 10.7327 6.66259 10.3274C6.93396 9.922 7.07881 9.44544 7.07881 8.95792C7.07808 8.3044 6.81765 7.67786 6.35465 7.21575C5.89165 6.75365 5.26391 6.49372 4.60913 6.49299V6.49299Z" fill="#3F3D56"/>
<path d="M99.7319 74.9715H94.8564V70.1055H99.7319V74.9715ZM95.2315 74.5972H99.3568V70.4798H95.2315L95.2315 74.5972Z" fill="#3F3D56"/>
<path d="M0.325447 78.2505L-3 74.6921L0.565279 71.373L3.89073 74.9315L0.325447 78.2505ZM-2.46994 74.7105L0.343896 77.7215L3.36067 74.9131L0.546829 71.9021L-2.46994 74.7105Z" fill="#3F3D56"/>
<path opacity="0.3" d="M45.9741 78.5251C64.9332 78.5251 80.3026 63.1852 80.3026 44.2625C80.3026 25.3399 64.9332 10 45.9741 10C27.0149 10 11.6455 25.3399 11.6455 44.2625C11.6455 63.1852 27.0149 78.5251 45.9741 78.5251Z" fill="#AC1637"/>
</g>
<defs>
<clipPath id="clip0">
<rect width="100" height="84" fill="white"/>
</clipPath>
</defs>
</svg>
