<svg width="24" height="26" viewBox="0 0 24 26" fill="none" xmlns="http://www.w3.org/2000/svg">
<path d="M11.2523 23.756H4.67954C2.89329 23.756 1.44397 22.3014 1.44397 20.5205V4.67954C1.44397 2.89329 2.89864 1.44397 4.67954 1.44397H11.3593C11.7604 1.44397 12.0812 1.12309 12.0812 0.721987C12.0812 0.320883 11.7604 0 11.3593 0H4.67954C2.09644 0 0 2.10178 0 4.67954V20.5205C0 23.1036 2.10178 25.2 4.67954 25.2H11.2523C11.6534 25.2 11.9743 24.8791 11.9743 24.478C11.9743 24.0769 11.6481 23.756 11.2523 23.756Z" fill="white"/>
<path d="M23.1462 12.0922L18.5576 7.5036C18.2742 7.22015 17.8196 7.22015 17.5361 7.5036C17.2527 7.78705 17.2527 8.24163 17.5361 8.52508L20.8947 11.8837H6.2464C5.8453 11.8837 5.52441 12.2045 5.52441 12.6056C5.52441 13.0067 5.8453 13.3276 6.2464 13.3276H20.8947L17.5361 16.6862C17.2527 16.9696 17.2527 17.4242 17.5361 17.7077C17.6752 17.8467 17.8624 17.9216 18.0442 17.9216C18.226 17.9216 18.4132 17.8521 18.5523 17.7077L23.1409 13.1191C23.4297 12.8303 23.4297 12.3703 23.1462 12.0922Z" fill="white"/>
</svg>
