<svg width="28" height="29" viewBox="0 0 28 29" fill="none" xmlns="http://www.w3.org/2000/svg">
<g id="straighten_24px">
<path id="icon/image/straighten_24px" fill-rule="evenodd" clip-rule="evenodd" d="M16.4221 7.41925L6.59265 17.2487C5.99196 17.8493 5.99196 18.8323 6.59265 19.433L10.9613 23.8016C11.562 24.4023 12.5449 24.4023 13.1456 23.8016L22.975 13.9722C23.5757 13.3715 23.5757 12.3886 22.975 11.7879L18.6064 7.41925C18.0057 6.81856 17.0227 6.81856 16.4221 7.41925ZM21.883 12.88L12.0536 22.7094L7.68492 18.3408L8.77708 17.2486L10.9614 19.4329L12.0536 18.3408L9.86924 16.1564L10.9614 15.0643L13.1457 17.2486L14.2379 16.1564L12.0536 13.9721L13.1457 12.88L15.33 15.0643L16.4222 13.9721L14.2379 11.7878L15.33 10.6957L17.5143 12.88L18.6065 11.7878L16.4222 9.6035L17.5143 8.51134L21.883 12.88ZM14.7838 26.5318L19.0906 25.3778L17.7872 24.0745L23.7941 18.0676L25.0975 19.371L26.2515 15.0642L21.9447 16.2182L23.248 17.5215L17.2412 23.5284L15.9378 22.225L14.7838 26.5318Z" fill="#AC1637"/>
</g>
</svg>
