<svg width="19" height="22" viewBox="0 0 19 22" fill="none" xmlns="http://www.w3.org/2000/svg">
<g id="straighten_24px">
<path id="icon/image/straighten_24px" fill-rule="evenodd" clip-rule="evenodd" d="M15.7111 7.1748H1.81017C0.96067 7.1748 0.265625 7.86985 0.265625 8.71935V14.8975C0.265625 15.747 0.96067 16.4421 1.81017 16.4421H15.7111C16.5606 16.4421 17.2556 15.747 17.2556 14.8975V8.71935C17.2556 7.86985 16.5606 7.1748 15.7111 7.1748ZM15.711 14.8978H1.81013V8.71966H3.35467V11.8088H4.89921V8.71966H6.44376V11.8088H7.9883V8.71966H9.53285V11.8088H11.0774V8.71966H12.6219V11.8088H14.1665V8.71966H15.711V14.8978ZM1.03783 19.5312L4.89919 21.7605V19.9173H13.3942V21.7605L17.2555 19.5312L13.3942 17.3018V19.145H4.89919V17.3018L1.03783 19.5312Z" fill="#AC1637"/>
</g>
</svg>
