<svg width="23" height="19" viewBox="0 0 23 19" fill="none" xmlns="http://www.w3.org/2000/svg">
<g id="straighten_24px">
<path id="icon/image/straighten_24px" fill-rule="evenodd" clip-rule="evenodd" d="M7.43994 3.08972L7.43994 16.9906C7.43994 17.8401 8.13499 18.5352 8.98449 18.5352H15.1627C16.0122 18.5352 16.7072 17.8401 16.7072 16.9906V3.08972C16.7072 2.24022 16.0122 1.54518 15.1627 1.54518H8.98449C8.13499 1.54518 7.43994 2.24022 7.43994 3.08972ZM15.1628 3.08976V16.9907H8.98466V15.4461H12.0738V13.9016H8.98466V12.357H12.0738V10.8125H8.98466V9.26794H12.0738V7.72339H8.98466V6.17885H12.0738V4.63431H8.98466V3.08976H15.1628ZM19.7963 17.7629L22.0257 13.9015H20.1824V5.40655L22.0257 5.40655L19.7963 1.54519L17.5669 5.40655H19.4102V13.9015H17.5669L19.7963 17.7629Z" fill="#AC1637"/>
</g>
</svg>
