<svg width="15" height="17" viewBox="0 0 15 17" fill="none" xmlns="http://www.w3.org/2000/svg">
<path d="M13.9275 10.6258L15 9.47381L13.9275 8.32178L11.25 11.1978L4.8225 4.2937L7.5 1.41765L6.4275 0.265625L5.355 1.41765L4.2825 0.265625L2.6775 1.98964L1.605 0.837612L0.5325 1.98964L1.605 3.14167L0 4.86569L1.0725 6.01772L0 7.16975L1.0725 8.32178L3.75 5.44573L10.1775 12.3499L7.5 15.2259L8.5725 16.3779L9.645 15.2259L10.7175 16.3779L12.3225 14.6539L13.395 15.8059L14.4675 14.6539L13.395 13.5019L15 11.7779L13.9275 10.6258Z" fill="#AC1637"/>
</svg>
