<svg width="361" height="325" viewBox="0 0 361 325" fill="none" xmlns="http://www.w3.org/2000/svg">
<rect x="43.5389" y="42.5389" width="265.922" height="261.922" stroke="white" stroke-width="1.07787"/>
<rect x="262.5" y="281.5" width="95" height="43" stroke="white"/>
<path d="M53 85C72.8823 85 89 68.8823 89 49C89 29.1177 72.8823 13 53 13C33.1178 13 17 29.1177 17 49C17 68.8823 33.1178 85 53 85Z" fill="url(#paint0_linear)"/>
<path d="M53.0001 84.0275C72.3457 84.0275 88.0285 68.3447 88.0285 48.9991C88.0285 29.6535 72.3457 13.9707 53.0001 13.9707C33.6544 13.9707 17.9717 29.6535 17.9717 48.9991C17.9717 68.3447 33.6544 84.0275 53.0001 84.0275Z" fill="#AC1637"/>
<path d="M53.0001 77.4601C68.7181 77.4601 81.4601 64.7181 81.4601 49.0001C81.4601 33.282 68.7181 20.54 53.0001 20.54C37.282 20.54 24.54 33.282 24.54 49.0001C24.54 64.7181 37.282 77.4601 53.0001 77.4601Z" fill="white"/>
<path d="M52.9997 50.7016C53.9397 50.7016 54.7016 49.9397 54.7016 48.9997C54.7016 48.0598 53.9397 47.2979 52.9997 47.2979C52.0598 47.2979 51.2979 48.0598 51.2979 48.9997C51.2979 49.9397 52.0598 50.7016 52.9997 50.7016Z" fill="url(#paint1_linear)"/>
<path d="M53.642 49.21L52.5928 48.8574L62.0361 26.7559L63.0853 27.249L53.642 49.21Z" fill="url(#paint2_linear)"/>
<path d="M62.1484 26.9593L52.9053 48.8516L53.578 49.1356L62.8212 27.2433L62.1484 26.9593Z" fill="#2196F3"/>
<path d="M58.8884 60.7517L52.8027 49.4197L53.6421 49L59.9377 60.1221L58.8884 60.7517Z" fill="url(#paint3_linear)"/>
<path d="M53.5606 49.0761L52.9189 49.4248L58.9999 60.6152L59.6416 60.2665L53.5606 49.0761Z" fill="#2196F3"/>
<path d="M79.5145 50.4606C79.9178 50.4606 80.2447 50.1336 80.2447 49.7303C80.2447 49.327 79.9178 49 79.5145 49C79.1111 49 78.7842 49.327 78.7842 49.7303C78.7842 50.1336 79.1111 50.4606 79.5145 50.4606Z" fill="#AC1637"/>
<path d="M30.9824 36.3624C31.2443 35.9088 31.0889 35.3286 30.6352 35.0667C30.1815 34.8048 29.6014 34.9602 29.3395 35.4139C29.0776 35.8676 29.233 36.4477 29.6867 36.7096C30.1404 36.9715 30.7205 36.8161 30.9824 36.3624Z" fill="url(#paint4_linear)"/>
<path d="M30.8784 63.7096C31.332 63.4477 31.4875 62.8676 31.2256 62.4139C30.9636 61.9603 30.3835 61.8048 29.9298 62.0668C29.4762 62.3287 29.3207 62.9088 29.5827 63.3625C29.8446 63.8161 30.4247 63.9716 30.8784 63.7096Z" fill="url(#paint5_linear)"/>
<path d="M26.4876 50.6783C27.0114 50.6783 27.4361 50.2536 27.4361 49.7298C27.4361 49.2059 27.0114 48.7812 26.4876 48.7812C25.9637 48.7812 25.5391 49.2059 25.5391 49.7298C25.5391 50.2536 25.9637 50.6783 26.4876 50.6783Z" fill="url(#paint6_linear)"/>
<path d="M40.3149 26.9792C40.7686 26.7173 40.924 26.1371 40.6621 25.6835C40.4002 25.2298 39.82 25.0744 39.3664 25.3363C38.9127 25.5982 38.7573 26.1783 39.0192 26.632C39.2811 27.0857 39.8612 27.2411 40.3149 26.9792Z" fill="url(#paint7_linear)"/>
<path d="M53.4506 23.5749C53.9043 23.313 54.0598 22.7328 53.7978 22.2792C53.5359 21.8255 52.9558 21.6701 52.5021 21.932C52.0484 22.1939 51.893 22.774 52.1549 23.2277C52.4169 23.6814 52.997 23.8368 53.4506 23.5749Z" fill="url(#paint8_linear)"/>
<path d="M66.5859 26.9811C67.0396 26.7192 67.195 26.1391 66.9331 25.6854C66.6712 25.2317 66.091 25.0763 65.6374 25.3382C65.1837 25.6002 65.0283 26.1803 65.2902 26.634C65.5521 27.0876 66.1322 27.2431 66.5859 26.9811Z" fill="url(#paint9_linear)"/>
<path d="M76.3154 36.7116C76.7691 36.4497 76.9245 35.8696 76.6626 35.4159C76.4006 34.9622 75.8205 34.8068 75.3669 35.0687C74.9132 35.3306 74.7577 35.9107 75.0197 36.3644C75.2816 36.8181 75.8617 36.9735 76.3154 36.7116Z" fill="url(#paint10_linear)"/>
<path d="M76.0732 63.7116C76.5269 63.4497 76.6823 62.8696 76.4204 62.4159C76.1585 61.9622 75.5783 61.8068 75.1247 62.0687C74.671 62.3306 74.5156 62.9107 74.7775 63.3644C75.0394 63.8181 75.6195 63.9735 76.0732 63.7116Z" fill="url(#paint11_linear)"/>
<path d="M66.0991 73.197C66.5528 72.935 66.7082 72.3549 66.4463 71.9012C66.1843 71.4476 65.6042 71.2921 65.1505 71.5541C64.6969 71.816 64.5414 72.3961 64.8034 72.8498C65.0653 73.3034 65.6454 73.4589 66.0991 73.197Z" fill="url(#paint12_linear)"/>
<path d="M53.4497 76.1178C53.9033 75.8559 54.0588 75.2758 53.7969 74.8221C53.5349 74.3685 52.9548 74.213 52.5011 74.475C52.0475 74.7369 51.892 75.317 52.154 75.7707C52.4159 76.2243 52.996 76.3798 53.4497 76.1178Z" fill="url(#paint13_linear)"/>
<path d="M40.8017 73.1979C41.2554 72.936 41.4108 72.3559 41.1489 71.9022C40.887 71.4485 40.3069 71.2931 39.8532 71.555C39.3995 71.817 39.2441 72.3971 39.506 72.8507C39.7679 73.3044 40.348 73.4599 40.8017 73.1979Z" fill="url(#paint14_linear)"/>
<path d="M52.9998 23.4586C53.4031 23.4586 53.7301 23.1317 53.7301 22.7283C53.7301 22.325 53.4031 21.998 52.9998 21.998C52.5965 21.998 52.2695 22.325 52.2695 22.7283C52.2695 23.1317 52.5965 23.4586 52.9998 23.4586Z" fill="#69F0AE"/>
<path d="M66.7677 26.6135C66.9694 26.2642 66.8497 25.8175 66.5004 25.6159C66.1511 25.4142 65.7045 25.5339 65.5028 25.8832C65.3012 26.2325 65.4209 26.6791 65.7701 26.8808C66.1194 27.0824 66.5661 26.9628 66.7677 26.6135Z" fill="#69F0AE"/>
<path d="M76.1157 36.4974C76.4649 36.2957 76.5846 35.8491 76.383 35.4998C76.1813 35.1505 75.7347 35.0309 75.3854 35.2325C75.0361 35.4342 74.9164 35.8808 75.1181 36.2301C75.3197 36.5794 75.7664 36.6991 76.1157 36.4974Z" fill="#69F0AE"/>
<path d="M76.2306 63.2531C76.4323 62.9038 76.3126 62.4572 75.9633 62.2555C75.614 62.0539 75.1674 62.1735 74.9657 62.5228C74.7641 62.8721 74.8837 63.3188 75.233 63.5204C75.5823 63.7221 76.029 63.6024 76.2306 63.2531Z" fill="#69F0AE"/>
<path d="M65.9902 72.9583C66.3395 72.7567 66.4591 72.31 66.2575 71.9607C66.0558 71.6115 65.6092 71.4918 65.2599 71.6935C64.9106 71.8951 64.7909 72.3417 64.9926 72.691C65.1942 73.0403 65.6409 73.16 65.9902 72.9583Z" fill="#69F0AE"/>
<path d="M40.2289 26.8822C40.5782 26.6805 40.6979 26.2339 40.4962 25.8846C40.2946 25.5353 39.8479 25.4156 39.4987 25.6173C39.1494 25.8189 39.0297 26.2656 39.2314 26.6149C39.433 26.9642 39.8796 27.0838 40.2289 26.8822Z" fill="#69F0AE"/>
<path d="M30.883 36.2306C31.0846 35.8814 30.9649 35.4347 30.6157 35.2331C30.2664 35.0314 29.8197 35.1511 29.6181 35.5004C29.4164 35.8497 29.5361 36.2963 29.8854 36.498C30.2347 36.6996 30.6813 36.5799 30.883 36.2306Z" fill="#69F0AE"/>
<path d="M79.9658 50.5768C80.4195 50.3149 80.5749 49.7348 80.313 49.2811C80.051 48.8275 79.4709 48.672 79.0173 48.9339C78.5636 49.1959 78.4081 49.776 78.6701 50.2297C78.932 50.6833 79.5121 50.8388 79.9658 50.5768Z" fill="#69F0AE"/>
<path d="M30.769 63.5199C31.1183 63.3182 31.2379 62.8716 31.0363 62.5223C30.8346 62.173 30.388 62.0533 30.0387 62.255C29.6894 62.4566 29.5697 62.9033 29.7714 63.2526C29.9731 63.6018 30.4197 63.7215 30.769 63.5199Z" fill="#69F0AE"/>
<path d="M41.0075 72.6916C41.2091 72.3423 41.0895 71.8957 40.7402 71.694C40.3909 71.4923 39.9442 71.612 39.7426 71.9613C39.5409 72.3106 39.6606 72.7572 40.0099 72.9589C40.3592 73.1606 40.8058 73.0409 41.0075 72.6916Z" fill="#69F0AE"/>
<path d="M26.4871 50.4606C26.8904 50.4606 27.2174 50.1336 27.2174 49.7303C27.2174 49.327 26.8904 49 26.4871 49C26.0838 49 25.7568 49.327 25.7568 49.7303C25.7568 50.1336 26.0838 50.4606 26.4871 50.4606Z" fill="#69F0AE"/>
<path d="M52.9998 75.9996C53.4031 75.9996 53.7301 75.6727 53.7301 75.2693C53.7301 74.866 53.4031 74.5391 52.9998 74.5391C52.5965 74.5391 52.2695 74.866 52.2695 75.2693C52.2695 75.6727 52.5965 75.9996 52.9998 75.9996Z" fill="#69F0AE"/>
<path opacity="0.2" d="M26.0005 51.6755C26.0024 45.4041 28.0754 39.3088 31.8975 34.3367C35.7196 29.3645 41.0768 25.7938 47.1368 24.1793C53.1969 22.5647 59.6205 22.9967 65.4097 25.4082C71.199 27.8197 76.0298 32.0756 79.1517 37.5147C77.6198 33.9563 75.3776 30.748 72.5624 28.0864C69.7472 25.4247 66.4182 23.3658 62.7795 22.0357C59.1408 20.7057 55.2688 20.1324 51.4007 20.351C47.5327 20.5697 43.75 21.5757 40.2843 23.3074C36.8187 25.039 33.743 27.46 31.2457 30.4219C28.7484 33.3838 26.882 36.8244 25.7609 40.5328C24.6397 44.2413 24.2874 48.1396 24.7256 51.9889C25.1637 55.8383 26.3831 59.5577 28.3089 62.9193C26.7812 59.3679 25.9957 55.5416 26.0005 51.6755Z" fill="#AC1637"/>
<path d="M53.0003 50.2175C53.6725 50.2175 54.2175 49.6725 54.2175 49.0003C54.2175 48.3281 53.6725 47.7832 53.0003 47.7832C52.3281 47.7832 51.7832 48.3281 51.7832 49.0003C51.7832 49.6725 52.3281 50.2175 53.0003 50.2175Z" fill="#69F0AE"/>
<g clip-path="url(#clip0)">
<path d="M92.7981 274.816C92.7981 285.916 152.787 294.915 226.789 294.915C300.791 294.915 360.78 285.916 360.78 274.816C360.78 266.959 330.71 260.151 286.886 256.849C268.815 255.483 248.396 254.718 226.789 254.718C217.907 254.718 209.228 254.847 200.834 255.094C139.254 256.909 92.7981 265.048 92.7981 274.816Z" fill="#3F3D56"/>
<path opacity="0.1" d="M244.078 278.922C215.671 278.922 192.643 276.116 192.643 272.655C192.643 269.194 215.671 266.388 244.078 266.388C272.485 266.388 295.514 269.194 295.514 272.655C295.514 276.116 272.485 278.922 244.078 278.922Z" fill="black"/>
<path d="M244.295 277.194C217.439 277.194 195.669 253.972 195.669 225.327C195.669 196.681 217.439 173.459 244.295 173.459C271.15 173.459 292.92 196.681 292.92 225.327C292.92 253.972 271.15 277.194 244.295 277.194Z" fill="#3F3D56"/>
<path d="M228.95 256.015H259.207V283.677H228.95V256.015Z" fill="#AC1637"/>
<path d="M189.401 262.715L191.13 272.224L179.892 273.953L172.545 269.631L172.977 262.715H189.401Z" fill="#575A89"/>
<path d="M246.023 84.2031C246.023 84.2031 246.888 94.1443 249.049 94.5766C251.21 95.0088 244.294 112.298 244.294 112.298H233.921L225.709 110.137L229.599 100.628C229.599 100.628 234.785 93.7121 230.895 88.0931C227.005 82.4741 246.023 84.2031 246.023 84.2031Z" fill="#A0616A"/>
<path opacity="0.1" d="M246.023 84.2031C246.023 84.2031 246.888 94.1443 249.049 94.5766C251.21 95.0088 244.294 112.298 244.294 112.298H233.921L225.709 110.137L229.599 100.628C229.599 100.628 234.785 93.7121 230.895 88.0931C227.005 82.4741 246.023 84.2031 246.023 84.2031Z" fill="black"/>
<path d="M267.635 160.276C267.635 160.276 278.873 181.887 269.796 186.21C260.719 190.532 258.558 190.1 258.558 191.396C258.558 192.693 260.287 192.261 259.422 194.422C258.558 196.583 261.151 205.228 258.558 210.414C255.964 215.601 256.829 219.491 256.829 219.491C256.829 219.491 256.829 219.923 255.964 221.652C255.1 223.381 254.668 224.678 255.1 225.542C255.532 226.407 258.126 232.026 255.532 233.323C252.939 234.619 239.54 235.484 238.243 233.323C236.946 231.161 239.54 229.865 238.243 228.568C236.946 227.271 236.082 226.839 236.946 225.975C237.811 225.11 238.675 214.304 238.675 214.304C238.675 214.304 236.514 201.77 237.379 200.041C238.243 198.312 239.54 196.583 238.675 195.286C237.811 193.99 236.946 194.422 236.514 192.693C236.082 190.964 235.217 187.074 235.217 187.074L230.463 186.642L219.225 188.803C219.225 188.803 206.69 202.634 192.859 206.957C192.859 206.957 188.969 210.847 187.672 210.847C186.376 210.847 186.376 210.847 186.808 211.711C187.24 212.576 188.537 212.576 187.672 213.44C186.808 214.304 185.511 213.008 186.376 214.304C187.24 215.601 188.104 215.601 187.24 216.466C186.376 217.33 187.672 222.085 187.672 222.517C187.672 222.949 191.562 263.579 190.266 264.443C188.969 265.308 170.815 267.901 169.519 264.443C168.222 260.985 170.383 256.663 170.383 256.663C170.383 256.663 163.9 204.795 165.629 201.338C167.357 197.88 173.409 182.319 205.826 172.378C205.826 172.378 214.903 170.649 214.903 169.353C214.903 168.056 215.767 159.844 217.496 159.411C219.225 158.979 229.166 158.547 229.166 158.547L241.701 162.437L258.99 159.411L267.635 160.276Z" fill="#2F2E41"/>
<path d="M252.507 232.89L254.668 240.671C254.668 240.671 256.397 253.205 254.236 256.231C252.538 258.607 249.507 261.517 243.886 262.028C242.311 262.173 240.733 261.775 239.415 260.901C238.096 260.027 237.115 258.73 236.634 257.223C236.57 257.042 236.529 256.854 236.514 256.663C236.514 255.799 237.811 245.425 237.811 245.425L239.972 234.619L240.404 231.594L252.507 232.89Z" fill="#2F2E41"/>
<path d="M189.402 270.062C189.402 270.062 191.563 267.901 191.995 270.062C192.427 272.223 194.156 281.3 191.131 281.732C188.105 282.164 159.146 286.486 156.12 284.758C153.094 283.029 147.475 280.435 150.933 279.139C154.391 277.842 164.332 273.952 164.332 273.952C164.332 273.952 169.951 266.604 170.816 266.172C171.68 265.739 176.435 266.604 178.596 268.333C180.757 270.062 189.402 270.062 189.402 270.062Z" fill="#2F2E41"/>
<path d="M235.65 93.2806C228.25 93.2806 222.251 87.2817 222.251 79.8815C222.251 72.4814 228.25 66.4824 235.65 66.4824C243.05 66.4824 249.049 72.4814 249.049 79.8815C249.049 87.2817 243.05 93.2806 235.65 93.2806Z" fill="#A0616A"/>
<path d="M236.947 110.137L242.133 104.518L247.883 93.2803C247.883 93.2803 252.075 91.9836 252.939 94.1448C253.804 96.3059 269.364 103.222 269.364 103.222C269.364 103.222 265.474 139.529 267.203 142.987C268.932 146.445 271.957 160.276 269.364 161.573C266.77 162.869 254.668 161.573 250.778 163.301C246.888 165.03 235.65 165.03 232.624 162.869C229.599 160.708 228.734 158.979 225.709 160.276C223.133 161.38 217.111 123.64 215.378 112.393C215.232 111.448 215.353 110.482 215.728 109.603C216.103 108.723 216.716 107.967 217.499 107.418C221.377 104.698 228.362 100.01 229.599 100.628C231.328 101.493 236.947 110.137 236.947 110.137Z" fill="#575A89"/>
<path d="M218.361 108.408C217.346 108.662 216.433 109.22 215.744 110.008C215.056 110.796 214.625 111.775 214.509 112.815L211.013 144.283C211.013 144.283 219.657 162.869 223.98 150.334C228.302 137.8 218.361 108.408 218.361 108.408Z" fill="#575A89"/>
<path d="M219.225 147.308L209.716 144.715C209.716 144.715 207.987 156.817 206.258 156.817C204.53 156.817 212.31 163.733 216.2 162.868C220.09 162.004 225.709 158.978 226.141 156.817C226.573 154.656 222.251 145.579 222.251 145.579L219.225 147.308Z" fill="#575A89"/>
<path d="M245.765 85.6613C244.854 83.6523 245.012 81.3088 244.259 79.2355C243.855 78.1253 243.201 77.1234 242.346 76.308C241.491 75.4927 240.46 74.8859 239.332 74.5352C238.204 74.1845 237.01 74.0993 235.844 74.2863C234.678 74.4733 233.57 74.9274 232.609 75.6131C231.64 76.304 230.668 77.2747 229.485 77.1428C228.212 77.0007 227.076 75.5799 225.905 76.1006C224.607 76.6778 224.957 79.0038 223.643 79.541C222.95 79.8238 222.133 79.3884 221.733 78.7562C221.384 78.0919 221.194 77.3557 221.178 76.6054C220.996 74.7619 220.832 72.8108 221.632 71.1399C221.968 70.5735 222.261 69.9825 222.508 69.3721C222.648 68.802 222.704 68.2145 222.675 67.6283C222.682 65.4615 222.84 63.2013 223.931 61.3289C225.141 59.2511 227.378 57.9225 229.711 57.3428C232.045 56.763 234.49 56.8519 236.885 57.0547C240.846 57.39 244.976 58.1088 248.097 60.5709C248.521 60.8808 248.886 61.2643 249.175 61.7032C249.448 62.2246 249.642 62.7843 249.749 63.3636C250.423 66.1109 251.435 68.7643 252.76 71.2635C253.398 72.323 253.919 73.4484 254.314 74.62C254.645 75.8105 254.623 77.1673 253.93 78.1905C253.366 79.0236 252.465 79.4676 251.756 80.1487C251.054 80.8236 250.726 82.1216 249.948 82.6326C249.27 83.0787 248.457 82.7638 247.764 83.2367C246.876 83.8437 246.811 85.1749 245.765 85.6613Z" fill="#2F2E41"/>
<path d="M234.786 116.621L233.489 114.027C233.489 114.027 214.471 119.646 210.581 124.833C210.581 124.833 201.072 118.782 195.885 119.646L190.698 120.511L206.691 134.774L227.006 133.045L234.786 116.621Z" fill="#F2F2F2"/>
<path d="M235.65 114.027L253.371 138.664L227.87 151.199C227.87 151.199 225.486 152.496 223.652 151.199L206.69 143.419L190.698 120.511L206.69 128.723C206.69 128.723 208.419 125.265 211.877 126.994L235.65 114.027Z" fill="#AC1637"/>
<path d="M208.419 157.683L204.962 148.606C204.962 148.606 197.181 138.665 201.504 133.91C205.826 129.155 210.581 147.741 210.581 147.741L208.419 157.683Z" fill="#A0616A"/>
<path d="M248.315 156.233L240.77 150.116C240.77 150.116 229.052 145.42 230.406 139.139C231.759 132.858 245.197 146.55 245.197 146.55L248.315 156.233Z" fill="#A0616A"/>
<path opacity="0.1" d="M266.986 112.515H267.419C267.419 112.515 274.118 104.519 275.415 115.324C276.712 126.13 281.034 162.005 269.796 163.302C258.558 164.598 250.562 157.899 250.562 157.899C250.562 157.899 242.349 145.364 245.375 145.364C246.839 145.364 250.82 144.707 254.452 144.932C258.326 145.172 261.807 146.264 261.584 145.148C261.151 142.987 254.884 115.54 266.986 112.515Z" fill="black"/>
<path d="M267.635 104.086L269.364 103.222C269.364 103.222 276.279 104.518 277.576 115.324C278.873 126.13 283.195 162.005 271.957 163.302C260.719 164.598 245.591 161.573 245.591 161.573C245.591 161.573 242.565 145.148 245.591 145.148C248.617 145.148 264.177 147.309 263.745 145.148C263.312 142.987 255.532 107.112 267.635 104.086Z" fill="#575A89"/>
<path d="M214.687 152.711L209.92 145.406L206.906 157.466L214.687 160.924V152.711Z" fill="#575A89"/>
<path d="M312.598 48.5445C306.153 48.5445 300.928 43.3196 300.928 36.8743C300.928 30.429 306.153 25.2041 312.598 25.2041C319.044 25.2041 324.269 30.429 324.269 36.8743C324.269 43.3196 319.044 48.5445 312.598 48.5445Z" fill="#F2F2F2"/>
<path d="M298.767 123.752H326.43V151.415H298.767V123.752Z" fill="#F2F2F2"/>
<path d="M199.991 0.0859375L192.989 12.213L185.988 24.3401H199.991H213.994L206.992 12.213L199.991 0.0859375Z" fill="#F2F2F2"/>
</g>
<rect x="3" y="110" width="103.581" height="108" fill="#F39801"/>
<path d="M30.0469 147.688C28.7812 149.203 26.9922 150.383 24.6797 151.227C22.3672 152.055 19.8047 152.469 16.9922 152.469C14.0391 152.469 11.4453 151.828 9.21094 150.547C6.99219 149.25 5.27344 147.375 4.05469 144.922C2.85156 142.469 2.23437 139.586 2.20312 136.273V133.953C2.20312 130.547 2.77344 127.602 3.91406 125.117C5.07031 122.617 6.72656 120.711 8.88281 119.398C11.0547 118.07 13.5937 117.406 16.5 117.406C20.5469 117.406 23.7109 118.375 25.9922 120.313C28.2734 122.234 29.625 125.039 30.0469 128.727H23.2031C22.8906 126.773 22.1953 125.344 21.1172 124.438C20.0547 123.531 18.5859 123.078 16.7109 123.078C14.3203 123.078 12.5 123.977 11.25 125.773C10 127.57 9.36719 130.242 9.35156 133.789V135.969C9.35156 139.547 10.0312 142.25 11.3906 144.078C12.75 145.906 14.7422 146.82 17.3672 146.82C20.0078 146.82 21.8906 146.258 23.0156 145.133V139.25H16.6172V134.07H30.0469V147.688ZM50.5078 149.422C48.8359 151.453 46.5234 152.469 43.5703 152.469C40.8516 152.469 38.7734 151.688 37.3359 150.125C35.9141 148.563 35.1875 146.273 35.1562 143.258V126.641H41.9297V143.023C41.9297 145.664 43.1328 146.984 45.5391 146.984C47.8359 146.984 49.4141 146.188 50.2734 144.594V126.641H57.0703V152H50.6953L50.5078 149.422ZM69.3281 152H62.5312V126.641H69.3281V152ZM62.1328 120.078C62.1328 119.063 62.4687 118.227 63.1406 117.57C63.8281 116.914 64.7578 116.586 65.9297 116.586C67.0859 116.586 68.0078 116.914 68.6953 117.57C69.3828 118.227 69.7266 119.063 69.7266 120.078C69.7266 121.109 69.375 121.953 68.6719 122.609C67.9844 123.266 67.0703 123.594 65.9297 123.594C64.7891 123.594 63.8672 123.266 63.1641 122.609C62.4766 121.953 62.1328 121.109 62.1328 120.078ZM89.625 152C89.3125 151.391 89.0859 150.633 88.9453 149.727C87.3047 151.555 85.1719 152.469 82.5469 152.469C80.0625 152.469 78 151.75 76.3594 150.313C74.7344 148.875 73.9219 147.063 73.9219 144.875C73.9219 142.188 74.9141 140.125 76.8984 138.688C78.8984 137.25 81.7812 136.523 85.5469 136.508H88.6641V135.055C88.6641 133.883 88.3594 132.945 87.75 132.242C87.1562 131.539 86.2109 131.188 84.9141 131.188C83.7734 131.188 82.875 131.461 82.2187 132.008C81.5781 132.555 81.2578 133.305 81.2578 134.258H74.4844C74.4844 132.789 74.9375 131.43 75.8437 130.18C76.75 128.93 78.0312 127.953 79.6875 127.25C81.3437 126.531 83.2031 126.172 85.2656 126.172C88.3906 126.172 90.8672 126.961 92.6953 128.539C94.5391 130.102 95.4609 132.305 95.4609 135.148V146.141C95.4766 148.547 95.8125 150.367 96.4687 151.602V152H89.625ZM84.0234 147.289C85.0234 147.289 85.9453 147.07 86.7891 146.633C87.6328 146.18 88.2578 145.578 88.6641 144.828V140.469H86.1328C82.7422 140.469 80.9375 141.641 80.7187 143.984L80.6953 144.383C80.6953 145.227 80.9922 145.922 81.5859 146.469C82.1797 147.016 82.9922 147.289 84.0234 147.289ZM10.0781 195.977V208H3.04687V173.875H16.3594C18.9219 173.875 21.1719 174.344 23.1094 175.281C25.0625 176.219 26.5625 177.555 27.6094 179.289C28.6562 181.008 29.1797 182.969 29.1797 185.172C29.1797 188.516 28.0312 191.156 25.7344 193.094C23.4531 195.016 20.2891 195.977 16.2422 195.977H10.0781ZM10.0781 190.281H16.3594C18.2187 190.281 19.6328 189.844 20.6016 188.969C21.5859 188.094 22.0781 186.844 22.0781 185.219C22.0781 183.547 21.5859 182.195 20.6016 181.164C19.6172 180.133 18.2578 179.602 16.5234 179.57H10.0781V190.281ZM47.8359 188.992C46.9141 188.867 46.1016 188.805 45.3984 188.805C42.8359 188.805 41.1562 189.672 40.3594 191.406V208H33.5859V182.641H39.9844L40.1719 185.664C41.5312 183.336 43.4141 182.172 45.8203 182.172C46.5703 182.172 47.2734 182.273 47.9297 182.477L47.8359 188.992ZM65.1094 208C64.7969 207.391 64.5703 206.633 64.4297 205.727C62.7891 207.555 60.6562 208.469 58.0312 208.469C55.5469 208.469 53.4844 207.75 51.8437 206.313C50.2187 204.875 49.4062 203.063 49.4062 200.875C49.4062 198.188 50.3984 196.125 52.3828 194.688C54.3828 193.25 57.2656 192.523 61.0312 192.508H64.1484V191.055C64.1484 189.883 63.8437 188.945 63.2344 188.242C62.6406 187.539 61.6953 187.188 60.3984 187.188C59.2578 187.188 58.3594 187.461 57.7031 188.008C57.0625 188.555 56.7422 189.305 56.7422 190.258H49.9687C49.9687 188.789 50.4219 187.43 51.3281 186.18C52.2344 184.93 53.5156 183.953 55.1719 183.25C56.8281 182.531 58.6875 182.172 60.75 182.172C63.875 182.172 66.3516 182.961 68.1797 184.539C70.0234 186.102 70.9453 188.305 70.9453 191.148V202.141C70.9609 204.547 71.2969 206.367 71.9531 207.602V208H65.1094ZM59.5078 203.289C60.5078 203.289 61.4297 203.07 62.2734 202.633C63.1172 202.18 63.7422 201.578 64.1484 200.828V196.469H61.6172C58.2266 196.469 56.4219 197.641 56.2031 199.984L56.1797 200.383C56.1797 201.227 56.4766 201.922 57.0703 202.469C57.6641 203.016 58.4766 203.289 59.5078 203.289ZM62.0859 172H69.4687L62.9766 179.266H57.4687L62.0859 172ZM84.2578 176.406V182.641H88.5937V187.609H84.2578V200.266C84.2578 201.203 84.4375 201.875 84.7969 202.281C85.1562 202.688 85.8437 202.891 86.8594 202.891C87.6094 202.891 88.2734 202.836 88.8516 202.727V207.859C87.5234 208.266 86.1562 208.469 84.75 208.469C80 208.469 77.5781 206.07 77.4844 201.273V187.609H73.7812V182.641H77.4844V176.406H84.2578ZM99.5156 208H92.7187V182.641H99.5156V208ZM92.3203 176.078C92.3203 175.063 92.6562 174.227 93.3281 173.57C94.0156 172.914 94.9453 172.586 96.1172 172.586C97.2734 172.586 98.1953 172.914 98.8828 173.57C99.5703 174.227 99.9141 175.063 99.9141 176.078C99.9141 177.109 99.5625 177.953 98.8594 178.609C98.1719 179.266 97.2578 179.594 96.1172 179.594C94.9766 179.594 94.0547 179.266 93.3516 178.609C92.6641 177.953 92.3203 177.109 92.3203 176.078ZM115.664 203.008C116.914 203.008 117.93 202.664 118.711 201.977C119.492 201.289 119.898 200.375 119.93 199.234H126.281C126.266 200.953 125.797 202.531 124.875 203.969C123.953 205.391 122.687 206.5 121.078 207.297C119.484 208.078 117.719 208.469 115.781 208.469C112.156 208.469 109.297 207.32 107.203 205.023C105.109 202.711 104.062 199.523 104.062 195.461V195.016C104.062 191.109 105.102 187.992 107.18 185.664C109.258 183.336 112.109 182.172 115.734 182.172C118.906 182.172 121.445 183.078 123.352 184.891C125.273 186.688 126.25 189.086 126.281 192.086H119.93C119.898 190.773 119.492 189.711 118.711 188.898C117.93 188.07 116.898 187.656 115.617 187.656C114.039 187.656 112.844 188.234 112.031 189.391C111.234 190.531 110.836 192.391 110.836 194.969V195.672C110.836 198.281 111.234 200.156 112.031 201.297C112.828 202.438 114.039 203.008 115.664 203.008ZM129.094 195.086C129.094 192.57 129.578 190.328 130.547 188.359C131.516 186.391 132.906 184.867 134.719 183.789C136.547 182.711 138.664 182.172 141.07 182.172C144.492 182.172 147.281 183.219 149.437 185.313C151.609 187.406 152.82 190.25 153.07 193.844L153.117 195.578C153.117 199.469 152.031 202.594 149.859 204.953C147.687 207.297 144.773 208.469 141.117 208.469C137.461 208.469 134.539 207.297 132.352 204.953C130.18 202.609 129.094 199.422 129.094 195.391V195.086ZM135.867 195.578C135.867 197.984 136.32 199.828 137.227 201.109C138.133 202.375 139.43 203.008 141.117 203.008C142.758 203.008 144.039 202.383 144.961 201.133C145.883 199.867 146.344 197.852 146.344 195.086C146.344 192.727 145.883 190.898 144.961 189.602C144.039 188.305 142.742 187.656 141.07 187.656C139.414 187.656 138.133 188.305 137.227 189.602C136.32 190.883 135.867 192.875 135.867 195.578Z" fill="white"/>
<defs>
<linearGradient id="paint0_linear" x1="12368.6" y1="47536.6" x2="12368.6" y2="22833.4" gradientUnits="userSpaceOnUse">
<stop stop-color="#808080" stop-opacity="0.25"/>
<stop offset="0.54" stop-color="#808080" stop-opacity="0.12"/>
<stop offset="1" stop-color="#808080" stop-opacity="0.1"/>
</linearGradient>
<linearGradient id="paint1_linear" x1="635.218" y1="1737.65" x2="635.218" y2="1682.41" gradientUnits="userSpaceOnUse">
<stop stop-color="#808080" stop-opacity="0.25"/>
<stop offset="0.54" stop-color="#808080" stop-opacity="0.12"/>
<stop offset="1" stop-color="#808080" stop-opacity="0.1"/>
</linearGradient>
<linearGradient id="paint2_linear" x1="2094.55" y1="11018" x2="2094.55" y2="8615.45" gradientUnits="userSpaceOnUse">
<stop stop-color="#808080" stop-opacity="0.25"/>
<stop offset="0.54" stop-color="#808080" stop-opacity="0.12"/>
<stop offset="1" stop-color="#808080" stop-opacity="0.1"/>
</linearGradient>
<linearGradient id="paint3_linear" x1="1391.39" y1="6447.79" x2="1391.39" y2="5789.69" gradientUnits="userSpaceOnUse">
<stop stop-color="#808080" stop-opacity="0.25"/>
<stop offset="0.54" stop-color="#808080" stop-opacity="0.12"/>
<stop offset="1" stop-color="#808080" stop-opacity="0.1"/>
</linearGradient>
<linearGradient id="paint4_linear" x1="-752.061" y1="1538.45" x2="-737.226" y2="1529.88" gradientUnits="userSpaceOnUse">
<stop stop-color="#808080" stop-opacity="0.25"/>
<stop offset="0.54" stop-color="#808080" stop-opacity="0.12"/>
<stop offset="1" stop-color="#808080" stop-opacity="0.1"/>
</linearGradient>
<linearGradient id="paint5_linear" x1="496.263" y1="1350.36" x2="496.263" y2="1333.23" gradientUnits="userSpaceOnUse">
<stop stop-color="#808080" stop-opacity="0.25"/>
<stop offset="0.54" stop-color="#808080" stop-opacity="0.12"/>
<stop offset="1" stop-color="#808080" stop-opacity="0.1"/>
</linearGradient>
<linearGradient id="paint6_linear" x1="-131.46" y1="1570.15" x2="-122.885" y2="1555.3" gradientUnits="userSpaceOnUse">
<stop stop-color="#808080" stop-opacity="0.25"/>
<stop offset="0.54" stop-color="#808080" stop-opacity="0.12"/>
<stop offset="1" stop-color="#808080" stop-opacity="0.1"/>
</linearGradient>
<linearGradient id="paint7_linear" x1="-1278.92" y1="1172.22" x2="-1261.77" y2="1172.22" gradientUnits="userSpaceOnUse">
<stop stop-color="#808080" stop-opacity="0.25"/>
<stop offset="0.54" stop-color="#808080" stop-opacity="0.12"/>
<stop offset="1" stop-color="#808080" stop-opacity="0.1"/>
</linearGradient>
<linearGradient id="paint8_linear" x1="-1156.78" y1="1154.58" x2="-1139.63" y2="1154.58" gradientUnits="userSpaceOnUse">
<stop stop-color="#808080" stop-opacity="0.25"/>
<stop offset="0.54" stop-color="#808080" stop-opacity="0.12"/>
<stop offset="1" stop-color="#808080" stop-opacity="0.1"/>
</linearGradient>
<linearGradient id="paint9_linear" x1="-1041.43" y1="1198.5" x2="-1024.3" y2="1198.5" gradientUnits="userSpaceOnUse">
<stop stop-color="#808080" stop-opacity="0.25"/>
<stop offset="0.54" stop-color="#808080" stop-opacity="0.12"/>
<stop offset="1" stop-color="#808080" stop-opacity="0.1"/>
</linearGradient>
<linearGradient id="paint10_linear" x1="-963.203" y1="1296.19" x2="-946.053" y2="1296.19" gradientUnits="userSpaceOnUse">
<stop stop-color="#808080" stop-opacity="0.25"/>
<stop offset="0.54" stop-color="#808080" stop-opacity="0.12"/>
<stop offset="1" stop-color="#808080" stop-opacity="0.1"/>
</linearGradient>
<linearGradient id="paint11_linear" x1="-992.41" y1="1540.02" x2="-975.26" y2="1540.02" gradientUnits="userSpaceOnUse">
<stop stop-color="#808080" stop-opacity="0.25"/>
<stop offset="0.54" stop-color="#808080" stop-opacity="0.12"/>
<stop offset="1" stop-color="#808080" stop-opacity="0.1"/>
</linearGradient>
<linearGradient id="paint12_linear" x1="-1092.04" y1="1615.81" x2="-1074.91" y2="1615.81" gradientUnits="userSpaceOnUse">
<stop stop-color="#808080" stop-opacity="0.25"/>
<stop offset="0.54" stop-color="#808080" stop-opacity="0.12"/>
<stop offset="1" stop-color="#808080" stop-opacity="0.1"/>
</linearGradient>
<linearGradient id="paint13_linear" x1="-1209.32" y1="1629.55" x2="-1192.17" y2="1629.55" gradientUnits="userSpaceOnUse">
<stop stop-color="#808080" stop-opacity="0.25"/>
<stop offset="0.54" stop-color="#808080" stop-opacity="0.12"/>
<stop offset="1" stop-color="#808080" stop-opacity="0.1"/>
</linearGradient>
<linearGradient id="paint14_linear" x1="-1320.73" y1="1590.52" x2="-1303.6" y2="1590.52" gradientUnits="userSpaceOnUse">
<stop stop-color="#808080" stop-opacity="0.25"/>
<stop offset="0.54" stop-color="#808080" stop-opacity="0.12"/>
<stop offset="1" stop-color="#808080" stop-opacity="0.1"/>
</linearGradient>
<clipPath id="clip0">
<rect width="282.78" height="294.829" transform="matrix(-1 0 0 1 360.78 0.0859375)" fill="white"/>
</clipPath>
</defs>
</svg>
