<svg width="275" height="147" viewBox="0 0 275 147" fill="none" xmlns="http://www.w3.org/2000/svg">
<g clip-path="url(#clip0)">
<path opacity="0.1" d="M192.459 42.5281C179.83 42.2022 167.802 39.1737 156.316 35.8602C144.83 32.5468 133.453 28.8684 121.126 27.1122C113.198 25.9823 104.13 25.8223 97.743 28.9816C91.5941 32.018 89.6076 37.2594 88.5402 42.1378C87.7363 45.8006 87.264 49.6546 89.4652 53.0832C90.9951 55.4638 93.7075 57.464 95.5847 59.7452C102.116 67.6795 97.499 77.4618 90.4233 85.2088C87.106 88.8423 83.252 92.3079 80.6898 96.1775C78.1276 100.047 76.9432 104.477 79.1853 108.424C81.406 112.327 86.7001 115.272 92.4352 117.338C104.083 121.536 117.803 122.736 131.192 123.417C160.819 124.923 190.603 124.27 220.309 123.612C231.303 123.37 242.344 123.126 253.159 121.856C259.165 121.155 265.365 120.041 269.726 117.354C275.26 113.943 276.632 108.167 272.923 103.889C266.702 96.7142 249.506 94.9306 245.152 87.2304C242.76 82.992 245.217 78.2716 248.696 74.3396C256.158 65.9077 268.665 58.51 269.322 48.8701C269.775 42.251 263.763 35.6202 254.466 32.4883C244.723 29.206 231.21 29.6178 224.025 35.0524C216.619 40.6548 203.611 42.8091 192.459 42.5281Z" fill="#AC1637"/>
<g opacity="0.8">
<path opacity="0.8" d="M261.19 34.8869C261.19 34.8869 258.989 33.9931 251.987 37.2051C244.986 40.4171 244.111 40.0092 242.298 39.5175C240.486 39.0257 239.475 38.9106 237.531 36.2294C237.531 36.2294 236.165 28.8005 234.834 27.6433C233.504 26.4861 227.872 28.3009 227.872 28.3009C227.872 28.3009 221.116 29.8542 219.821 20.8213C219.821 20.8213 220.734 14.0148 219.489 11.9249C219.489 11.9249 222.002 13.0079 226.147 11.2595C230.292 9.51105 233.609 13.1445 233.609 13.1445C233.609 13.1445 234.655 15.8511 234.546 17.4629C234.436 19.0748 235.098 19.6836 237.082 18.9031C237.082 18.9031 238.058 17.5215 236.679 15.2384C235.299 12.9552 234.321 11.2536 234.706 9.47983C235.09 7.70602 236.193 5.24923 239.738 4.01596C243.284 2.78268 248.102 2.55242 250.414 1.60014C252.727 0.647868 253.285 0.00976562 253.285 0.00976562C253.285 0.00976562 251.862 1.43623 255.215 7.47771C258.567 13.5192 256.43 16.1438 256.43 16.1438C256.43 16.1438 254.647 20.3939 246.775 20.0466C246.775 20.0466 239.19 20.3237 243.325 23.5396C243.325 23.5396 245.973 23.001 249.934 21.7423C253.896 20.4837 256.75 25.6783 257.461 29.2922C258.171 32.9062 261.19 34.8869 261.19 34.8869Z" fill="#AC1637"/>
<path opacity="0.8" d="M250.996 4.58397L251.037 4.57227C251.342 5.72553 247.952 10.3581 245.054 14.0423L245.021 14.017C249.107 8.82043 251.238 5.4699 250.996 4.58397Z" fill="#444053"/>
<path opacity="0.8" d="M245.08 13.9414L245.097 13.9882C242.783 16.9309 239.871 20.4434 237.541 23.0446C237.319 23.2924 237.098 23.552 236.888 23.8252L236.819 23.7725C237.034 23.5051 237.254 23.2437 237.477 22.9919C239.807 20.3868 242.767 16.8821 245.08 13.9414Z" fill="#444053"/>
<path opacity="0.8" d="M236.876 23.6943L236.923 23.7724C232.683 29.0665 232.402 37.2857 232.392 37.3579L231.498 36.3354C231.508 36.2534 232.606 29.0236 236.876 23.6943Z" fill="#444053"/>
<path opacity="0.8" d="M256.274 32.0168C256.274 32.0168 251.275 29.4175 247.378 30.3503C243.481 31.283 234.71 27.0524 234.71 27.0524C234.71 27.0524 230.984 25.5401 230.235 23.8151C230.235 23.8151 227.681 21.1124 227.534 19.7172C227.388 18.3219 224.894 14.8016 223.278 14.6748" stroke="#444053" stroke-width="0.195138" stroke-miterlimit="10"/>
<path opacity="0.8" d="M255.55 34.5182C255.55 34.5182 253.033 32.8225 253.326 30.8438" stroke="#444053" stroke-width="0.195138" stroke-miterlimit="10"/>
<path opacity="0.8" d="M251.688 36.7101C251.688 36.7101 248.086 35.4026 247.725 30.2705" stroke="#444053" stroke-width="0.195138" stroke-miterlimit="10"/>
<path opacity="0.8" d="M245.878 38.0369C245.878 38.0369 242.435 35.1821 243.579 30.1924" stroke="#444053" stroke-width="0.195138" stroke-miterlimit="10"/>
<path opacity="0.8" d="M238.893 36.6414C238.893 36.6414 236.603 31.8351 238.642 28.709" stroke="#444053" stroke-width="0.195138" stroke-miterlimit="10"/>
<path opacity="0.8" d="M256.333 28.8477C256.333 28.8477 253.728 29.675 254.288 31.0449" stroke="#444053" stroke-width="0.195138" stroke-miterlimit="10"/>
<path opacity="0.8" d="M253.189 24.1221C253.189 24.1221 249.704 25.2266 249.622 30.1577" stroke="#444053" stroke-width="0.195138" stroke-miterlimit="10"/>
<path opacity="0.8" d="M248.33 22.9844C248.33 22.9844 245.159 26.8988 245.383 30.4562" stroke="#444053" stroke-width="0.195138" stroke-miterlimit="10"/>
<path opacity="0.8" d="M242.777 24.5195C242.777 24.5195 239.626 27.5305 240.028 29.2029" stroke="#444053" stroke-width="0.195138" stroke-miterlimit="10"/>
<path opacity="0.8" d="M240.876 23.4566C240.876 23.4566 237.922 23.9855 237.51 23.0156" stroke="#444053" stroke-width="0.195138" stroke-miterlimit="10"/>
<path opacity="0.8" d="M237.038 19.8896C237.038 19.8896 238.53 21.8664 238.915 21.4234" stroke="#444053" stroke-width="0.195138" stroke-miterlimit="10"/>
<path opacity="0.8" d="M251.834 18.6381C251.834 18.6381 244.387 19.1787 242.703 16.9346" stroke="#444053" stroke-width="0.195138" stroke-miterlimit="10"/>
<path opacity="0.8" d="M235.471 9.92871C235.471 9.92871 238.966 17.4279 241.503 18.3841" stroke="#444053" stroke-width="0.195138" stroke-miterlimit="10"/>
<path opacity="0.8" d="M239.139 6.35547C239.139 6.35547 241.286 13.2536 243.943 15.4079" stroke="#444053" stroke-width="0.195138" stroke-miterlimit="10"/>
<path opacity="0.8" d="M254.967 12.9463C254.967 12.9463 249.308 15.3757 245.905 12.917" stroke="#444053" stroke-width="0.146354" stroke-miterlimit="10"/>
<path opacity="0.8" d="M244.182 4.88379C244.182 4.88379 245.476 9.95739 247.218 11.1809" stroke="#444053" stroke-width="0.146354" stroke-miterlimit="10"/>
<path opacity="0.8" d="M254.112 7.25977C254.112 7.25977 250.93 8.46377 249.741 7.54077" stroke="#444053" stroke-width="0.146354" stroke-miterlimit="10"/>
<path opacity="0.8" d="M234.312 21.5459C234.312 21.5459 234.312 25.9658 233.108 26.28" stroke="#444053" stroke-width="0.195138" stroke-miterlimit="10"/>
<path opacity="0.8" d="M224.473 27.2736C224.473 27.2736 229.254 27.6833 231.457 25.2168" stroke="#444053" stroke-width="0.195138" stroke-miterlimit="10"/>
<path opacity="0.8" d="M233.079 16.3232C233.079 16.3232 231.923 20.8114 228.733 22.0135" stroke="#444053" stroke-width="0.195138" stroke-miterlimit="10"/>
<path opacity="0.8" d="M221.606 22.5511C221.606 22.5511 224.99 23.7219 227.899 20.7324" stroke="#444053" stroke-width="0.195138" stroke-miterlimit="10"/>
<path opacity="0.8" d="M229.318 12.4697C229.318 12.4697 228.998 16.2769 226.928 18.0585" stroke="#444053" stroke-width="0.195138" stroke-miterlimit="10"/>
<path opacity="0.8" d="M221.735 16.7492C221.735 16.7492 224.543 16.7668 225.201 15.8535" stroke="#444053" stroke-width="0.195138" stroke-miterlimit="10"/>
</g>
<path d="M186.77 54.747C189.427 54.747 192.024 55.5349 194.234 57.0111C196.443 58.4873 198.165 60.5854 199.181 63.0401C200.198 65.4948 200.464 68.1959 199.945 70.8018C199.427 73.4077 198.147 75.8012 196.268 77.6798C194.389 79.5585 191.996 80.8377 189.39 81.3558C186.784 81.8739 184.083 81.6076 181.628 80.5906C179.174 79.5735 177.076 77.8515 175.6 75.6421C174.124 73.4327 173.337 70.8354 173.337 68.1784C173.337 64.616 174.753 61.1997 177.272 58.6809C179.791 56.1621 183.208 54.747 186.77 54.747ZM186.77 51.4297C183.457 51.4297 180.219 52.4121 177.464 54.2528C174.709 56.0935 172.562 58.7097 171.294 61.7706C170.027 64.8315 169.695 68.1996 170.342 71.449C170.988 74.6983 172.584 77.683 174.926 80.0256C177.269 82.3681 180.254 83.9633 183.504 84.6094C186.753 85.2555 190.121 84.9235 193.182 83.6554C196.243 82.3873 198.858 80.24 200.699 77.4851C202.539 74.7302 203.521 71.4915 203.521 68.1784C203.516 63.7376 201.749 59.4802 198.609 56.3403C195.469 53.2004 191.211 51.4343 186.77 51.4297Z" fill="#3F3D56"/>
<path d="M188.216 47.5117H184.29V51.6447H188.216V47.5117Z" fill="#3F3D56"/>
<path d="M198.585 51.2096L195.219 49.1875L193.091 52.7302L196.456 54.7523L198.585 51.2096Z" fill="#3F3D56"/>
<path d="M205.486 59.389L203.583 55.9551L199.968 57.9588L201.872 61.3927L205.486 59.389Z" fill="#3F3D56"/>
<path d="M203.531 80.2876L205.612 76.958L202.107 74.7678L200.026 78.0974L203.531 80.2876Z" fill="#3F3D56"/>
<path d="M171.67 61.3909L173.574 57.957L169.959 55.9533L168.055 59.3872L171.67 61.3909Z" fill="#3F3D56"/>
<path d="M173.516 78.0972L171.435 74.7676L167.93 76.9578L170.011 80.2873L173.516 78.0972Z" fill="#3F3D56"/>
<path d="M177.083 54.7516L180.449 52.7295L178.32 49.1868L174.955 51.2089L177.083 54.7516Z" fill="#3F3D56"/>
<path d="M188.216 84.7129H184.29V88.8459H188.216V84.7129Z" fill="#3F3D56"/>
<path d="M196.456 81.6048L193.091 83.627L195.219 87.1697L198.585 85.1475L196.456 81.6048Z" fill="#3F3D56"/>
<path d="M174.955 85.1478L178.321 87.1699L180.449 83.6272L177.084 81.6051L174.955 85.1478Z" fill="#3F3D56"/>
<path d="M170.444 66.5244H165.691V70.0369H170.444V66.5244Z" fill="#3F3D56"/>
<path d="M203.096 70.0371H207.849V66.5246H203.096V70.0371Z" fill="#3F3D56"/>
<path d="M217.977 30.5664C220.634 30.5664 223.231 31.3543 225.44 32.8304C227.649 34.3066 229.371 36.4047 230.388 38.8594C231.404 41.3142 231.67 44.0153 231.152 46.6211C230.633 49.227 229.354 51.6206 227.475 53.4992C225.596 55.3778 223.202 56.657 220.596 57.1752C217.99 57.6933 215.289 57.4269 212.835 56.4099C210.38 55.3929 208.282 53.6708 206.806 51.4614C205.331 49.2521 204.543 46.6547 204.543 43.9977C204.544 40.4353 205.959 37.019 208.479 34.5002C210.998 31.9814 214.414 30.5664 217.977 30.5664V30.5664ZM217.977 27.249C214.664 27.249 211.425 28.2315 208.67 30.0722C205.916 31.9128 203.769 34.529 202.501 37.5899C201.233 40.6508 200.902 44.019 201.548 47.2683C202.195 50.5177 203.79 53.5024 206.133 55.8449C208.476 58.1875 211.461 59.7827 214.71 60.4288C217.96 61.0749 221.328 60.7429 224.388 59.4748C227.449 58.2066 230.065 56.0593 231.905 53.3045C233.746 50.5496 234.728 47.3108 234.727 43.9977C234.722 39.557 232.956 35.2996 229.815 32.1596C226.675 29.0197 222.418 27.2537 217.977 27.249V27.249Z" fill="#3F3D56"/>
<path d="M219.423 23.334H215.497V27.467H219.423V23.334Z" fill="#3F3D56"/>
<path d="M229.792 27.028L226.427 25.0059L224.298 28.5486L227.663 30.5707L229.792 27.028Z" fill="#3F3D56"/>
<path d="M236.693 35.2093L234.79 31.7754L231.175 33.7791L233.079 37.213L236.693 35.2093Z" fill="#3F3D56"/>
<path d="M234.737 56.1089L236.818 52.7793L233.313 50.5891L231.232 53.9187L234.737 56.1089Z" fill="#3F3D56"/>
<path d="M202.876 37.2142L204.779 33.7803L201.164 31.7765L199.261 35.2105L202.876 37.2142Z" fill="#3F3D56"/>
<path d="M204.721 53.9185L202.641 50.5889L199.136 52.779L201.216 56.1086L204.721 53.9185Z" fill="#3F3D56"/>
<path d="M208.29 30.5719L211.655 28.5498L209.527 25.0071L206.161 27.0292L208.29 30.5719Z" fill="#3F3D56"/>
<path d="M219.423 60.5322H215.497V64.6653H219.423V60.5322Z" fill="#3F3D56"/>
<path d="M227.663 57.4251L224.297 59.4473L226.426 62.99L229.791 60.9678L227.663 57.4251Z" fill="#3F3D56"/>
<path d="M206.161 60.9671L209.526 62.9893L211.655 59.4466L208.29 57.4244L206.161 60.9671Z" fill="#3F3D56"/>
<path d="M201.65 42.3457H196.896V45.8582H201.65V42.3457Z" fill="#3F3D56"/>
<path d="M234.304 45.8584H239.058V42.3459H234.304V45.8584Z" fill="#3F3D56"/>
<path d="M155.555 29.5332C155.714 29.5332 155.872 29.5332 156.03 29.5332C159.551 29.6533 162.883 31.1517 165.31 33.7056C167.737 36.2596 169.063 39.6646 169.003 43.187C168.943 46.7095 167.502 50.0675 164.99 52.5374C162.478 55.0074 159.096 56.3917 155.573 56.392C155.415 56.392 155.257 56.392 155.097 56.392C151.576 56.2719 148.243 54.7734 145.816 52.2192C143.389 49.6651 142.063 46.2598 142.123 42.7372C142.184 39.2146 143.625 35.8565 146.138 33.3867C148.65 30.9169 152.032 29.533 155.555 29.5332V29.5332ZM155.555 26.2158C151.162 26.2153 146.945 27.9407 143.812 31.0203C140.678 34.0998 138.88 38.287 138.805 42.6796C138.73 47.0722 140.383 51.3185 143.409 54.5036C146.435 57.6887 150.591 59.5575 154.982 59.7074C155.177 59.7074 155.372 59.7172 155.567 59.7172C159.96 59.7172 164.177 57.9914 167.31 54.9117C170.443 51.832 172.241 47.6448 172.316 43.2524C172.391 38.86 170.737 34.6139 167.711 31.4291C164.685 28.2442 160.529 26.3755 156.139 26.2256C155.944 26.2256 155.749 26.2158 155.554 26.2158H155.555Z" fill="#3F3D56"/>
<path d="M157.724 22.3649L153.8 22.2285L153.657 26.3591L157.581 26.4954L157.724 22.3649Z" fill="#3F3D56"/>
<path d="M167.956 26.4181L164.663 24.2803L162.413 27.7469L165.706 29.8847L167.956 26.4181Z" fill="#3F3D56"/>
<path d="M174.571 34.8329L172.788 31.335L169.106 33.212L170.889 36.7099L174.571 34.8329Z" fill="#3F3D56"/>
<path d="M171.894 55.646L174.089 52.3906L170.662 50.0801L168.467 53.3354L171.894 55.646Z" fill="#3F3D56"/>
<path d="M140.706 35.6577L142.727 32.292L139.184 30.1639L137.162 33.5297L140.706 35.6577Z" fill="#3F3D56"/>
<path d="M141.696 52.741L139.733 49.3252L136.137 51.3917L138.1 54.8075L141.696 52.741Z" fill="#3F3D56"/>
<path d="M146.351 29.2078L149.785 27.3037L147.78 23.6892L144.347 25.5933L146.351 29.2078Z" fill="#3F3D56"/>
<path d="M156.434 59.5397L152.51 59.4033L152.367 63.5339L156.291 63.6702L156.434 59.5397Z" fill="#3F3D56"/>
<path d="M164.779 56.7239L161.345 58.6279L163.35 62.2424L166.783 60.3384L164.779 56.7239Z" fill="#3F3D56"/>
<path d="M143.171 59.5136L146.464 61.6514L148.714 58.1847L145.421 56.0469L143.171 59.5136Z" fill="#3F3D56"/>
<path d="M139.305 40.7481L134.554 40.583L134.432 44.0934L139.183 44.2584L139.305 40.7481Z" fill="#3F3D56"/>
<path d="M171.818 45.3877L176.568 45.5527L176.69 42.0424L171.94 41.8773L171.818 45.3877Z" fill="#3F3D56"/>
</g>
<path d="M100.644 6.46875C99.8362 6.51618 99.0568 6.79659 98.3934 7.27853C97.7301 7.76047 97.2091 8.42489 96.8888 9.19729C95.9497 11.556 97.1588 14.3268 98.9739 16.0468C100.789 17.7668 103.121 18.75 105.239 20.0423C108.085 21.778 110.642 24.1875 112.065 27.2805C113.489 30.3735 113.641 34.2048 111.967 37.1597C110.414 39.9023 107.589 41.5437 104.895 43.0576" stroke="#3F3D56" stroke-width="0.18958" stroke-miterlimit="10"/>
<path d="M103.037 8.34887C104.869 8.34887 106.355 7.5992 106.355 6.67444C106.355 5.74967 104.869 5 103.037 5C101.205 5 99.7192 5.74967 99.7192 6.67444C99.7192 7.5992 101.205 8.34887 103.037 8.34887Z" fill="#57B894"/>
<path d="M105.691 19.3801C107.523 19.3801 109.009 18.6305 109.009 17.7057C109.009 16.7809 107.523 16.0312 105.691 16.0312C103.859 16.0312 102.374 16.7809 102.374 17.7057C102.374 18.6305 103.859 19.3801 105.691 19.3801Z" fill="#57B894"/>
<path d="M99.6243 21.1536C101.457 21.1536 102.942 20.4039 102.942 19.4791C102.942 18.5544 101.457 17.8047 99.6243 17.8047C97.792 17.8047 96.3066 18.5544 96.3066 19.4791C96.3066 20.4039 97.792 21.1536 99.6243 21.1536Z" fill="#57B894"/>
<path d="M109.104 30.4123C110.936 30.4123 112.421 29.6627 112.421 28.7379C112.421 27.8131 110.936 27.0635 109.104 27.0635C107.271 27.0635 105.786 27.8131 105.786 28.7379C105.786 29.6627 107.271 30.4123 109.104 30.4123Z" fill="#57B894"/>
<path d="M115.739 30.4123C117.571 30.4123 119.056 29.6627 119.056 28.7379C119.056 27.8131 117.571 27.0635 115.739 27.0635C113.906 27.0635 112.421 27.8131 112.421 28.7379C112.421 29.6627 113.906 30.4123 115.739 30.4123Z" fill="#57B894"/>
<path d="M118.177 61.389C117.433 61.0583 116.614 60.9496 115.814 61.075C115.014 61.2005 114.263 61.5551 113.646 62.0991C111.795 63.7785 111.694 66.819 112.584 69.198C113.475 71.577 115.143 73.5344 116.488 75.6704C118.295 78.5393 119.555 81.8785 119.508 85.3068C119.46 88.735 117.957 92.2372 115.194 94.1114C112.63 95.851 109.398 96.0172 106.337 96.1294" stroke="#3F3D56" stroke-width="0.18958" stroke-miterlimit="10"/>
<path d="M123.204 64.2095C123.6 63.381 122.59 62.0236 120.948 61.1775C119.307 60.3314 117.656 60.3171 117.26 61.1455C116.865 61.9739 117.875 63.3314 119.516 64.1775C121.157 65.0236 122.809 65.0379 123.204 64.2095Z" fill="#57B894"/>
<path d="M120.864 75.3179C121.26 74.4894 120.25 73.132 118.608 72.2859C116.967 71.4398 115.316 71.4255 114.92 72.2539C114.525 73.0823 115.535 74.4398 117.176 75.2859C118.818 76.132 120.469 76.1463 120.864 75.3179Z" fill="#57B894"/>
<path d="M114.671 74.104C115.066 73.2756 114.056 71.9181 112.415 71.072C110.774 70.2259 109.122 70.2116 108.727 71.04C108.331 71.8685 109.341 73.2259 110.983 74.072C112.624 74.9181 114.275 74.9325 114.671 74.104Z" fill="#57B894"/>
<path d="M119.203 86.7759C119.599 85.9474 118.589 84.59 116.947 83.7439C115.306 82.8978 113.655 82.8835 113.259 83.7119C112.864 84.5403 113.874 85.8978 115.515 86.7439C117.156 87.59 118.808 87.6043 119.203 86.7759Z" fill="#57B894"/>
<path d="M125.147 89.8394C125.543 89.0109 124.533 87.6535 122.891 86.8074C121.25 85.9613 119.598 85.947 119.203 86.7754C118.807 87.6038 119.817 88.9613 121.459 89.8074C123.1 90.6535 124.752 90.6678 125.147 89.8394Z" fill="#57B894"/>
<path d="M32.5137 77.1806C33.0877 76.5877 33.8094 76.1727 34.5978 75.9821C35.3861 75.7914 36.21 75.8328 36.977 76.1015C39.2931 76.9521 40.4684 79.7385 40.4865 82.2911C40.5047 84.8436 39.6501 87.3029 39.1592 89.8041C38.5 93.1636 38.5159 96.7503 39.7784 99.918C41.041 103.086 43.6824 105.763 46.9162 106.445C49.9177 107.077 52.9805 105.991 55.8647 104.921" stroke="#3F3D56" stroke-width="0.18958" stroke-miterlimit="10"/>
<path d="M32.2602 80.2853C33.4848 78.8691 33.9409 77.2199 33.2789 76.6019C32.6169 75.9838 31.0875 76.6308 29.8629 78.047C28.6383 79.4633 28.1822 81.1124 28.8442 81.7305C29.5062 82.3485 31.0356 81.7015 32.2602 80.2853Z" fill="#57B894"/>
<path d="M38.3832 89.7101C39.6079 88.2939 40.064 86.6447 39.402 86.0267C38.74 85.4086 37.2106 86.0556 35.9859 87.4718C34.7613 88.8881 34.3052 90.5372 34.9672 91.1552C35.6292 91.7733 37.1586 91.1263 38.3832 89.7101Z" fill="#57B894"/>
<path d="M43.7075 86.2062C44.9321 84.79 45.3882 83.1409 44.7262 82.5228C44.0642 81.9047 42.5348 82.5517 41.3102 83.968C40.0855 85.3842 39.6294 87.0333 40.2914 87.6513C40.9534 88.2694 42.4828 87.6224 43.7075 86.2062Z" fill="#57B894"/>
<path d="M43.9994 99.7208C45.2241 98.3046 45.6802 96.6555 45.0182 96.0374C44.3562 95.4194 42.8268 96.0664 41.6021 97.4826C40.3775 98.8988 39.9214 100.548 40.5834 101.166C41.2454 101.784 42.7748 101.137 43.9994 99.7208Z" fill="#57B894"/>
<path d="M39.5649 104.849C40.7895 103.433 41.2456 101.783 40.5836 101.165C39.9216 100.547 38.3922 101.194 37.1676 102.61C35.9429 104.027 35.4868 105.676 36.1488 106.294C36.8108 106.912 38.3402 106.265 39.5649 104.849Z" fill="#57B894"/>
<path d="M108.815 54.4373L108.294 58.4106L105.071 82.9283L99.7928 123.079L98.4714 133.132C98.3708 133.899 98.0059 134.603 97.4443 135.112C96.8828 135.621 96.1626 135.902 95.4173 135.902H60.2217C59.4775 135.902 58.7584 135.622 58.1971 135.115C57.6358 134.607 57.2701 133.906 57.1676 133.14L55.8234 123.079L50.4564 82.9283L47.1767 58.3929L46.6496 54.4451C46.5888 53.9916 46.6222 53.5299 46.7477 53.0909C46.8732 52.652 47.0879 52.2462 47.3772 51.9008C47.6664 51.5554 48.0236 51.2785 48.4247 51.0887C48.8257 50.8989 49.2612 50.8008 49.7019 50.8008H105.761C106.201 50.801 106.636 50.899 107.036 51.0883C107.437 51.2776 107.793 51.5537 108.083 51.8982C108.372 52.2426 108.587 52.6474 108.713 53.0854C108.84 53.5233 108.874 53.9843 108.815 54.4373Z" fill="#AC1637"/>
<path d="M102.229 40.1631H53.4161C51.7136 40.1631 50.3335 41.5972 50.3335 43.3662V47.5976C50.3335 49.3666 51.7136 50.8007 53.4161 50.8007H102.229C103.932 50.8007 105.312 49.3666 105.312 47.5976V43.3662C105.312 41.5972 103.932 40.1631 102.229 40.1631Z" fill="#2F2E41"/>
<path opacity="0.1" d="M105.312 45.1904V47.5977C105.312 48.4472 104.987 49.2619 104.409 49.8626C103.831 50.4633 103.047 50.8008 102.229 50.8008H53.4161C52.5985 50.8008 51.8145 50.4633 51.2364 49.8626C50.6583 49.2619 50.3335 48.4472 50.3335 47.5977V45.1963C68.6183 47.0067 87.0274 47.0047 105.312 45.1904Z" fill="black"/>
<path opacity="0.1" d="M108.64 52.8692H108.641C108.64 52.8668 108.639 52.8645 108.638 52.8621C108.557 52.6416 108.452 52.4311 108.327 52.2345L108.326 52.2339C108.289 52.1759 108.25 52.1198 108.209 52.0644C108.196 52.0459 108.182 52.0278 108.168 52.0096C108.05 51.8555 107.918 51.7131 107.775 51.584C107.743 51.5551 107.711 51.5266 107.678 51.4991C107.64 51.4682 107.603 51.438 107.564 51.4089C107.516 51.3725 107.466 51.3383 107.416 51.3047C107.376 51.2784 107.337 51.2525 107.296 51.2279C107.232 51.19 107.168 51.1542 107.102 51.1208C107.071 51.1049 107.039 51.0902 107.007 51.0754C106.944 51.0464 106.879 51.0195 106.814 50.9949C106.788 50.985 106.762 50.9741 106.735 50.9649C106.645 50.9336 106.553 50.9066 106.459 50.8839C106.436 50.8784 106.412 50.8745 106.389 50.8695C106.312 50.8529 106.234 50.8394 106.155 50.829C106.127 50.8252 106.098 50.8213 106.069 50.8184C105.968 50.808 105.866 50.8008 105.762 50.8008L105.761 50.8008H49.7026C49.2625 50.8023 48.8277 50.9015 48.4275 51.0917C48.0272 51.2819 47.6706 51.5587 47.3817 51.9037C47.0927 52.2486 46.8779 52.6537 46.7518 53.0919C46.6256 53.53 46.591 53.9911 46.6501 54.4443L46.7392 55.1104L47.1774 58.3929L47.1779 58.3929L50.4574 82.9283H50.4571L54.7622 115.135L57.1687 133.139C57.2711 133.905 57.6366 134.606 58.1977 135.114C58.7588 135.622 59.4778 135.902 60.2218 135.902H61.8921C61.8094 135.678 61.7513 135.445 61.7187 135.208L60.0975 123.079H99.7935L105.071 82.9283H54.7308L51.5039 58.7856C70.4084 60.3787 89.4107 60.2532 108.294 58.4106L108.816 54.4373C108.885 53.9076 108.825 53.3683 108.64 52.8692Z" fill="black"/>
<path d="M113.225 56.12C89.6934 58.789 65.952 58.789 42.4203 56.12C41.6028 56.12 40.8188 55.7826 40.2407 55.1819C39.6626 54.5812 39.3379 53.7666 39.3379 52.9171V48.6853C39.3379 47.8359 39.6626 47.0212 40.2407 46.4205C40.8188 45.8199 41.6028 45.4824 42.4203 45.4824C65.9334 48.4864 89.712 48.4864 113.225 45.4824C114.043 45.4824 114.827 45.8199 115.405 46.4205C115.983 47.0212 116.307 47.8359 116.307 48.6853V52.9171C116.307 53.7666 115.983 54.5812 115.405 55.1819C114.827 55.7826 114.043 56.12 113.225 56.12Z" fill="#2F2E41"/>
<path d="M101.242 121.619H53.8502C53.4247 121.619 53.0132 121.462 52.6897 121.175C52.3661 120.887 52.1517 120.49 52.085 120.053L46.965 86.536C46.9245 86.2708 46.9398 85.9997 47.0099 85.7412C47.0799 85.4828 47.2031 85.2432 47.3709 85.039C47.5387 84.8348 47.7471 84.6708 47.9818 84.5584C48.2164 84.4459 48.4718 84.3877 48.7302 84.3877H106.704C106.964 84.3877 107.221 84.4466 107.456 84.5604C107.692 84.6741 107.901 84.8399 108.069 85.0463C108.237 85.2526 108.359 85.4945 108.428 85.755C108.496 86.0156 108.509 86.2886 108.466 86.5549L103.005 120.072C102.934 120.505 102.719 120.898 102.396 121.181C102.073 121.464 101.665 121.619 101.242 121.619Z" fill="#2F2E41"/>
<path d="M0 136H131" stroke="#3F3D56" stroke-width="0.18958" stroke-miterlimit="10"/>
<path fill-rule="evenodd" clip-rule="evenodd" d="M70.0161 105.431H71.0606C71.3145 105.424 71.5825 105.184 71.5825 104.935V98.2477H83.5485C83.7375 98.2477 83.8974 98.1081 83.8941 97.9238V97.2885C83.8977 97.0965 83.7172 96.9635 83.5485 96.9704H70.4138C70.2613 96.9635 69.9371 97.1187 69.9371 97.5258V102.581L67.1098 97.492C66.9724 97.2408 66.9102 97.0965 66.6021 96.927C66.3624 96.7838 66.0391 96.8181 65.7895 96.8247H65.0802C64.7475 96.8181 64.5335 97.1127 64.5283 97.3823V104.935C64.5335 105.184 64.7999 105.424 65.0511 105.431H65.7406C65.9957 105.424 66.2631 105.184 66.2593 104.935V99.6416L69.2095 104.935C69.2967 105.079 69.6058 105.424 70.0161 105.431Z" fill="#9A9996"/>
<path fill-rule="evenodd" clip-rule="evenodd" d="M83.7796 101.007H82.9573C82.6652 100.998 82.5963 100.864 82.5223 100.683C82.4913 100.608 82.2496 100.242 81.4652 100.247C80.6939 100.242 80.4674 100.468 80.4674 100.809C80.4674 101.355 81.4748 101.437 81.9833 101.558C83.2296 101.846 84.2214 102.177 84.2137 103.541C84.2214 104.637 83.1641 105.527 81.4367 105.528C79.7021 105.527 78.6626 104.553 78.6626 103.723C78.6626 103.408 78.7778 103.326 79.0436 103.31L79.7293 103.322C80.1983 103.31 80.1465 103.486 80.3069 103.715C80.4967 103.971 80.8834 104.201 81.5063 104.201C82.1232 104.201 82.5664 103.925 82.5601 103.589C82.5664 102.947 81.4709 102.975 80.5447 102.696C79.5463 102.389 78.7899 101.967 78.7899 100.88C78.7899 99.846 79.7476 98.9996 81.4035 99.001C83.1336 98.9996 84.0516 99.9217 84.0489 100.653C84.0519 100.873 83.9178 100.998 83.7796 101.007Z" fill="#9A9996"/>
<path fill-rule="evenodd" clip-rule="evenodd" d="M86.5641 97.3438V99.2215L87.6782 99.2146C87.8403 99.2146 87.9909 99.3534 87.9909 99.5342V100.101C87.9909 100.272 87.8403 100.412 87.6782 100.414L86.5641 100.419V103.044C86.5641 103.697 86.7342 104.117 87.4212 104.112H87.501C87.8403 104.112 87.9673 104.312 87.9621 104.512V105.06C87.9676 105.241 87.7915 105.424 87.6248 105.431C87.4591 105.424 87.3025 105.424 87.0905 105.431C86.4215 105.41 86.2424 105.41 85.713 105.031C85.0696 104.57 84.9157 103.74 84.9157 103.323V100.418L84.5342 100.413C84.3762 100.412 84.222 100.272 84.2144 100.101V99.5339C84.222 99.3534 84.3762 99.2144 84.5342 99.2144L84.9157 99.2212V97.3435C84.9157 97.0917 85.1203 96.8717 85.4003 96.875H86.0751C86.3589 96.872 86.5641 97.0917 86.5641 97.3438Z" fill="#9A9996"/>
<path fill-rule="evenodd" clip-rule="evenodd" d="M90.0652 104.961V97.3432C90.0652 97.0917 89.8315 96.872 89.552 96.875H88.8523C88.5937 96.875 88.3589 97.0917 88.3589 97.3432V104.96C88.3589 105.204 88.5835 105.424 88.8523 105.424L89.552 105.43C89.837 105.424 90.0652 105.204 90.0652 104.961Z" fill="#9A9996"/>
<path fill-rule="evenodd" clip-rule="evenodd" d="M76.5225 103.576C76.6361 103.435 76.7296 103.311 76.9734 103.311L77.7768 103.323C78.22 103.307 78.2398 103.576 78.124 103.914C77.943 104.422 77.4682 104.887 76.9635 105.15C76.4602 105.416 75.9578 105.536 75.3107 105.536C73.4569 105.536 72.1519 104.063 72.1519 102.265C72.1519 100.469 73.2794 98.9998 75.2946 99.002C77.3171 98.9998 78.4071 100.451 78.4019 102.265C78.4074 102.369 78.4074 102.742 77.918 102.742H73.8332C73.8332 103.535 74.4838 104.138 75.2743 104.138C75.7762 104.138 76.2153 103.992 76.5225 103.576ZM73.8332 101.559H76.7249C76.7249 100.874 76.0071 100.291 75.2743 100.291C74.5417 100.291 73.8321 100.88 73.8332 101.559Z" fill="#9A9996"/>
<path fill-rule="evenodd" clip-rule="evenodd" d="M91.4178 97.2291C91.2009 97.2475 90.9864 97.298 90.979 97.5808V97.9124C90.9861 98.1425 91.1905 98.1787 91.3586 98.1787H96.2498C96.4747 98.1787 96.661 97.9944 96.6582 97.7728V97.2193C96.661 96.8814 96.4555 96.7516 96.2641 96.7623L91.4178 97.2291Z" fill="#9A9996"/>
<path fill-rule="evenodd" clip-rule="evenodd" d="M94.9431 103.58C95.055 103.434 95.1502 103.315 95.3926 103.322H96.1963C96.6398 103.306 96.6609 103.575 96.5391 103.916C96.363 104.425 95.8883 104.886 95.3847 105.149C94.8789 105.415 94.3767 105.541 93.73 105.541C91.8717 105.541 90.5708 104.062 90.5708 102.268C90.5708 100.473 91.7 99.0107 93.7146 99.0107C95.7316 99.0107 96.8271 100.45 96.8241 102.268C96.8271 102.369 96.8271 102.748 96.3389 102.748H92.2483C92.2538 103.541 92.9036 104.142 93.6957 104.142C94.1949 104.142 94.6362 103.991 94.9431 103.58ZM92.2787 101.559H95.1702C95.1702 100.873 94.4628 100.29 93.73 100.29C92.9974 100.29 92.282 100.88 92.2787 101.559Z" fill="#9A9996"/>
<path fill-rule="evenodd" clip-rule="evenodd" d="M97.0188 109.595C97.0188 109.397 97.1686 109.246 97.3611 109.246C97.552 109.246 97.7015 109.397 97.7015 109.595C97.7015 109.797 97.552 109.947 97.3611 109.947C97.1686 109.947 97.0188 109.797 97.0188 109.595ZM97.3611 110.016C97.5904 110.016 97.7863 109.838 97.7863 109.595C97.7863 109.353 97.5904 109.178 97.3611 109.178C97.1305 109.178 96.9341 109.354 96.9341 109.595C96.9341 109.838 97.1305 110.016 97.3611 110.016ZM97.2714 109.63H97.3565L97.484 109.838H97.5677L97.4286 109.626C97.5013 109.617 97.5537 109.579 97.5537 109.493C97.5537 109.397 97.4986 109.354 97.3842 109.354H97.199V109.838H97.2714V109.63ZM97.2714 109.568V109.414H97.3718C97.4237 109.414 97.4777 109.426 97.4777 109.488C97.4777 109.561 97.4229 109.568 97.36 109.568H97.2714Z" fill="#9A9996"/>
<path fill-rule="evenodd" clip-rule="evenodd" d="M58.6958 107.236C58.6958 107.031 58.8198 106.894 59.0373 106.894H59.8116C60.4542 106.894 60.9317 107.313 60.9317 107.939C60.9317 108.579 60.4369 108.976 59.8387 108.976H59.3513V109.696C59.3513 109.911 59.2125 110.034 59.0244 110.034C58.8368 110.034 58.6961 109.911 58.6961 109.696V107.236H58.6958ZM59.3513 108.399H59.7979C60.0743 108.399 60.2482 108.197 60.2482 107.935C60.2482 107.672 60.0743 107.471 59.7979 107.471H59.3513V108.399Z" fill="#9A9996"/>
<path fill-rule="evenodd" clip-rule="evenodd" d="M62.003 107.236C62.003 107.026 62.1212 106.894 62.3401 106.894H63.1094C63.7833 106.894 64.1989 107.197 64.1989 107.885C64.1989 108.365 63.836 108.641 63.3895 108.71L64.133 109.507C64.1945 109.573 64.2219 109.637 64.2219 109.699C64.2219 109.869 64.0834 110.034 63.8925 110.034C63.813 110.034 63.7093 110.005 63.6391 109.921L62.6687 108.746H62.6585V109.696C62.6585 109.911 62.5195 110.034 62.331 110.034C62.1434 110.034 62.0024 109.911 62.0024 109.696V107.236H62.003ZM62.6588 108.273H63.1094C63.3497 108.273 63.5167 108.128 63.5167 107.885C63.5167 107.634 63.3497 107.499 63.1094 107.499H62.6588V108.273Z" fill="#9A9996"/>
<path fill-rule="evenodd" clip-rule="evenodd" d="M65.1865 108.451C65.1865 107.541 65.7998 106.843 66.6915 106.843C67.5719 106.843 68.1978 107.564 68.1978 108.451C68.1978 109.355 67.5898 110.061 66.6915 110.061C65.8039 110.061 65.1865 109.355 65.1865 108.451ZM67.5149 108.451C67.5149 107.923 67.2398 107.445 66.6912 107.445C66.1454 107.445 65.8695 107.923 65.8695 108.451C65.8695 108.986 66.1361 109.459 66.6912 109.459C67.248 109.459 67.5149 108.986 67.5149 108.451Z" fill="#9A9996"/>
<path fill-rule="evenodd" clip-rule="evenodd" d="M69.3433 107.236C69.3433 107.058 69.4659 106.894 69.6847 106.894H70.8043C70.9969 106.894 71.0981 107.042 71.0981 107.197C71.0981 107.346 71.0007 107.499 70.8043 107.499H69.9991V108.137H70.6771C70.8886 108.137 70.9925 108.287 70.9925 108.433C70.9925 108.586 70.8886 108.739 70.6771 108.739H69.9991V109.696C69.9991 109.911 69.8586 110.034 69.6718 110.034C69.4831 110.034 69.3433 109.911 69.3433 109.696V107.236Z" fill="#9A9996"/>
<path fill-rule="evenodd" clip-rule="evenodd" d="M72.1606 107.274C72.1606 107.057 72.2693 106.893 72.501 106.893H73.5869C73.7962 106.893 73.8966 107.041 73.8966 107.196C73.8966 107.345 73.7918 107.498 73.5869 107.498H72.8156V108.136H73.5342C73.7479 108.136 73.8527 108.286 73.8527 108.436C73.8527 108.585 73.7435 108.739 73.5342 108.739H72.8156V109.406H73.6256C73.8365 109.406 73.9361 109.554 73.9361 109.707C73.9361 109.854 73.831 110.009 73.6256 110.009H72.4964C72.3041 110.009 72.1606 109.877 72.1606 109.68V107.274Z" fill="#9A9996"/>
<path fill-rule="evenodd" clip-rule="evenodd" d="M76.9014 107.279C76.9014 107.449 76.7875 107.603 76.6092 107.603C76.4282 107.603 76.2883 107.471 76.0264 107.471C75.8388 107.471 75.6674 107.574 75.6674 107.756C75.6682 108.206 77.1282 107.917 77.1282 109.047C77.1282 109.671 76.6136 110.061 76.0075 110.061C75.6723 110.061 74.9463 109.982 74.9463 109.572C74.9463 109.402 75.0585 109.259 75.2392 109.259C75.4452 109.259 75.6893 109.431 75.9735 109.431C76.2634 109.431 76.4214 109.269 76.4214 109.054C76.4214 108.538 74.9592 108.851 74.9592 107.834C74.9592 107.222 75.463 106.843 76.044 106.843C76.2883 106.842 76.9014 106.934 76.9014 107.279Z" fill="#9A9996"/>
<path fill-rule="evenodd" clip-rule="evenodd" d="M80.1259 107.279C80.1259 107.449 80.0115 107.603 79.8332 107.603C79.6525 107.603 79.5134 107.471 79.2509 107.471C79.0628 107.471 78.8919 107.574 78.8919 107.756C78.8919 108.206 80.353 107.917 80.353 109.047C80.353 109.671 79.8362 110.061 79.2323 110.061C78.8963 110.061 78.1694 109.982 78.1694 109.572C78.1694 109.402 78.2852 109.259 78.4624 109.259C78.6689 109.259 78.9136 109.431 79.1977 109.431C79.4865 109.431 79.6445 109.269 79.6445 109.054C79.6445 108.538 78.1823 108.851 78.1823 107.834C78.1823 107.222 78.6851 106.843 79.2674 106.843C79.5134 106.842 80.1259 106.934 80.1259 107.279Z" fill="#9A9996"/>
<path fill-rule="evenodd" clip-rule="evenodd" d="M83.3096 108.451C83.3096 107.541 83.9209 106.843 84.8143 106.843C85.6933 106.843 86.3187 107.564 86.3187 108.451C86.3187 109.355 85.7103 110.061 84.8143 110.061C83.9259 110.061 83.3096 109.355 83.3096 108.451ZM85.6368 108.451C85.6368 107.923 85.3598 107.445 84.8145 107.445C84.2665 107.445 83.9912 107.923 83.9912 108.451C83.9914 108.986 84.2583 109.459 84.8145 109.459C85.3705 109.459 85.636 108.986 85.6368 108.451Z" fill="#9A9996"/>
<path fill-rule="evenodd" clip-rule="evenodd" d="M87.439 107.209C87.439 106.991 87.5797 106.865 87.7673 106.865C87.8509 106.865 87.9848 106.935 88.0429 107.011L89.43 108.862H89.4382V107.209C89.4382 106.991 89.5781 106.865 89.7654 106.865C89.9538 106.865 90.0937 106.991 90.0937 107.209V109.696C90.0937 109.911 89.9536 110.034 89.7654 110.034C89.6834 110.034 89.5523 109.968 89.4914 109.888L88.1035 108.06H88.0945V109.696C88.0945 109.911 87.9541 110.034 87.7673 110.034C87.5794 110.034 87.439 109.911 87.439 109.696V107.209Z" fill="#9A9996"/>
<path fill-rule="evenodd" clip-rule="evenodd" d="M92.0566 107.203C92.1323 107.005 92.3021 106.843 92.5262 106.843C92.7582 106.843 92.9195 106.993 92.9941 107.203L93.8512 109.584C93.8784 109.653 93.8858 109.714 93.8858 109.747C93.8858 109.918 93.7473 110.034 93.5849 110.034C93.4 110.034 93.3092 109.938 93.2651 109.809L93.1342 109.397H91.9175L91.7862 109.804C91.7428 109.938 91.6507 110.034 91.471 110.034C91.2971 110.034 91.146 109.904 91.146 109.728C91.146 109.66 91.1704 109.607 91.1795 109.584L92.0566 107.203ZM92.1063 108.793H92.9365L92.5308 107.524H92.5226L92.1063 108.793Z" fill="#9A9996"/>
<path fill-rule="evenodd" clip-rule="evenodd" d="M94.9673 107.209C94.9673 106.991 95.1069 106.865 95.2945 106.865C95.4832 106.865 95.6223 106.991 95.6223 107.209V109.406H96.4018C96.6245 109.406 96.7216 109.573 96.7164 109.719C96.7076 109.866 96.5946 110.01 96.4018 110.01H95.3077C95.0926 110.01 94.9673 109.87 94.9673 109.649V107.209Z" fill="#9A9996"/>
<path fill-rule="evenodd" clip-rule="evenodd" d="M81.4321 107.236C81.4321 107.017 81.5726 106.894 81.7604 106.894C81.948 106.894 82.0885 107.017 82.0885 107.236V109.719C82.0885 109.939 81.9478 110.062 81.7604 110.062C81.5726 110.062 81.4321 109.939 81.4321 109.719V107.236Z" fill="#9A9996"/>
<path fill-rule="evenodd" clip-rule="evenodd" d="M59.3928 104.009C58.6191 103.484 57.9871 102.831 57.4932 102.102C57.1928 101.756 56.9186 101.382 56.6884 100.966C56.1289 99.9512 55.8628 98.8554 55.8628 97.7767C55.8628 95.4505 57.0949 93.194 59.2749 91.9891C59.4743 91.8802 59.6767 91.7839 59.8805 91.6973C58.3541 92.1888 56.989 93.1046 56.0321 94.5078C53.8211 97.7517 54.6612 102.177 57.9073 104.386C59.858 105.714 62.236 105.94 64.3013 105.204C62.6345 105.405 60.8896 105.03 59.3928 104.009Z" fill="#9A9996"/>
<path fill-rule="evenodd" clip-rule="evenodd" d="M58.0822 101.275C57.7492 100.672 57.5224 100.041 57.3899 99.4021C57.2676 99.0587 57.1721 98.7046 57.1107 98.3324C57.0558 97.9962 57.0292 97.6676 57.0292 97.3387C57.0292 94.4075 59.15 91.8254 62.1366 91.335C62.2735 91.3117 62.4101 91.2983 62.5466 91.2848C62.5296 91.2848 62.5124 91.2812 62.4954 91.2812C61.4194 91.2812 60.3458 91.5284 59.3452 92.0841C57.199 93.2676 55.9878 95.4879 55.9878 97.7767C55.9878 98.8368 56.2484 99.9158 56.7997 100.914C57.7594 102.653 59.3968 103.776 61.2013 104.14C59.9229 103.568 58.8121 102.593 58.0822 101.275Z" fill="#AA0132"/>
<path fill-rule="evenodd" clip-rule="evenodd" d="M69.0352 96.8907C69.0352 95.7461 68.6383 94.5925 67.8265 93.6534C66.8456 92.5181 65.4652 91.9355 64.0812 91.9355C62.9539 91.9355 61.8241 92.3212 60.9086 93.1141C59.7975 94.0738 59.23 95.431 59.23 96.7969C59.23 96.8246 59.2305 96.8495 59.2316 96.8742C59.4642 95.954 59.9692 95.0972 60.738 94.432C61.6412 93.6509 62.7556 93.2694 63.8686 93.2694C65.2323 93.2694 66.5925 93.8429 67.5607 94.9619C68.3616 95.8871 68.7519 97.0256 68.7519 98.154C68.7519 98.3008 68.7456 98.4469 68.7329 98.5904C68.9332 98.0468 69.0352 97.4705 69.0352 96.8907Z" fill="#F6AC34"/>
<path fill-rule="evenodd" clip-rule="evenodd" d="M64.0815 91.828C65.0341 91.828 65.9818 92.1045 66.8071 92.6371C65.7785 91.8332 64.4938 91.3604 63.1287 91.3604C62.8078 91.3604 62.4811 91.3853 62.1547 91.4404C59.2194 91.9218 57.1362 94.46 57.1362 97.3388C57.1362 97.6611 57.162 97.9878 57.2158 98.3169C57.3995 99.4338 57.8814 100.426 58.5652 101.227C58.2048 100.631 57.9495 99.9587 57.8304 99.2325C57.7794 98.9269 57.7547 98.6233 57.7547 98.3232C57.7558 96.4277 58.7268 94.6813 60.266 93.6286C60.4394 93.4185 60.6262 93.2172 60.839 93.0351C61.7746 92.2238 62.9287 91.828 64.0815 91.828Z" fill="#FDD675"/>
<path d="M60.7578 111.667L59.9045 113.631L59.0513 111.667H58.6626V114.13H58.9506V112.121L59.8239 114.111L59.8324 114.13H59.9731L60.8417 112.123V114.13H61.1297V111.667H60.7578Z" fill="#AA0132"/>
<path d="M62.6469 111.667H62.374L61.2988 114.13H61.6033L61.8743 113.493H63.1022L63.3631 114.13H63.6842L62.6469 111.667ZM62.9944 113.225H61.99L62.4999 112.027L62.9944 113.225Z" fill="#AA0132"/>
<path d="M64.4578 112.798L65.708 111.667H65.3034L64.1654 112.702V111.667H63.8774V114.13H64.1654V112.916L65.3566 114.13H65.7691L64.4578 112.798Z" fill="#AA0132"/>
<path d="M66.2253 111.667H65.937V114.13H66.2253V111.667Z" fill="#AA0132"/>
<path d="M68.2886 111.667V113.707L66.8706 111.667H66.5332V114.13H66.8217V112.09L68.2398 114.13H68.5771V111.667H68.2886Z" fill="#AA0132"/>
<path d="M70.0957 112.772V113.04H70.6717V113.795C70.5148 113.883 70.3113 113.924 70.0332 113.924C69.4534 113.924 69.0482 113.503 69.0482 112.899C69.0482 112.296 69.4534 111.874 70.0332 111.874C70.288 111.874 70.5721 111.995 70.7096 112.161L70.7326 112.189L70.9416 111.97L70.9197 111.948C70.6964 111.721 70.398 111.606 70.0329 111.606C69.2836 111.606 68.7603 112.138 68.7603 112.899C68.7603 113.661 69.2836 114.192 70.0329 114.192C70.3854 114.192 70.6835 114.12 70.9432 113.971L70.9597 113.962V112.772H70.0957V112.772Z" fill="#AA0132"/>
<path d="M72.2437 111.747H73.0437L73.5964 113.313H73.603L74.1587 111.747H74.9552V114.146H74.4266V112.306H74.4198L73.7895 114.146H73.3863L72.7796 112.306H72.773V114.146H72.2439V111.747H72.2437Z" fill="#AA0132"/>
<path d="M76.4154 111.686C77.1639 111.686 77.7097 112.177 77.7097 112.946C77.7097 113.716 77.1642 114.207 76.4154 114.207C75.6666 114.207 75.1211 113.716 75.1211 112.946C75.1208 112.177 75.6666 111.686 76.4154 111.686ZM76.4154 113.719C76.8663 113.719 77.1609 113.393 77.1609 112.946C77.1609 112.499 76.8661 112.173 76.4154 112.173C75.9648 112.173 75.6699 112.499 75.6699 112.946C75.6699 113.393 75.9648 113.719 76.4154 113.719Z" fill="#AA0132"/>
<path d="M77.8755 111.747H78.8037C79.2952 111.747 79.7085 111.916 79.7085 112.476C79.7085 112.811 79.5291 113.072 79.1904 113.133L79.8001 114.146H79.1662L78.6649 113.187H78.4043V114.146H77.8755V111.747ZM78.4043 112.74H78.7159C78.909 112.74 79.1599 112.733 79.1599 112.472C79.1599 112.232 78.9427 112.194 78.7496 112.194H78.4043V112.74Z" fill="#AA0132"/>
<path d="M79.9593 111.747H81.5893V112.235H80.4878V112.682H81.5281V113.17H80.4878V113.658H81.6502V114.146H79.959V111.747H79.9593Z" fill="#AA0132"/>
<path d="M83.715 111.667H82.9917V114.13H83.2797V112.992H83.766C84.1141 112.992 84.5203 112.819 84.5203 112.333C84.5203 111.715 83.904 111.667 83.715 111.667ZM84.2323 112.333C84.2323 112.686 83.8993 112.724 83.7561 112.724H83.28V111.935H83.743C83.9794 111.934 84.2323 112.039 84.2323 112.333Z" fill="#AA0132"/>
<path d="M85.8905 111.605C85.1418 111.605 84.6182 112.137 84.6182 112.898C84.6182 113.66 85.1415 114.191 85.8905 114.191C86.6399 114.191 87.1635 113.66 87.1635 112.898C87.1635 112.137 86.6399 111.605 85.8905 111.605ZM85.8905 113.924C85.3113 113.924 84.9062 113.502 84.9062 112.898C84.9062 112.295 85.3113 111.873 85.8905 111.873C86.4701 111.873 86.8755 112.295 86.8755 112.898C86.8755 113.502 86.4701 113.924 85.8905 113.924Z" fill="#AA0132"/>
<path d="M88.1849 112.776C87.8933 112.688 87.641 112.612 87.641 112.296C87.641 111.984 87.9139 111.873 88.1479 111.873C88.3393 111.873 88.4795 111.945 88.5895 112.097L88.6078 112.123L88.8541 111.946L88.8341 111.92C88.675 111.711 88.4466 111.605 88.1545 111.605C87.7683 111.605 87.353 111.821 87.353 112.296C87.353 112.81 87.7307 112.929 88.0648 113.033C88.3462 113.122 88.5897 113.199 88.5897 113.485C88.5897 113.743 88.3816 113.924 88.0831 113.924C87.8527 113.924 87.6725 113.825 87.5617 113.638L87.5445 113.609L87.2754 113.788L87.2946 113.816C87.4726 114.065 87.7439 114.192 88.1001 114.192C88.4866 114.192 88.8783 113.949 88.8783 113.485C88.878 112.985 88.5099 112.874 88.1849 112.776Z" fill="#AA0132"/>
<path d="M89.9062 112.776C89.6143 112.688 89.362 112.612 89.362 112.296C89.362 111.984 89.6349 111.873 89.8688 111.873C90.0603 111.873 90.201 111.945 90.3102 112.097L90.3288 112.123L90.5748 111.946L90.5551 111.92C90.396 111.711 90.1673 111.605 89.8754 111.605C89.489 111.605 89.0737 111.821 89.0737 112.296C89.0737 112.81 89.4519 112.929 89.7855 113.033C90.0669 113.122 90.3107 113.199 90.3107 113.485C90.3107 113.743 90.1023 113.924 89.8041 113.924C89.574 113.924 89.3935 113.825 89.2833 113.638L89.2657 113.609L88.9961 113.788L89.0156 113.816C89.1936 114.065 89.4648 114.192 89.8211 114.192C90.2076 114.192 90.599 113.949 90.599 113.485C90.599 112.985 90.2312 112.874 89.9062 112.776Z" fill="#AA0132"/>
<path d="M91.1989 111.667H90.9106V114.13H91.1989V111.667Z" fill="#AA0132"/>
<path d="M92.7621 112.827C92.9738 112.743 93.097 112.565 93.097 112.333C93.097 111.884 92.8334 111.667 92.2917 111.667H91.5679V114.13H92.3663C92.5621 114.13 93.2009 114.079 93.2009 113.427C93.2012 113.126 93.0295 112.897 92.7621 112.827ZM92.2881 112.704H91.8564V111.935H92.3191C92.6485 111.935 92.809 112.065 92.809 112.333C92.8087 112.42 92.7709 112.704 92.2881 112.704ZM91.8564 112.972H92.3701C92.6326 112.972 92.9135 113.093 92.9135 113.434C92.9135 113.595 92.8383 113.863 92.3359 113.863H91.8564V112.972Z" fill="#AA0132"/>
<path d="M93.7675 113.863V111.667H93.4795V114.13H94.8857V113.863H93.7675Z" fill="#AA0132"/>
<path d="M95.4206 113.863V112.992H96.5863V112.724H95.4206V111.934H96.6644V111.667H95.1323V114.13H96.7185V113.863H95.4206Z" fill="#AA0132"/>
<defs>
<clipPath id="clip0">
<rect x="78" width="197" height="146.43" fill="white"/>
</clipPath>
</defs>
</svg>
