<svg width="334" height="211" viewBox="0 0 334 211" fill="none" xmlns="http://www.w3.org/2000/svg">
<g clip-path="url(#clip0)">
<path opacity="0.1" d="M214.93 29.5811C196.732 29.1115 179.4 24.7474 162.849 19.9729C146.298 15.1983 129.905 9.89795 112.143 7.36727C100.718 5.7392 87.6511 5.50862 78.4479 10.061C69.5877 14.4363 66.7252 21.989 65.1871 29.0187C64.0286 34.2966 63.3481 39.85 66.5199 44.7905C68.7244 48.2209 72.6329 51.1031 75.3379 54.3902C84.7493 65.8233 78.0964 79.9192 67.9006 91.0823C63.1204 96.318 57.5669 101.312 53.8749 106.888C50.183 112.464 48.4761 118.847 51.707 124.535C54.9069 130.159 62.5355 134.402 70.7996 137.38C87.5836 143.428 107.354 145.157 126.646 146.139C169.339 148.31 212.256 147.368 255.062 146.42C270.904 146.071 286.813 145.72 302.397 143.889C311.051 142.88 319.985 141.274 326.269 137.402C334.244 132.487 336.221 124.164 330.875 118C321.911 107.661 297.133 105.091 290.859 93.9954C287.412 87.888 290.952 81.0861 295.966 75.4202C306.718 63.2701 324.74 52.6103 325.687 38.7196C326.34 29.1818 317.676 19.627 304.28 15.114C290.241 10.3844 270.769 10.9777 260.415 18.8088C249.744 26.8817 231 29.986 214.93 29.5811Z" fill="#AC1637"/>
<g opacity="0.8">
<path opacity="0.8" d="M313.97 50.2702C313.97 50.2702 310.798 48.9824 300.709 53.6107C290.62 58.2391 289.361 57.6514 286.748 56.9428C284.136 56.2342 282.68 56.0683 279.879 52.2048C279.879 52.2048 277.911 41.5 275.993 39.8326C274.075 38.1651 265.96 40.7802 265.96 40.7802C265.96 40.7802 256.225 43.0184 254.358 30.0023C254.358 30.0023 255.674 20.1945 253.88 17.183C253.88 17.183 257.502 18.7435 263.474 16.2241C269.447 13.7047 274.227 18.9404 274.227 18.9404C274.227 18.9404 275.734 22.8404 275.577 25.163C275.419 27.4856 276.373 28.363 279.232 27.2382C279.232 27.2382 280.638 25.2474 278.65 21.9575C276.662 18.6676 275.253 16.2157 275.807 13.6597C276.361 11.1037 277.95 7.56354 283.059 5.78644C288.168 4.00934 295.111 3.67754 298.443 2.30535C301.775 0.933154 302.579 0.0136719 302.579 0.0136719C302.579 0.0136719 300.529 2.06915 305.36 10.7747C310.191 19.4803 307.112 23.2622 307.112 23.2622C307.112 23.2622 304.542 29.3865 293.199 28.886C293.199 28.886 282.269 29.2852 288.227 33.9192C288.227 33.9192 292.043 33.1431 297.751 31.3295C303.459 29.5158 307.573 37.001 308.597 42.2086C309.62 47.4162 313.97 50.2702 313.97 50.2702Z" fill="#AC1637"/>
<path opacity="0.8" d="M299.281 6.60476L299.34 6.58789C299.779 8.24971 294.894 14.9251 290.719 20.2339L290.671 20.1973C296.559 12.7093 299.63 7.88135 299.281 6.60476Z" fill="#444053"/>
<path opacity="0.8" d="M290.755 20.0879L290.781 20.1554C287.446 24.3957 283.25 29.457 279.893 33.2053C279.572 33.5624 279.255 33.9364 278.951 34.33L278.853 34.2541C279.162 33.8689 279.48 33.4921 279.8 33.1293C283.158 29.3755 287.423 24.3254 290.755 20.0879Z" fill="#444053"/>
<path opacity="0.8" d="M278.934 34.1416L279.002 34.2541C272.891 41.8827 272.486 53.7263 272.472 53.8303L271.185 52.3569C271.199 52.2388 272.782 41.8208 278.934 34.1416Z" fill="#444053"/>
<path opacity="0.8" d="M306.887 46.1336C306.887 46.1336 299.683 42.3882 294.067 43.7323C288.452 45.0764 275.813 38.9802 275.813 38.9802C275.813 38.9802 270.445 36.801 269.365 34.3153C269.365 34.3153 265.684 30.4209 265.474 28.4104C265.263 26.3999 261.669 21.3273 259.341 21.1445" stroke="#444053" stroke-width="0.281187" stroke-miterlimit="10"/>
<path opacity="0.8" d="M305.844 49.7381C305.844 49.7381 302.216 47.2946 302.638 44.4434" stroke="#444053" stroke-width="0.281187" stroke-miterlimit="10"/>
<path opacity="0.8" d="M300.279 52.8964C300.279 52.8964 295.088 51.0124 294.568 43.6172" stroke="#444053" stroke-width="0.281187" stroke-miterlimit="10"/>
<path opacity="0.8" d="M291.905 54.8086C291.905 54.8086 286.945 50.6948 288.593 43.5049" stroke="#444053" stroke-width="0.281187" stroke-miterlimit="10"/>
<path opacity="0.8" d="M281.842 52.7984C281.842 52.7984 278.54 45.8728 281.479 41.3682" stroke="#444053" stroke-width="0.281187" stroke-miterlimit="10"/>
<path opacity="0.8" d="M306.971 41.5674C306.971 41.5674 303.217 42.7596 304.024 44.7335" stroke="#444053" stroke-width="0.281187" stroke-miterlimit="10"/>
<path opacity="0.8" d="M302.441 34.7568C302.441 34.7568 297.419 36.3484 297.301 43.454" stroke="#444053" stroke-width="0.281187" stroke-miterlimit="10"/>
<path opacity="0.8" d="M295.44 33.1182C295.44 33.1182 290.87 38.7588 291.194 43.8848" stroke="#444053" stroke-width="0.281187" stroke-miterlimit="10"/>
<path opacity="0.8" d="M287.437 35.3311C287.437 35.3311 282.896 39.6698 283.475 42.0795" stroke="#444053" stroke-width="0.281187" stroke-miterlimit="10"/>
<path opacity="0.8" d="M284.699 33.7986C284.699 33.7986 280.441 34.5606 279.848 33.1631" stroke="#444053" stroke-width="0.281187" stroke-miterlimit="10"/>
<path opacity="0.8" d="M279.167 28.6582C279.167 28.6582 281.319 31.5066 281.872 30.8683" stroke="#444053" stroke-width="0.281187" stroke-miterlimit="10"/>
<path opacity="0.8" d="M300.487 26.8552C300.487 26.8552 289.757 27.634 287.331 24.4004" stroke="#444053" stroke-width="0.281187" stroke-miterlimit="10"/>
<path opacity="0.8" d="M276.91 14.3057C276.91 14.3057 281.946 25.1117 285.601 26.4895" stroke="#444053" stroke-width="0.281187" stroke-miterlimit="10"/>
<path opacity="0.8" d="M282.196 9.15723C282.196 9.15723 285.289 19.0972 289.119 22.2015" stroke="#444053" stroke-width="0.281187" stroke-miterlimit="10"/>
<path opacity="0.8" d="M305.003 18.6535C305.003 18.6535 296.849 22.1543 291.945 18.6113" stroke="#444053" stroke-width="0.21089" stroke-miterlimit="10"/>
<path opacity="0.8" d="M289.462 7.03711C289.462 7.03711 291.326 14.348 293.837 16.111" stroke="#444053" stroke-width="0.21089" stroke-miterlimit="10"/>
<path opacity="0.8" d="M303.771 10.46C303.771 10.46 299.185 12.1949 297.473 10.8649" stroke="#444053" stroke-width="0.21089" stroke-miterlimit="10"/>
<path opacity="0.8" d="M275.239 31.0449C275.239 31.0449 275.239 37.4138 273.504 37.8665" stroke="#444053" stroke-width="0.281187" stroke-miterlimit="10"/>
<path opacity="0.8" d="M261.062 39.2987C261.062 39.2987 267.951 39.8892 271.126 36.335" stroke="#444053" stroke-width="0.281187" stroke-miterlimit="10"/>
<path opacity="0.8" d="M273.462 23.5205C273.462 23.5205 271.798 29.9878 267.2 31.7199" stroke="#444053" stroke-width="0.281187" stroke-miterlimit="10"/>
<path opacity="0.8" d="M256.931 32.4937C256.931 32.4937 261.807 34.1808 265.999 29.873" stroke="#444053" stroke-width="0.281187" stroke-miterlimit="10"/>
<path opacity="0.8" d="M268.044 17.9668C268.044 17.9668 267.583 23.4528 264.599 26.02" stroke="#444053" stroke-width="0.281187" stroke-miterlimit="10"/>
<path opacity="0.8" d="M257.117 24.1334C257.117 24.1334 261.163 24.1587 262.111 22.8428" stroke="#444053" stroke-width="0.281187" stroke-miterlimit="10"/>
</g>
<path d="M206.734 78.8866C210.562 78.8866 214.305 80.022 217.488 82.149C220.671 84.2761 223.153 87.2994 224.618 90.8366C226.083 94.3738 226.466 98.266 225.719 102.021C224.971 105.776 223.128 109.225 220.42 111.932C217.713 114.639 214.263 116.482 210.508 117.229C206.753 117.975 202.861 117.592 199.324 116.126C195.787 114.661 192.764 112.179 190.638 108.996C188.511 105.812 187.376 102.069 187.377 98.2407C187.378 93.1074 189.417 88.1847 193.047 84.5551C196.677 80.9256 201.601 78.8866 206.734 78.8866ZM206.734 74.1064C201.96 74.1064 197.293 75.5221 193.324 78.1745C189.354 80.8268 186.261 84.5967 184.434 89.0073C182.607 93.418 182.129 98.2713 183.061 102.953C183.992 107.636 186.291 111.937 189.667 115.312C193.043 118.688 197.344 120.986 202.027 121.917C206.709 122.848 211.562 122.37 215.973 120.543C220.383 118.715 224.153 115.621 226.804 111.651C229.456 107.682 230.871 103.015 230.871 98.2407C230.863 91.8417 228.318 85.707 223.793 81.1824C219.268 76.6579 213.133 74.1131 206.734 74.1064Z" fill="#3F3D56"/>
<path d="M208.817 68.4609H203.16V74.4165H208.817V68.4609Z" fill="#3F3D56"/>
<path d="M223.758 73.7908L218.908 70.877L215.841 75.9818L220.69 78.8957L223.758 73.7908Z" fill="#3F3D56"/>
<path d="M233.703 85.5771L230.96 80.6289L225.751 83.5162L228.494 88.4644L233.703 85.5771Z" fill="#3F3D56"/>
<path d="M230.886 115.691L233.884 110.894L228.833 107.738L225.835 112.535L230.886 115.691Z" fill="#3F3D56"/>
<path d="M184.975 88.4618L187.718 83.5137L182.509 80.6264L179.766 85.5745L184.975 88.4618Z" fill="#3F3D56"/>
<path d="M187.635 112.533L184.637 107.735L179.586 110.891L182.584 115.689L187.635 112.533Z" fill="#3F3D56"/>
<path d="M192.776 78.8943L197.625 75.9805L194.558 70.8756L189.708 73.7894L192.776 78.8943Z" fill="#3F3D56"/>
<path d="M208.817 122.066H203.16V128.022H208.817V122.066Z" fill="#3F3D56"/>
<path d="M220.691 117.588L215.842 120.502L218.909 125.607L223.759 122.693L220.691 117.588Z" fill="#3F3D56"/>
<path d="M189.709 122.694L194.559 125.607L197.626 120.503L192.777 117.589L189.709 122.694Z" fill="#3F3D56"/>
<path d="M183.21 95.8594H176.36V100.921H183.21V95.8594Z" fill="#3F3D56"/>
<path d="M230.258 100.921H237.107V95.8595H230.258V100.921Z" fill="#3F3D56"/>
<path d="M251.701 44.0448C255.53 44.0448 259.272 45.1802 262.456 47.3073C265.639 49.4343 268.12 52.4576 269.585 55.9948C271.05 59.532 271.433 63.4242 270.686 67.1791C269.939 70.9341 268.095 74.3831 265.387 77.0901C262.68 79.7971 259.231 81.6405 255.476 82.3871C251.721 83.1336 247.829 82.7499 244.292 81.2844C240.755 79.8189 237.732 77.3374 235.605 74.1538C233.478 70.9702 232.344 67.2275 232.344 63.3989C232.345 58.2656 234.385 53.3429 238.015 49.7133C241.645 46.0838 246.568 44.0448 251.701 44.0448ZM251.701 39.2646C246.927 39.2646 242.26 40.6803 238.291 43.3327C234.322 45.985 231.228 49.7549 229.401 54.1655C227.574 58.5762 227.096 63.4295 228.028 68.1117C228.96 72.7939 231.259 77.0947 234.635 80.4702C238.01 83.8458 242.312 86.1444 246.994 87.0754C251.676 88.0064 256.529 87.528 260.94 85.7007C265.35 83.8734 269.12 80.7792 271.772 76.8096C274.424 72.8399 275.839 68.1729 275.838 63.3989C275.831 56.9999 273.285 50.8652 268.76 46.3406C264.235 41.8161 258.1 39.2713 251.701 39.2646Z" fill="#3F3D56"/>
<path d="M253.785 33.6221H248.127V39.5776H253.785V33.6221Z" fill="#3F3D56"/>
<path d="M268.727 38.946L263.877 36.0322L260.81 41.1371L265.66 44.0509L268.727 38.946Z" fill="#3F3D56"/>
<path d="M278.672 50.7343L275.929 45.7861L270.72 48.6734L273.463 53.6216L278.672 50.7343Z" fill="#3F3D56"/>
<path d="M275.852 80.8496L278.85 76.0518L273.8 72.8958L270.802 77.6936L275.852 80.8496Z" fill="#3F3D56"/>
<path d="M229.941 53.6239L232.684 48.6758L227.475 45.7885L224.732 50.7366L229.941 53.6239Z" fill="#3F3D56"/>
<path d="M232.601 77.6933L229.603 72.8955L224.552 76.0515L227.55 80.8493L232.601 77.6933Z" fill="#3F3D56"/>
<path d="M237.743 44.0515L242.593 41.1377L239.525 36.0328L234.676 38.9466L237.743 44.0515Z" fill="#3F3D56"/>
<path d="M253.785 87.2246H248.127V93.1802H253.785V87.2246Z" fill="#3F3D56"/>
<path d="M265.658 82.7473L260.809 85.6611L263.876 90.766L268.726 87.8522L265.658 82.7473Z" fill="#3F3D56"/>
<path d="M234.675 87.8508L239.524 90.7646L242.592 85.6598L237.742 82.7459L234.675 87.8508Z" fill="#3F3D56"/>
<path d="M228.174 61.0176H221.325V66.0789H228.174V61.0176Z" fill="#3F3D56"/>
<path d="M275.228 66.0791H282.078V61.0177H275.228V66.0791Z" fill="#3F3D56"/>
<path d="M161.755 42.5546C161.983 42.5546 162.21 42.5546 162.438 42.5546C167.512 42.7276 172.314 44.8868 175.811 48.5669C179.308 52.2471 181.219 57.1536 181.132 62.2293C181.046 67.305 178.969 72.1438 175.35 75.7029C171.73 79.262 166.857 81.2567 161.78 81.2572C161.552 81.2572 161.325 81.2572 161.094 81.2572C156.02 81.0842 151.218 78.9248 147.721 75.2443C144.224 71.5639 142.313 66.6571 142.4 61.5811C142.486 56.5051 144.564 51.6663 148.184 48.1074C151.804 44.5485 156.678 42.5543 161.755 42.5546ZM161.755 37.7744C155.424 37.7736 149.347 40.2599 144.832 44.6974C140.317 49.135 137.727 55.1686 137.618 61.4981C137.51 67.8277 139.892 73.9465 144.253 78.536C148.613 83.1256 154.601 85.8185 160.928 86.0346C161.209 86.0346 161.491 86.0486 161.772 86.0486C168.102 86.0487 174.179 83.5619 178.693 79.1241C183.207 74.6864 185.797 68.6528 185.905 62.3235C186.013 55.9942 183.631 49.8758 179.271 45.2865C174.911 40.6972 168.922 38.0045 162.596 37.7885C162.314 37.7885 162.033 37.7744 161.752 37.7744H161.755Z" fill="#3F3D56"/>
<path d="M164.88 32.2258L159.226 32.0293L159.019 37.9813L164.673 38.1777L164.88 32.2258Z" fill="#3F3D56"/>
<path d="M179.624 38.0668L174.878 34.9863L171.636 39.9816L176.381 43.0621L179.624 38.0668Z" fill="#3F3D56"/>
<path d="M189.155 50.1918L186.586 45.1514L181.28 47.8561L183.849 52.8965L189.155 50.1918Z" fill="#3F3D56"/>
<path d="M185.298 80.182L188.461 75.4912L183.523 72.1618L180.36 76.8526L185.298 80.182Z" fill="#3F3D56"/>
<path d="M140.356 51.3812L143.269 46.5312L138.164 43.4648L135.251 48.3147L140.356 51.3812Z" fill="#3F3D56"/>
<path d="M141.783 75.9972L138.955 71.0752L133.773 74.053L136.602 78.975L141.783 75.9972Z" fill="#3F3D56"/>
<path d="M148.491 42.0864L153.439 39.3428L150.551 34.1344L145.603 36.8781L148.491 42.0864Z" fill="#3F3D56"/>
<path d="M163.02 85.7941L157.366 85.5977L157.159 91.5496L162.813 91.7461L163.02 85.7941Z" fill="#3F3D56"/>
<path d="M175.045 81.7358L170.098 84.4795L172.986 89.6878L177.934 86.9442L175.045 81.7358Z" fill="#3F3D56"/>
<path d="M143.908 85.7555L148.654 88.8359L151.897 83.8406L147.151 80.7602L143.908 85.7555Z" fill="#3F3D56"/>
<path d="M138.338 58.7164L131.492 58.4785L131.316 63.5368L138.162 63.7747L138.338 58.7164Z" fill="#3F3D56"/>
<path d="M185.188 65.4008L192.034 65.6387L192.209 60.5804L185.364 60.3425L185.188 65.4008Z" fill="#3F3D56"/>
</g>
<path d="M100.644 12.1445C99.8362 12.192 99.0568 12.4724 98.3934 12.9543C97.7301 13.4363 97.2091 14.1007 96.8888 14.8731C95.9497 17.2318 97.1588 20.0025 98.9739 21.7226C100.789 23.4426 103.121 24.4257 105.239 25.718C108.085 27.4538 110.642 29.8633 112.065 32.9563C113.489 36.0493 113.641 39.8806 111.967 42.8355C110.414 45.5781 107.589 47.2195 104.895 48.7334" stroke="#3F3D56" stroke-width="0.18958" stroke-miterlimit="10"/>
<path d="M103.037 14.0247C104.869 14.0247 106.355 13.275 106.355 12.3502C106.355 11.4255 104.869 10.6758 103.037 10.6758C101.205 10.6758 99.7192 11.4255 99.7192 12.3502C99.7192 13.275 101.205 14.0247 103.037 14.0247Z" fill="#57B894"/>
<path d="M105.691 25.0559C107.523 25.0559 109.009 24.3062 109.009 23.3815C109.009 22.4567 107.523 21.707 105.691 21.707C103.859 21.707 102.374 22.4567 102.374 23.3815C102.374 24.3062 103.859 25.0559 105.691 25.0559Z" fill="#57B894"/>
<path d="M99.6243 26.8293C101.457 26.8293 102.942 26.0797 102.942 25.1549C102.942 24.2301 101.457 23.4805 99.6243 23.4805C97.792 23.4805 96.3066 24.2301 96.3066 25.1549C96.3066 26.0797 97.792 26.8293 99.6243 26.8293Z" fill="#57B894"/>
<path d="M109.104 36.0881C110.936 36.0881 112.421 35.3384 112.421 34.4137C112.421 33.4889 110.936 32.7393 109.104 32.7393C107.271 32.7393 105.786 33.4889 105.786 34.4137C105.786 35.3384 107.271 36.0881 109.104 36.0881Z" fill="#57B894"/>
<path d="M115.739 36.0881C117.571 36.0881 119.056 35.3384 119.056 34.4137C119.056 33.4889 117.571 32.7393 115.739 32.7393C113.906 32.7393 112.421 33.4889 112.421 34.4137C112.421 35.3384 113.906 36.0881 115.739 36.0881Z" fill="#57B894"/>
<path d="M118.177 67.0648C117.433 66.7341 116.614 66.6254 115.814 66.7508C115.014 66.8762 114.263 67.2309 113.646 67.7749C111.795 69.4543 111.694 72.4947 112.584 74.8738C113.475 77.2528 115.143 79.2102 116.488 81.3462C118.295 84.2151 119.555 87.5543 119.508 90.9826C119.46 94.4108 117.957 97.913 115.194 99.7872C112.63 101.527 109.398 101.693 106.337 101.805" stroke="#3F3D56" stroke-width="0.18958" stroke-miterlimit="10"/>
<path d="M123.204 69.8852C123.6 69.0568 122.59 67.6994 120.948 66.8533C119.307 66.0072 117.656 65.9929 117.26 66.8213C116.865 67.6497 117.875 69.0072 119.516 69.8533C121.157 70.6994 122.809 70.7137 123.204 69.8852Z" fill="#57B894"/>
<path d="M120.864 80.9937C121.26 80.1652 120.25 78.8077 118.608 77.9617C116.967 77.1156 115.316 77.1012 114.92 77.9297C114.525 78.7581 115.535 80.1156 117.176 80.9617C118.818 81.8078 120.469 81.8221 120.864 80.9937Z" fill="#57B894"/>
<path d="M114.671 79.7798C115.066 78.9514 114.056 77.5939 112.415 76.7478C110.774 75.9017 109.122 75.8874 108.727 76.7158C108.331 77.5442 109.341 78.9017 110.983 79.7478C112.624 80.5939 114.275 80.6082 114.671 79.7798Z" fill="#57B894"/>
<path d="M119.203 92.4517C119.599 91.6232 118.589 90.2658 116.947 89.4197C115.306 88.5736 113.655 88.5593 113.259 89.3877C112.864 90.2161 113.874 91.5736 115.515 92.4197C117.156 93.2658 118.808 93.2801 119.203 92.4517Z" fill="#57B894"/>
<path d="M125.147 95.5151C125.543 94.6867 124.533 93.3292 122.891 92.4831C121.25 91.6371 119.598 91.6227 119.203 92.4512C118.807 93.2796 119.817 94.6371 121.459 95.4832C123.1 96.3292 124.752 96.3436 125.147 95.5151Z" fill="#57B894"/>
<path d="M32.5137 82.8564C33.0877 82.2635 33.8094 81.8484 34.5978 81.6578C35.3861 81.4672 36.21 81.5086 36.977 81.7773C39.2931 82.6279 40.4684 85.4143 40.4865 87.9669C40.5047 90.5194 39.6501 92.9787 39.1592 95.4799C38.5 98.8393 38.5159 102.426 39.7784 105.594C41.041 108.761 43.6824 111.439 46.9162 112.121C49.9177 112.753 52.9805 111.667 55.8647 110.596" stroke="#3F3D56" stroke-width="0.18958" stroke-miterlimit="10"/>
<path d="M32.2602 85.9611C33.4848 84.5448 33.9409 82.8957 33.2789 82.2776C32.6169 81.6596 31.0875 82.3066 29.8629 83.7228C28.6383 85.139 28.1822 86.7882 28.8442 87.4062C29.5062 88.0243 31.0356 87.3773 32.2602 85.9611Z" fill="#57B894"/>
<path d="M38.3832 95.3859C39.6079 93.9696 40.064 92.3205 39.402 91.7025C38.74 91.0844 37.2106 91.7314 35.9859 93.1476C34.7613 94.5638 34.3052 96.213 34.9672 96.831C35.6292 97.4491 37.1586 96.8021 38.3832 95.3859Z" fill="#57B894"/>
<path d="M43.7075 91.882C44.9321 90.4657 45.3882 88.8166 44.7262 88.1986C44.0642 87.5805 42.5348 88.2275 41.3102 89.6437C40.0855 91.0599 39.6294 92.7091 40.2914 93.3271C40.9534 93.9452 42.4828 93.2982 43.7075 91.882Z" fill="#57B894"/>
<path d="M43.9994 105.397C45.2241 103.98 45.6802 102.331 45.0182 101.713C44.3562 101.095 42.8268 101.742 41.6021 103.158C40.3775 104.575 39.9214 106.224 40.5834 106.842C41.2454 107.46 42.7748 106.813 43.9994 105.397Z" fill="#57B894"/>
<path d="M39.5649 110.525C40.7895 109.108 41.2456 107.459 40.5836 106.841C39.9216 106.223 38.3922 106.87 37.1676 108.286C35.9429 109.703 35.4868 111.352 36.1488 111.97C36.8108 112.588 38.3402 111.941 39.5649 110.525Z" fill="#57B894"/>
<path d="M108.815 60.113L108.294 64.0864L105.071 88.6041L99.7928 128.755L98.4714 138.808C98.3708 139.575 98.0059 140.278 97.4443 140.788C96.8828 141.297 96.1626 141.577 95.4173 141.577H60.2217C59.4775 141.578 58.7584 141.298 58.1971 140.79C57.6358 140.283 57.2701 139.581 57.1676 138.815L55.8234 128.755L50.4564 88.6041L47.1767 64.0686L46.6496 60.1209C46.5888 59.6674 46.6222 59.2056 46.7477 58.7667C46.8732 58.3278 47.0879 57.922 47.3772 57.5766C47.6664 57.2312 48.0236 56.9542 48.4247 56.7645C48.8257 56.5747 49.2612 56.4765 49.7019 56.4766H105.761C106.201 56.4768 106.636 56.5748 107.036 56.7641C107.437 56.9533 107.793 57.2295 108.083 57.5739C108.372 57.9184 108.587 58.3232 108.713 58.7611C108.84 59.1991 108.874 59.66 108.815 60.113Z" fill="#AC1637"/>
<path d="M102.229 45.8389H53.4161C51.7136 45.8389 50.3335 47.2729 50.3335 49.042V53.2734C50.3335 55.0424 51.7136 56.4765 53.4161 56.4765H102.229C103.932 56.4765 105.312 55.0424 105.312 53.2734V49.042C105.312 47.2729 103.932 45.8389 102.229 45.8389Z" fill="#2F2E41"/>
<path opacity="0.1" d="M105.312 50.8662V53.2735C105.312 54.123 104.987 54.9377 104.409 55.5384C103.831 56.1391 103.047 56.4766 102.229 56.4766H53.4161C52.5985 56.4766 51.8145 56.1391 51.2364 55.5384C50.6583 54.9377 50.3335 54.123 50.3335 53.2735V50.8721C68.6183 52.6825 87.0274 52.6805 105.312 50.8662Z" fill="black"/>
<path opacity="0.1" d="M108.64 58.545H108.641C108.64 58.5426 108.639 58.5403 108.638 58.5379C108.557 58.3174 108.452 58.1069 108.327 57.9103L108.326 57.9097C108.289 57.8517 108.25 57.7956 108.209 57.7402C108.196 57.7217 108.182 57.7036 108.168 57.6854C108.05 57.5313 107.918 57.3889 107.775 57.2597C107.743 57.2308 107.711 57.2024 107.678 57.1748C107.64 57.144 107.603 57.1137 107.564 57.0847C107.516 57.0483 107.466 57.014 107.416 56.9805C107.376 56.9541 107.337 56.9282 107.296 56.9037C107.232 56.8657 107.168 56.83 107.102 56.7965C107.071 56.7807 107.039 56.766 107.007 56.7512C106.944 56.7221 106.879 56.6953 106.814 56.6707C106.788 56.6608 106.762 56.6499 106.735 56.6407C106.645 56.6094 106.553 56.5824 106.459 56.5597C106.436 56.5542 106.412 56.5503 106.389 56.5453C106.312 56.5287 106.234 56.5152 106.155 56.5048C106.127 56.501 106.098 56.4971 106.069 56.4942C105.968 56.4837 105.866 56.4766 105.762 56.4766L105.761 56.4766H49.7026C49.2625 56.4781 48.8277 56.5773 48.4275 56.7675C48.0272 56.9577 47.6706 57.2345 47.3817 57.5795C47.0927 57.9244 46.8779 58.3295 46.7518 58.7677C46.6256 59.2058 46.591 59.6669 46.6501 60.1201L46.7392 60.7861L47.1774 64.0686L47.1779 64.0687L50.4574 88.6041H50.4571L54.7622 120.81L57.1687 138.815C57.2711 139.581 57.6366 140.282 58.1977 140.79C58.7588 141.298 59.4778 141.577 60.2218 141.577H61.8921C61.8094 141.353 61.7513 141.121 61.7187 140.883L60.0975 128.755H99.7935L105.071 88.6041H54.7308L51.5039 64.4614C70.4084 66.0545 89.4107 65.929 108.294 64.0864L108.816 60.113C108.885 59.5834 108.825 59.044 108.64 58.545Z" fill="black"/>
<path d="M113.225 61.7958C89.6934 64.4647 65.952 64.4647 42.4203 61.7958C41.6028 61.7958 40.8188 61.4583 40.2407 60.8577C39.6626 60.257 39.3379 59.4423 39.3379 58.5929V54.3611C39.3379 53.5116 39.6626 52.697 40.2407 52.0963C40.8188 51.4956 41.6028 51.1582 42.4203 51.1582C65.9334 54.1622 89.712 54.1622 113.225 51.1582C114.043 51.1582 114.827 51.4956 115.405 52.0963C115.983 52.697 116.307 53.5116 116.307 54.3611V58.5929C116.307 59.4423 115.983 60.257 115.405 60.8577C114.827 61.4583 114.043 61.7958 113.225 61.7958Z" fill="#2F2E41"/>
<path d="M101.242 127.295H53.8502C53.4247 127.295 53.0132 127.137 52.6897 126.85C52.3661 126.563 52.1517 126.166 52.085 125.729L46.965 92.2118C46.9245 91.9466 46.9398 91.6754 47.0099 91.417C47.0799 91.1585 47.2031 90.919 47.3709 90.7148C47.5387 90.5105 47.7471 90.3466 47.9818 90.2341C48.2164 90.1217 48.4718 90.0635 48.7302 90.0635H106.704C106.964 90.0635 107.221 90.1224 107.456 90.2361C107.692 90.3499 107.901 90.5157 108.069 90.722C108.237 90.9284 108.359 91.1703 108.428 91.4308C108.496 91.6914 108.509 91.9644 108.466 92.2307L103.005 125.748C102.934 126.181 102.719 126.573 102.396 126.857C102.073 127.14 101.665 127.295 101.242 127.295Z" fill="#2F2E41"/>
<path d="M0 141.676H131" stroke="#3F3D56" stroke-width="0.18958" stroke-miterlimit="10"/>
<defs>
<clipPath id="clip0">
<rect x="50" width="283.87" height="211" fill="white"/>
</clipPath>
</defs>
</svg>
