<svg width="344" height="129" viewBox="0 0 344 129" fill="none" xmlns="http://www.w3.org/2000/svg">
<g clip-path="url(#clip0)">
<path d="M277.742 11.6631L236.016 37.3404C236.016 37.3404 236.016 90.2998 277.742 119.187C319.467 90.2998 319.467 37.3404 319.467 37.3404L277.742 11.6631Z" fill="#3F3D56"/>
<path opacity="0.04" d="M277.991 11.6631L277.278 12.102V118.686C277.515 118.853 277.751 119.021 277.991 119.187C319.717 90.2998 319.717 37.3404 319.717 37.3404L277.991 11.6631Z" fill="#AC1637"/>
<g opacity="0.7">
<path opacity="0.7" d="M267.64 63.6953L275.506 70.9057L285.257 56.8389L289.19 60.1164L275.506 77.4608L264.363 65.0063L267.64 63.6953Z" fill="url(#paint0_linear)"/>
</g>
<path d="M269.497 64.1279L275.877 69.9769L284.917 56.6836L288.107 59.3423L275.877 75.2943L266.838 65.1914L269.497 64.1279Z" fill="#3AD29F"/>
<path opacity="0.5" d="M236.572 17.4187C236.444 17.363 236.341 17.2622 236.283 17.1355C236.224 17.0088 236.215 16.8651 236.255 16.7316C236.262 16.7112 236.266 16.69 236.268 16.6686C236.271 16.6075 236.255 16.5467 236.222 16.4955C236.188 16.4442 236.139 16.405 236.082 16.3838C236.024 16.3626 235.961 16.3605 235.903 16.3778C235.844 16.395 235.792 16.4308 235.755 16.4797C235.743 16.497 235.732 16.5158 235.724 16.5356C235.668 16.6635 235.567 16.7665 235.441 16.8249C235.314 16.8833 235.17 16.8931 235.037 16.8524C235.016 16.8458 234.995 16.8417 234.974 16.84C234.913 16.8363 234.852 16.8524 234.801 16.8859C234.749 16.9194 234.71 16.9685 234.689 17.0259C234.668 17.0834 234.666 17.1462 234.683 17.2049C234.7 17.2637 234.736 17.3153 234.785 17.3522C234.802 17.3649 234.821 17.3755 234.841 17.3837C234.969 17.4395 235.072 17.5402 235.13 17.6669C235.188 17.7936 235.198 17.9374 235.158 18.0708C235.151 18.0913 235.147 18.1124 235.145 18.1339C235.141 18.195 235.158 18.2557 235.191 18.307C235.225 18.3583 235.274 18.3974 235.331 18.4186C235.389 18.4398 235.451 18.442 235.51 18.4247C235.569 18.4074 235.621 18.3717 235.657 18.3228C235.67 18.3054 235.681 18.2867 235.689 18.2668C235.745 18.1389 235.845 18.036 235.972 17.9776C236.099 17.9191 236.243 17.9094 236.376 17.9501C236.396 17.9566 236.418 17.9608 236.439 17.9624C236.5 17.9661 236.561 17.9501 236.612 17.9166C236.663 17.8831 236.703 17.834 236.724 17.7765C236.745 17.7191 236.747 17.6563 236.73 17.5975C236.713 17.5388 236.677 17.4871 236.628 17.4503C236.611 17.4376 236.592 17.427 236.572 17.4187Z" fill="#4D8AF0"/>
<path opacity="0.5" d="M213.984 67.7C213.856 67.6443 213.753 67.5435 213.695 67.4168C213.636 67.2901 213.627 67.1463 213.667 67.0129C213.674 66.9924 213.678 66.9713 213.68 66.9498C213.683 66.8887 213.667 66.828 213.634 66.7767C213.6 66.7254 213.551 66.6863 213.494 66.6651C213.436 66.6439 213.374 66.6418 213.315 66.659C213.256 66.6763 213.204 66.712 213.168 66.7609C213.155 66.7783 213.144 66.7971 213.136 66.8169C213.08 66.9448 212.98 67.0478 212.853 67.1062C212.726 67.1646 212.582 67.1744 212.449 67.1337C212.428 67.1271 212.407 67.1229 212.386 67.1213C212.325 67.1176 212.264 67.1336 212.213 67.1671C212.161 67.2006 212.122 67.2497 212.101 67.3072C212.08 67.3646 212.078 67.4274 212.095 67.4862C212.112 67.5449 212.148 67.5966 212.197 67.6335C212.214 67.6461 212.233 67.6567 212.253 67.665C212.381 67.7207 212.484 67.8215 212.542 67.9482C212.601 68.0749 212.61 68.2186 212.57 68.3521C212.563 68.3725 212.559 68.3937 212.557 68.4151C212.554 68.4763 212.57 68.537 212.603 68.5883C212.637 68.6395 212.686 68.6787 212.743 68.6999C212.801 68.7211 212.863 68.7232 212.922 68.7059C212.981 68.6887 213.033 68.653 213.069 68.6041C213.082 68.5867 213.093 68.5679 213.101 68.5481C213.157 68.4202 213.258 68.3172 213.384 68.2588C213.511 68.2004 213.655 68.1906 213.788 68.2313C213.809 68.2379 213.83 68.242 213.851 68.2437C213.912 68.2474 213.973 68.2313 214.024 68.1978C214.076 68.1644 214.115 68.1153 214.136 68.0578C214.157 68.0003 214.159 67.9376 214.142 67.8788C214.125 67.82 214.089 67.7684 214.04 67.7315C214.023 67.7188 214.004 67.7082 213.984 67.7Z" fill="#4D8AF0"/>
<path opacity="0.5" d="M326.785 50.2247C327.297 50.2247 327.713 49.8091 327.713 49.2964C327.713 48.7838 327.297 48.3682 326.785 48.3682C326.272 48.3682 325.856 48.7838 325.856 49.2964C325.856 49.8091 326.272 50.2247 326.785 50.2247Z" fill="#F55F44"/>
<path opacity="0.5" d="M229.782 116.595C230.294 116.595 230.71 116.179 230.71 115.667C230.71 115.154 230.294 114.738 229.782 114.738C229.269 114.738 228.854 115.154 228.854 115.667C228.854 116.179 229.269 116.595 229.782 116.595Z" fill="#F55F44"/>
<path opacity="0.5" d="M342.565 85.963C343.078 85.963 343.493 85.5474 343.493 85.0347C343.493 84.522 343.078 84.1064 342.565 84.1064C342.052 84.1064 341.637 84.522 341.637 85.0347C341.637 85.5474 342.052 85.963 342.565 85.963Z" fill="#F55F44"/>
<path opacity="0.5" d="M319.961 21.906C319.833 21.8503 319.73 21.7495 319.671 21.6228C319.613 21.4961 319.603 21.3524 319.644 21.219C319.65 21.1985 319.655 21.1773 319.656 21.1559C319.66 21.0948 319.644 21.0341 319.61 20.9828C319.577 20.9315 319.528 20.8923 319.47 20.8711C319.413 20.8499 319.35 20.8478 319.291 20.8651C319.233 20.8823 319.181 20.9181 319.144 20.967C319.131 20.9843 319.121 21.0031 319.113 21.0229C319.057 21.1509 318.956 21.2538 318.829 21.3122C318.703 21.3706 318.559 21.3804 318.425 21.3397C318.405 21.3331 318.384 21.329 318.362 21.3273C318.301 21.3236 318.241 21.3397 318.189 21.3732C318.138 21.4067 318.099 21.4558 318.078 21.5132C318.056 21.5707 318.054 21.6335 318.072 21.6922C318.089 21.751 318.125 21.8026 318.174 21.8395C318.191 21.8522 318.21 21.8628 318.229 21.8711C318.357 21.9268 318.46 22.0276 318.519 22.1542C318.577 22.2809 318.587 22.4247 318.546 22.5581C318.54 22.5786 318.536 22.5997 318.534 22.6212C318.53 22.6823 318.546 22.743 318.58 22.7943C318.613 22.8456 318.662 22.8847 318.72 22.9059C318.777 22.9271 318.84 22.9293 318.899 22.912C318.958 22.8947 319.009 22.859 319.046 22.8101C319.059 22.7928 319.069 22.774 319.078 22.7541C319.133 22.6262 319.234 22.5233 319.361 22.4649C319.487 22.4064 319.631 22.3967 319.765 22.4374C319.785 22.4439 319.806 22.4481 319.828 22.4497C319.889 22.4534 319.95 22.4374 320.001 22.4039C320.052 22.3704 320.091 22.3213 320.112 22.2638C320.134 22.2064 320.136 22.1436 320.119 22.0849C320.101 22.0261 320.066 21.9744 320.017 21.9376C319.999 21.9249 319.981 21.9143 319.961 21.906Z" fill="#4D8AF0"/>
<path opacity="0.5" d="M335.432 119.063C335.304 119.008 335.201 118.907 335.143 118.78C335.084 118.653 335.074 118.51 335.115 118.376C335.122 118.356 335.126 118.335 335.127 118.313C335.131 118.252 335.115 118.191 335.082 118.14C335.048 118.089 334.999 118.05 334.942 118.028C334.884 118.007 334.821 118.005 334.763 118.022C334.704 118.04 334.652 118.075 334.615 118.124C334.603 118.142 334.592 118.16 334.584 118.18C334.528 118.308 334.427 118.411 334.301 118.469C334.174 118.528 334.03 118.538 333.897 118.497C333.876 118.49 333.855 118.486 333.834 118.485C333.772 118.481 333.712 118.497 333.66 118.53C333.609 118.564 333.57 118.613 333.549 118.67C333.528 118.728 333.526 118.791 333.543 118.849C333.56 118.908 333.596 118.96 333.645 118.997C333.662 119.009 333.681 119.02 333.701 119.028C333.829 119.084 333.932 119.185 333.99 119.311C334.048 119.438 334.058 119.582 334.017 119.715C334.011 119.736 334.007 119.757 334.005 119.778C334.001 119.84 334.017 119.9 334.051 119.952C334.084 120.003 334.133 120.042 334.191 120.063C334.248 120.084 334.311 120.086 334.37 120.069C334.429 120.052 334.48 120.016 334.517 119.967C334.53 119.95 334.541 119.931 334.549 119.911C334.604 119.783 334.705 119.68 334.832 119.622C334.959 119.564 335.102 119.554 335.236 119.595C335.256 119.601 335.277 119.605 335.299 119.607C335.36 119.611 335.421 119.595 335.472 119.561C335.523 119.528 335.562 119.479 335.584 119.421C335.605 119.364 335.607 119.301 335.59 119.242C335.572 119.183 335.537 119.132 335.488 119.095C335.47 119.082 335.452 119.072 335.432 119.063Z" fill="#4D8AF0"/>
<path opacity="0.5" d="M212.902 38.3045C212.774 38.2488 212.671 38.148 212.612 38.0213C212.554 37.8946 212.544 37.7508 212.585 37.6174C212.591 37.5969 212.596 37.5758 212.597 37.5543C212.601 37.4932 212.585 37.4325 212.551 37.3812C212.518 37.3299 212.469 37.2908 212.411 37.2696C212.354 37.2484 212.291 37.2462 212.232 37.2635C212.174 37.2808 212.122 37.3165 212.085 37.3654C212.072 37.3828 212.062 37.4015 212.053 37.4214C211.998 37.5493 211.897 37.6522 211.77 37.7107C211.644 37.7691 211.5 37.7789 211.366 37.7381C211.346 37.7316 211.325 37.7274 211.303 37.7258C211.242 37.7221 211.182 37.7381 211.13 37.7716C211.079 37.8051 211.04 37.8542 211.019 37.9117C210.997 37.9691 210.995 38.0319 211.013 38.0907C211.03 38.1494 211.066 38.2011 211.114 38.2379C211.132 38.2506 211.151 38.2612 211.17 38.2695C211.298 38.3252 211.401 38.426 211.46 38.5527C211.518 38.6794 211.528 38.8231 211.487 38.9566C211.481 38.977 211.476 38.9982 211.475 39.0196C211.471 39.0807 211.487 39.1415 211.521 39.1927C211.554 39.244 211.603 39.2832 211.661 39.3044C211.718 39.3256 211.781 39.3277 211.84 39.3104C211.898 39.2932 211.95 39.2574 211.987 39.2085C212 39.1912 212.01 39.1724 212.019 39.1526C212.074 39.0247 212.175 38.9217 212.302 38.8633C212.428 38.8049 212.572 38.7951 212.706 38.8358C212.726 38.8424 212.747 38.8465 212.769 38.8482C212.83 38.8519 212.89 38.8358 212.942 38.8023C212.993 38.7689 213.032 38.7197 213.053 38.6623C213.075 38.6048 213.077 38.5421 213.059 38.4833C213.042 38.4245 213.006 38.3729 212.958 38.336C212.94 38.3233 212.921 38.3127 212.902 38.3045Z" fill="#4D8AF0"/>
<path opacity="0.5" d="M223.284 54.8653C223.796 54.8653 224.212 54.4497 224.212 53.937C224.212 53.4244 223.796 53.0088 223.284 53.0088C222.771 53.0088 222.355 53.4244 222.355 53.937C222.355 54.4497 222.771 54.8653 223.284 54.8653Z" fill="#47E6B1"/>
<path opacity="0.5" d="M343.029 62.2921C343.542 62.2921 343.958 61.8765 343.958 61.3638C343.958 60.8511 343.542 60.4355 343.029 60.4355C342.517 60.4355 342.101 60.8511 342.101 61.3638C342.101 61.8765 342.517 62.2921 343.029 62.2921Z" fill="#47E6B1"/>
<g opacity="0.5">
<path opacity="0.5" d="M301.722 10H301.258V12.6301H301.722V10Z" fill="#47E6B1"/>
<path opacity="0.5" d="M302.805 11.5471V11.083H300.175V11.5471H302.805Z" fill="#47E6B1"/>
</g>
<g opacity="0.5">
<path opacity="0.5" d="M303.424 113.036H302.959V115.666H303.424V113.036Z" fill="#47E6B1"/>
<path opacity="0.5" d="M304.506 114.583V114.119H301.876V114.583H304.506Z" fill="#47E6B1"/>
</g>
<g opacity="0.5">
<path opacity="0.5" d="M215.549 118.606H215.084V121.237H215.549V118.606Z" fill="#47E6B1"/>
<path opacity="0.5" d="M216.631 120.154V119.689H214.001V120.154H216.631Z" fill="#47E6B1"/>
</g>
<g opacity="0.5">
<path opacity="0.5" d="M321.215 71.2656H320.751V73.8957H321.215V71.2656Z" fill="#47E6B1"/>
<path opacity="0.5" d="M322.298 72.8128V72.3486H319.668V72.8128H322.298Z" fill="#47E6B1"/>
</g>
<path opacity="0.5" d="M334.088 29.0322L335.085 29.946L336.497 27.8691L336.996 28.2845L335.085 30.7768L333.673 29.1984L334.088 29.0322Z" fill="#47E6B1"/>
</g>
<g clip-path="url(#clip1)">
<path d="M56.7943 120.314L50.9808 111.088L56.7969 121.319L56.8001 122.37C57.2148 122.365 57.6254 122.349 58.0317 122.322L57.5576 108.818L57.5638 108.714L57.5531 108.694L57.508 107.418L63.5865 97.3063L57.5017 106.462L57.4835 106.732L57.1253 96.5295L62.3509 86.0679L57.0844 94.7367L56.8395 73.5889L56.8384 73.5186L56.8375 73.5878L56.7182 90.2614L51.7249 83.59L56.7227 91.6975L56.7458 100.83L52.1128 92.0098L56.7484 102.172L56.7612 107.25L50.0312 94.9698L56.7665 109.022L56.7943 120.314Z" fill="#E2E2E2"/>
<path d="M106.682 120.314L100.868 111.088L106.685 121.319L106.688 122.37C107.103 122.365 107.513 122.349 107.919 122.322L107.445 108.818L107.451 108.714L107.441 108.694L107.396 107.418L113.474 97.3063L107.389 106.462L107.371 106.732L107.013 96.5295L112.239 86.0679L106.972 94.7367L106.727 73.5889L106.726 73.5186L106.725 73.5878L106.606 90.2614L101.613 83.59L106.61 91.6975L106.634 100.83L102 92.0098L106.636 102.172L106.649 107.25L99.9189 94.9698L106.654 109.022L106.682 120.314Z" fill="#E2E2E2"/>
<path d="M6.8596 120.907L2.66172 114.245L6.86155 121.632L6.8638 122.392C7.16328 122.388 7.45974 122.377 7.75318 122.357L7.41078 112.606L7.41529 112.53L7.40758 112.516L7.37498 111.595L11.7642 104.293L7.37045 110.905L7.3573 111.1L7.09865 103.732L10.872 96.1781L7.06916 102.438L6.89227 87.167L6.89146 87.1162L6.89085 87.1662L6.80472 99.2061L3.19908 94.3888L6.80791 100.243L6.82466 106.837L3.47914 100.469L6.8265 107.807L6.83576 111.474L1.97607 102.606L6.83957 112.753L6.8596 120.907Z" fill="#E2E2E2"/>
<path d="M228.013 120.314L222.199 111.088L228.015 121.319L228.018 122.37C228.433 122.365 228.844 122.349 229.25 122.322L228.776 108.818L228.782 108.714L228.771 108.694L228.726 107.418L234.805 97.3063L228.72 106.462L228.702 106.732L228.344 96.5295L233.569 86.0679L228.303 94.7367L228.058 73.5889L228.057 73.5186L228.056 73.5878L227.936 90.2614L222.943 83.59L227.941 91.6975L227.964 100.83L223.331 92.0098L227.967 102.172L227.979 107.25L221.25 94.9698L227.985 109.022L228.013 120.314Z" fill="#E2E2E2"/>
<path d="M70.352 106.384H101.712V105.055H70.352V106.384Z" fill="#AC1637"/>
<path d="M68.7573 105.055H100.118V103.726H68.7573V105.055Z" fill="#AC1637"/>
<path d="M70.6177 103.727H101.978V102.398H70.6177V103.727Z" fill="#AC1637"/>
<path d="M73.8066 102.397H105.167V101.069H73.8066V102.397Z" fill="#AC1637"/>
<path d="M47.1236 102.928H48.2124V95.197H47.1236V102.928Z" fill="#3F3D56"/>
<path d="M47.1218 95.0985L47.5312 96.1074L87.8237 79.7533L87.4142 78.7444L47.1218 95.0985Z" fill="#3F3D56"/>
<path d="M26.9803 114.469H36.4531V110.767H26.9803V114.469Z" fill="#3F3D56"/>
<path d="M27.8515 118.171H74.5625V114.033H27.8515V118.171Z" fill="#3F3D56"/>
<path d="M35.5273 116.102H46.7424V102.002H38.3583L35.5273 109.114V116.102Z" fill="#E2E2E2"/>
<path d="M40.2096 107.664H45.0005V102.873H40.2096V107.664Z" fill="white"/>
<path d="M36.6162 107.718H39.6651V102.928H38.3583L36.6162 107.718Z" fill="white"/>
<path d="M43.6939 112.455H44.7827V110.386H43.6939V112.455Z" fill="#3F3D56"/>
<path d="M38.7397 108.045H38.6853C38.411 108.045 38.1479 107.936 37.9539 107.742C37.7599 107.548 37.6509 107.285 37.6509 107.011C37.6509 106.736 37.7599 106.473 37.9539 106.279C38.1479 106.085 38.411 105.976 38.6853 105.976H38.7397V108.045Z" fill="#3F3D56"/>
<path d="M79.2441 116.103H79.1897C78.9154 116.103 78.6523 115.994 78.4583 115.8C78.2643 115.606 78.1553 115.342 78.1553 115.068C78.1553 114.794 78.2643 114.531 78.4583 114.337C78.6523 114.143 78.9154 114.034 79.1897 114.034H79.2441V116.103V116.103Z" fill="#3F3D56"/>
<path d="M31.1722 114.018C30.3624 114.029 29.5655 114.221 28.8405 114.582C28.1156 114.943 27.4813 115.463 26.9849 116.103H24.8569L26.9257 110.34L36.5619 108.439L36.2897 116.103H35.3595C34.8631 115.463 34.2288 114.943 33.5039 114.582C32.7789 114.221 31.9819 114.029 31.1722 114.018Z" fill="#E2E2E2"/>
<path d="M31.0636 122.2C33.6794 122.2 35.8 120.08 35.8 117.464C35.8 114.848 33.6794 112.728 31.0636 112.728C28.4477 112.728 26.3271 114.848 26.3271 117.464C26.3271 120.08 28.4477 122.2 31.0636 122.2Z" fill="#3F3D56"/>
<path d="M31.0632 119.956C32.4399 119.956 33.556 118.84 33.556 117.464C33.556 116.087 32.4399 114.971 31.0632 114.971C29.6864 114.971 28.5703 116.087 28.5703 117.464C28.5703 118.84 29.6864 119.956 31.0632 119.956Z" fill="#E2E2E2"/>
<path d="M73.8544 122.145C76.1395 122.145 77.9919 120.293 77.9919 118.008C77.9919 115.723 76.1395 113.87 73.8544 113.87C71.5692 113.87 69.7168 115.723 69.7168 118.008C69.7168 120.293 71.5692 122.145 73.8544 122.145Z" fill="#3F3D56"/>
<path d="M73.8544 120.185C75.0571 120.185 76.0321 119.21 76.0321 118.008C76.0321 116.805 75.0571 115.83 73.8544 115.83C72.6517 115.83 71.6768 116.805 71.6768 118.008C71.6768 119.21 72.6517 120.185 73.8544 120.185Z" fill="#E2E2E2"/>
<path d="M46.4161 116.537H48.7026V100.041H46.4161V116.537Z" fill="#3F3D56"/>
<path d="M46.416 114.523H79.2988V113.543H46.416V114.523Z" fill="#3F3D56"/>
<path d="M38.0865 108.372H39.1753V107.937H38.0865V108.372Z" fill="#3F3D56"/>
<path d="M86.2129 106.377C86.2025 106.365 86.1947 106.352 86.19 106.337C86.1852 106.323 86.1836 106.307 86.1852 106.292L87.6868 92.0916C87.6897 92.0649 87.7022 92.0402 87.7221 92.0223C87.742 92.0043 87.7678 91.9943 87.7947 91.9941H87.7951C87.8219 91.9941 87.8477 92.004 87.8676 92.0218C87.8876 92.0396 87.9003 92.0641 87.9033 92.0906L89.5274 106.262C89.5292 106.277 89.5277 106.292 89.5231 106.307C89.5185 106.321 89.5109 106.335 89.5008 106.346C89.4907 106.358 89.4783 106.367 89.4645 106.373C89.4506 106.379 89.4355 106.383 89.4202 106.383L86.2945 106.412H86.2935C86.2783 106.412 86.2633 106.409 86.2494 106.403C86.2355 106.397 86.2231 106.388 86.2129 106.377ZM87.7995 93.0973L86.4146 106.193L89.2973 106.166L87.7995 93.0973Z" fill="#3F3D56"/>
<path d="M26.9458 110.424L26.9967 110.443C27.2533 110.54 27.4609 110.735 27.5737 110.985C27.6865 111.235 27.6953 111.52 27.5983 111.777C27.5013 112.033 27.3062 112.241 27.0562 112.353C26.8061 112.466 26.5215 112.475 26.2649 112.378L26.214 112.359L26.9458 110.424Z" fill="#3F3D56"/>
<path d="M87.3018 94.6523H88.3906V78.7554H87.3018V94.6523Z" fill="#3F3D56"/>
<path d="M47.6679 96.9394C48.5098 96.9394 49.1923 96.2569 49.1923 95.415C49.1923 94.5731 48.5098 93.8906 47.6679 93.8906C46.826 93.8906 46.1436 94.5731 46.1436 95.415C46.1436 96.2569 46.826 96.9394 47.6679 96.9394Z" fill="#3F3D56"/>
<path d="M49.8882 113.561H81.2485V112.232H49.8882V113.561Z" fill="#AC1637"/>
<path d="M51.7485 112.231H83.1089V110.903H51.7485V112.231Z" fill="#AC1637"/>
<path d="M50.4194 111.168H81.7798V109.839H50.4194V111.168Z" fill="#AC1637"/>
<path d="M52.2798 109.84H83.6401V108.511H52.2798V109.84Z" fill="#AC1637"/>
<path d="M101.612 32.4873C102.612 32.4861 103.578 32.8461 104.333 33.5009C104.929 33.338 105.555 33.3105 106.163 33.4205C106.667 32.6894 107.391 32.1386 108.23 31.8485C109.069 31.5585 109.979 31.5443 110.827 31.8081C111.675 32.072 112.416 32.6 112.942 33.315C113.468 34.03 113.752 34.8945 113.752 35.7824H97.541C97.7398 34.85 98.2525 34.0142 98.9935 33.4144C99.7345 32.8147 100.659 32.4874 101.612 32.4873Z" fill="#E2E2E2"/>
<path d="M77.2238 45.602C78.1687 45.6009 79.0821 45.9413 79.7958 46.5603C80.3598 46.4063 80.951 46.3803 81.5263 46.4843C82.0025 45.7932 82.6873 45.2724 83.4806 44.9982C84.2738 44.7239 85.134 44.7106 85.9354 44.96C86.7368 45.2094 87.4375 45.7086 87.935 46.3845C88.4326 47.0605 88.7009 47.8779 88.7008 48.7172H73.375C73.5629 47.8358 74.0476 47.0455 74.7482 46.4785C75.4487 45.9115 76.3226 45.6021 77.2238 45.602Z" fill="#E2E2E2"/>
<path d="M52.8405 23.9711C53.8236 23.97 54.7739 24.3241 55.5166 24.9682C56.1033 24.808 56.7185 24.7809 57.317 24.8891C57.8125 24.17 58.525 23.6282 59.3504 23.3429C60.1757 23.0575 61.0707 23.0436 61.9046 23.3031C62.7384 23.5626 63.4674 24.082 63.9851 24.7853C64.5028 25.4886 64.782 26.3391 64.7819 27.2123H48.8359C49.0315 26.2953 49.5358 25.473 50.2647 24.8831C50.9935 24.2932 51.9028 23.9712 52.8405 23.9711Z" fill="#E2E2E2"/>
<path d="M158.13 65.1612V98.3569H171.04V64.7002L168.043 64.8072V58.0149H165.869L165.511 42.9716C166.388 42.4 167.006 41.0426 167.006 39.4576C167.007 39.0026 166.954 38.549 166.848 38.1065C167.263 37.6573 167.517 37.0832 167.571 36.4739C167.625 35.8647 167.475 35.2548 167.146 34.7398C167.421 34.9808 167.742 35.1647 168.09 35.2807C168.437 35.3967 168.804 35.4425 169.17 35.4155C169.535 35.3885 169.891 35.2892 170.218 35.1233C170.544 34.9575 170.835 34.7285 171.072 34.4495C171.309 34.1705 171.489 33.8471 171.6 33.4982C171.712 33.1493 171.753 32.7817 171.721 32.4167C171.689 32.0518 171.585 31.6969 171.415 31.3725C171.245 31.0481 171.012 30.7607 170.73 30.527C171.204 30.352 171.622 30.0503 171.936 29.6548C172.251 29.2593 172.452 28.7851 172.516 28.2836C172.581 27.7821 172.506 27.2726 172.301 26.8104C172.096 26.3482 171.769 25.951 171.354 25.6619C170.939 25.3728 170.453 25.2029 169.949 25.1707C169.444 25.1384 168.94 25.245 168.492 25.479C168.044 25.7129 167.668 26.0651 167.406 26.4975C167.144 26.9298 167.006 27.4257 167.006 27.9313C167.006 27.9718 167.007 28.012 167.009 28.0521C166.629 27.936 166.228 27.9031 165.835 27.9555C165.441 28.0079 165.063 28.1444 164.727 28.3557C164.391 28.5671 164.104 28.8483 163.886 29.1803C163.668 29.5123 163.524 29.8873 163.464 30.2799C163.119 30.0746 162.733 29.9469 162.334 29.9056C161.935 29.8643 161.531 29.9104 161.152 30.0406C160.772 30.1709 160.425 30.3823 160.135 30.66C159.845 30.9378 159.62 31.2753 159.473 31.6491C159.327 32.0229 159.264 32.4241 159.288 32.8248C159.312 33.2255 159.424 33.6161 159.614 33.9695C159.804 34.3228 160.07 34.6306 160.391 34.8712C160.712 35.1119 161.082 35.2798 161.475 35.3632C161.474 35.3833 161.473 35.4032 161.473 35.4234C161.73 36.1988 162.057 36.9491 162.45 37.665C162.258 38.243 162.161 38.8485 162.165 39.4576C162.165 41.0426 162.782 42.4 163.659 42.9716L163.301 58.0149H161.127V65.0542L158.13 65.1612ZM166.192 33.4638L166.199 33.4639C166.239 33.4639 166.278 33.4626 166.318 33.4609C166.343 33.5427 166.371 33.6227 166.403 33.7011C166.337 33.618 166.267 33.5388 166.192 33.4638Z" fill="#E2E2E2"/>
<path d="M151.023 121.986H190.212V76.6496H151.023V121.986Z" fill="#3F3D56"/>
<path d="M165.334 121.986H175.9V112.765H165.334V121.986Z" fill="#E2E2E2"/>
<path d="M137.962 16.996C137.961 17.0295 137.959 17.0627 137.959 17.0963C137.958 17.7129 138.082 18.3233 138.322 18.8912C138.562 19.459 138.914 19.9728 139.357 20.4018C139.426 20.5493 139.503 20.6931 139.587 20.8324C139.267 21.7957 139.106 22.8049 139.112 23.82C139.112 27.3212 140.918 30.1595 143.146 30.1595C145.374 30.1595 147.18 27.3212 147.18 23.82C147.182 23.0616 147.094 22.3057 146.917 21.5681C147.609 20.8194 148.033 19.8625 148.123 18.8472C148.213 17.8319 147.963 16.8154 147.413 15.957C147.873 16.3587 148.408 16.6651 148.987 16.8584C149.566 17.0516 150.178 17.128 150.787 17.0829C151.395 17.0379 151.989 16.8724 152.533 16.596C153.078 16.3196 153.562 15.9379 153.957 15.4729C154.353 15.008 154.652 14.4691 154.838 13.8876C155.024 13.306 155.092 12.6934 155.039 12.0852C154.986 11.477 154.813 10.8854 154.529 10.3448C154.246 9.80415 153.857 9.3252 153.387 8.93574C154.178 8.64401 154.873 8.14123 155.398 7.48203C155.923 6.82282 156.257 6.03239 156.365 5.1966C156.472 4.36082 156.348 3.51163 156.006 2.7413C155.665 1.97096 155.119 1.30893 154.427 0.827129C153.736 0.345324 152.926 0.0621674 152.085 0.00841579C151.244 -0.0453358 150.405 0.132374 149.658 0.522242C148.911 0.91211 148.285 1.49922 147.848 2.21981C147.411 2.9404 147.18 3.7669 147.18 4.60954C147.18 4.67704 147.182 4.74401 147.185 4.8108C146.552 4.61742 145.885 4.56253 145.229 4.64986C144.573 4.73719 143.943 4.96468 143.383 5.31689C142.822 5.66911 142.344 6.1378 141.981 6.69113C141.617 7.24447 141.378 7.8695 141.277 8.52378C140.702 8.18168 140.06 7.96881 139.394 7.89995C138.729 7.83109 138.056 7.9079 137.423 8.12503C136.791 8.34216 136.213 8.69441 135.73 9.15734C135.246 9.62026 134.87 10.1828 134.626 10.8058C134.382 11.4288 134.277 12.0975 134.318 12.7653C134.358 13.4331 134.543 14.0841 134.861 14.6731C135.178 15.2621 135.62 15.7749 136.155 16.1761C136.691 16.5772 137.307 16.857 137.962 16.996ZM145.835 13.8306C145.902 13.8306 145.968 13.8283 146.034 13.8255C146.075 13.9618 146.123 14.0952 146.176 14.2258C146.066 14.0873 145.948 13.9552 145.823 13.8303L145.835 13.8306Z" fill="#E2E2E2"/>
<path d="M140.84 61.6652H145.451L145.287 54.75V54.7473L144.683 29.3906C144.22 29.6735 143.688 29.8232 143.146 29.8232C142.603 29.8232 142.071 29.6735 141.608 29.3906L141.005 54.7473V54.75L140.84 61.6652Z" fill="#AC1637"/>
<path d="M132.389 66.659V121.986H153.903V65.8909L148.909 66.069V54.75H137.382V66.4809L132.389 66.659Z" fill="#AC1637"/>
<path d="M192.904 16.996C192.903 17.0295 192.901 17.0627 192.901 17.0963C192.901 17.7129 193.024 18.3233 193.264 18.8912C193.505 19.459 193.857 19.9728 194.299 20.4018C194.369 20.5493 194.445 20.6931 194.53 20.8324C194.209 21.7957 194.049 22.8049 194.054 23.82C194.054 27.3212 195.86 30.1595 198.088 30.1595C200.316 30.1595 202.122 27.3212 202.122 23.82C202.124 23.0616 202.036 22.3057 201.86 21.5681C202.551 20.8194 202.975 19.8625 203.065 18.8472C203.155 17.8319 202.905 16.8154 202.356 15.957C202.815 16.3587 203.35 16.6651 203.929 16.8584C204.508 17.0517 205.12 17.128 205.729 17.083C206.338 17.038 206.932 16.8724 207.476 16.5961C208.02 16.3197 208.504 15.9379 208.9 15.473C209.295 15.008 209.595 14.4691 209.78 13.8876C209.966 13.306 210.034 12.6934 209.981 12.0852C209.928 11.477 209.755 10.8855 209.471 10.3448C209.188 9.80415 208.8 9.32519 208.33 8.93574C209.12 8.64401 209.816 8.14123 210.341 7.48203C210.865 6.82282 211.2 6.03239 211.307 5.19661C211.414 4.36082 211.29 3.51163 210.949 2.7413C210.607 1.97096 210.061 1.30893 209.37 0.827129C208.679 0.345324 207.868 0.0621675 207.028 0.00841582C206.187 -0.0453358 205.347 0.132374 204.6 0.522242C203.853 0.91211 203.227 1.49923 202.79 2.21981C202.354 2.9404 202.123 3.7669 202.122 4.60954C202.122 4.67704 202.125 4.74401 202.128 4.8108C201.495 4.61742 200.827 4.56253 200.171 4.64986C199.515 4.73719 198.885 4.96468 198.325 5.31689C197.764 5.66911 197.286 6.1378 196.923 6.69113C196.56 7.24447 196.32 7.8695 196.22 8.52378C195.645 8.18168 195.002 7.96881 194.337 7.89995C193.671 7.83109 192.999 7.9079 192.366 8.12503C191.733 8.34216 191.155 8.69441 190.672 9.15734C190.189 9.62026 189.812 10.1828 189.569 10.8058C189.325 11.4288 189.219 12.0975 189.26 12.7653C189.3 13.4331 189.486 14.0841 189.803 14.6731C190.121 15.2621 190.562 15.7749 191.098 16.1761C191.633 16.5772 192.25 16.857 192.904 16.996ZM200.778 13.8306C200.844 13.8306 200.91 13.8283 200.976 13.8255C201.018 13.9618 201.065 14.0952 201.119 14.2258C201.009 14.0873 200.891 13.9552 200.766 13.8303L200.778 13.8306Z" fill="#E2E2E2"/>
<path d="M195.783 61.6652H200.393L199.625 29.3916C198.631 29.7486 197.545 29.7486 196.551 29.3916L195.783 61.6652Z" fill="#AC1637"/>
<path d="M187.331 66.659V121.986H208.847V65.8909L207.08 65.9547L203.851 66.069V54.75H192.324V66.4809L187.331 66.659Z" fill="#AC1637"/>
<path d="M176.464 87.4365H181.779V82.1212H176.464V87.4365Z" fill="white"/>
<path d="M167.96 87.4365H173.275V82.1212H167.96V87.4365Z" fill="white"/>
<path d="M159.455 87.4365H164.77V82.1212H159.455V87.4365Z" fill="white"/>
<path d="M176.464 95.9404H181.779V90.6251H176.464V95.9404Z" fill="white"/>
<path d="M167.96 95.9404H173.275V90.6251H167.96V95.9404Z" fill="white"/>
<path d="M159.455 95.9404H164.77V90.6251H159.455V95.9404Z" fill="white"/>
<path d="M176.464 104.445H181.779V99.13H176.464V104.445Z" fill="white"/>
<path d="M167.96 104.445H173.275V99.13H167.96V104.445Z" fill="white"/>
<path d="M159.455 104.445H164.77V99.13H159.455V104.445Z" fill="white"/>
<path d="M140.488 85.3105H145.804V79.9952H140.488V85.3105Z" fill="white"/>
<path d="M140.488 93.8145H145.804V88.4991H140.488V93.8145Z" fill="white"/>
<path d="M140.488 102.319H145.804V97.004H140.488V102.319Z" fill="white"/>
<path d="M140.488 110.824H145.804V105.509H140.488V110.824Z" fill="white"/>
<path d="M195.386 85.3105H200.701V79.9952H195.386V85.3105Z" fill="white"/>
<path d="M195.386 93.8145H200.701V88.4991H195.386V93.8145Z" fill="white"/>
<path d="M195.386 102.319H200.701V97.004H195.386V102.319Z" fill="white"/>
<path d="M195.386 110.824H200.701V105.509H195.386V110.824Z" fill="white"/>
<path d="M236 121.799H0V122.33H236V121.799Z" fill="#3F3D56"/>
</g>
<defs>
<linearGradient id="paint0_linear" x1="264.363" y1="67.1499" x2="289.19" y2="67.1499" gradientUnits="userSpaceOnUse">
<stop stop-color="#808080" stop-opacity="0.25"/>
<stop offset="0.53514" stop-color="#808080" stop-opacity="0.12"/>
<stop offset="1" stop-color="#808080" stop-opacity="0.1"/>
</linearGradient>
<clipPath id="clip0">
<rect x="211" y="10" width="132.958" height="118.784" fill="white"/>
</clipPath>
<clipPath id="clip1">
<rect width="236" height="122.392" fill="white"/>
</clipPath>
</defs>
</svg>
