<svg width="324" height="151" viewBox="0 0 324 151" fill="none" xmlns="http://www.w3.org/2000/svg">
<path d="M254.968 133.635L231.33 133.625C229.967 133.624 228.861 134.729 228.86 136.093L228.859 139.794C228.858 141.158 229.963 142.263 231.326 142.264L254.964 142.274C256.327 142.275 257.433 141.17 257.434 139.806L257.435 136.105C257.436 134.742 256.331 133.636 254.968 133.635Z" fill="#AC1637"/>
<path d="M284.868 142.287L261.23 142.276C259.867 142.276 258.761 143.381 258.761 144.744L258.759 148.446C258.758 149.809 259.863 150.915 261.227 150.915L284.864 150.926C286.228 150.926 287.334 149.821 287.334 148.458L287.336 144.756C287.336 143.393 286.232 142.287 284.868 142.287Z" fill="#AC1637"/>
<path d="M111.849 10.302C116.102 3.32617 123.34 0.00658396 123.34 0.00658396C123.34 0.00658396 123.669 7.96123 119.43 14.9171C115.19 21.873 107.935 25.1893 107.935 25.1893C107.935 25.1893 107.593 17.2379 111.849 10.302Z" fill="#AC1637"/>
<path d="M320.88 17.3691L83.4474 17.2676C82.1243 17.2671 81.0513 18.3392 81.0507 19.6623L81.0009 136.149C81.0004 137.472 82.0725 138.545 83.3956 138.546L320.828 138.647C322.151 138.648 323.224 137.576 323.225 136.252L323.274 19.7658C323.275 18.4427 322.203 17.3697 320.88 17.3691Z" fill="#3F3D56"/>
<path opacity="0.1" d="M81.0029 131.233L323.227 131.337L323.224 136.251C323.224 136.887 322.972 137.496 322.522 137.945C322.073 138.394 321.463 138.646 320.828 138.646L83.3955 138.544C82.7601 138.544 82.1509 138.291 81.7018 137.842C81.2527 137.392 81.0006 136.783 81.0008 136.148L81.0029 131.233Z" fill="black"/>
<path d="M139.151 129.931L128.186 129.926C127.819 129.926 127.521 130.223 127.521 130.59C127.521 130.957 127.818 131.255 128.185 131.255L139.15 131.26C139.517 131.26 139.815 130.963 139.815 130.596C139.815 130.229 139.518 129.931 139.151 129.931Z" fill="#AC1637"/>
<path d="M116.644 40.9998C125.412 42.6217 134.357 41.0074 143.09 39.9146L169.629 36.6033C170.703 36.4675 172.265 35.8269 172.895 37.1397C173.251 37.8741 173.011 39.4656 173.037 40.3096C173.106 42.6355 173.098 44.9613 173.034 47.2872C172.912 51.7329 172.585 56.1685 172.168 60.5942C171.357 69.2561 170.21 77.8713 169.635 86.5665C169.34 90.9922 169.192 95.4313 169.32 99.8571C169.349 100.914 169.392 101.97 169.455 103.024C169.524 104.203 170.052 105.955 168.765 106.741C168.031 107.193 166.586 107.169 165.745 107.302C164.416 107.51 163.087 107.676 161.731 107.812C152.796 108.702 143.745 108.326 134.777 108.269L107.697 108.118L101.092 108.078C100.494 108.078 98.3371 108.436 97.9686 107.725C97.8125 107.422 98.2285 106.007 98.3017 105.628C98.4039 105.004 98.5149 104.38 98.6348 103.758C99.4075 99.3886 100.32 95.0463 101.239 90.7072C103.213 81.4046 105.234 72.0554 106.049 62.5529C106.453 57.785 106.189 52.9736 106.683 48.2158C106.913 46.0063 107.188 41.0755 110.128 40.8807C112.62 40.7157 115.185 40.8829 117.684 40.884C117.816 40.884 117.943 40.8316 118.037 40.7382C118.13 40.6447 118.183 40.518 118.183 40.3858C118.183 40.2536 118.13 40.1268 118.037 40.0333C117.943 39.9398 117.817 39.8872 117.684 39.8872C115.325 39.8862 112.963 39.822 110.604 39.8675C109.036 39.8968 107.946 40.2684 107.197 41.7102C105.285 45.4108 105.479 50.3484 105.418 54.3888C105.271 64.061 103.781 73.5267 101.843 82.9856C100.868 87.7466 99.8159 92.4909 98.8469 97.2552C98.3907 99.5311 97.9545 101.814 97.5548 104.103C97.3683 105.192 96.4269 107.594 97.2538 108.595C98.0808 109.595 100.626 109.058 101.766 109.065L109.694 109.115L124.885 109.208C134.7 109.269 144.549 109.549 154.361 109.264C159.046 109.126 163.996 108.936 168.559 107.818C169.918 107.486 170.573 106.862 170.627 105.413C170.707 103.167 170.343 100.851 170.297 98.5949C169.973 79.29 174.517 60.2563 174.06 40.9446C174.031 39.6322 174.527 36.323 173.092 35.5282C172.448 35.1691 171.61 35.3648 170.932 35.4442C169.636 35.5932 168.344 35.7754 167.048 35.9277L150.218 38.0204C144.838 38.6827 139.462 39.3981 134.072 40.0071C128.367 40.6692 122.605 41.0622 116.92 39.9998C116.292 39.8833 116.023 40.8434 116.654 40.96L116.644 40.9998Z" fill="#AC1637"/>
<path d="M106.06 52.7404L172.455 49.5125C173.096 49.4796 173.1 48.4828 172.456 48.5157L106.06 51.7436C105.422 51.7732 105.419 52.77 106.06 52.7404Z" fill="#AC1637"/>
<path d="M126.518 44.5315C126.332 44.7282 126.197 44.9673 126.125 45.228C126.052 45.4887 126.045 45.7631 126.102 46.0274C126.16 46.2917 126.282 46.5379 126.456 46.7445C126.631 46.9512 126.854 47.112 127.105 47.2131C127.998 47.6222 129.048 47.2804 129.936 47.0582C131.265 46.7265 132.594 46.4313 133.96 46.1894C136.932 45.6644 139.943 45.3857 142.961 45.3559C144.337 45.3399 145.702 45.4036 147.078 45.464C148.075 45.5043 149.148 45.5845 149.992 44.9668C150.956 44.2628 151.269 42.8874 150.326 42.0297C148.997 40.8164 146.133 41.5195 144.598 41.6451C139.027 42.1055 133.493 42.9289 128.03 44.1101C127.405 44.2428 127.667 45.2065 128.295 45.0705C131.899 44.2945 135.531 43.6714 139.191 43.2012C140.99 42.9804 142.792 42.794 144.597 42.642C145.448 42.5725 146.298 42.5098 147.149 42.4603C147.481 42.4405 147.833 42.4041 148.172 42.4142C149.226 42.4379 149.349 42.2486 148.717 43.5209C148.155 44.647 148.334 44.5175 147.361 44.4806C146.949 44.4804 146.537 44.4337 146.125 44.4136C145.281 44.3778 144.437 44.3586 143.593 44.356C141.796 44.3553 140.004 44.4409 138.217 44.6129C136.701 44.7585 135.19 44.9638 133.691 45.229C132.754 45.3947 131.823 45.587 130.896 45.7993C130.488 45.8955 130.076 45.995 129.667 46.0978C129.471 46.1509 129.271 46.1973 129.075 46.2471C128.349 46.4993 127.73 46.1668 127.218 45.2495C127.664 44.7878 126.963 44.0798 126.514 44.5448L126.518 44.5315Z" fill="#AC1637"/>
<path d="M138.547 58.7186C133.739 58.5305 128.545 59.8275 125.377 63.697C122.897 66.7229 121.482 71.9157 124.106 75.3259C126.925 78.9821 133.112 78.3401 136.844 76.7834C140.792 75.1237 145.113 71.6999 146.301 67.4141C147.782 62.0619 142.983 58.0128 137.982 57.9509C137.341 57.9506 137.34 58.9474 137.982 58.9477C140.832 58.9821 143.63 60.2061 144.958 62.8615C146.349 65.6598 145.148 68.5965 143.293 70.8352C140.321 74.3992 135.675 77.0852 130.943 77.0068C128.102 76.9624 124.963 75.9875 124.083 72.99C123.36 70.5608 123.913 67.9063 125.176 65.7537C127.91 61.1031 133.469 59.5305 138.566 59.7321C139.207 59.7556 139.208 58.7588 138.566 58.7353L138.547 58.7186Z" fill="#AC1637"/>
<path d="M133.768 66.1C133.563 66.024 133.342 66.001 133.126 66.0333C132.91 66.0656 132.705 66.152 132.531 66.2846C132.358 66.4171 132.22 66.5915 132.132 66.7915C132.044 66.9915 132.007 67.2106 132.026 67.4284C132.126 68.7242 133.554 69.0904 134.627 69.0144C135.555 68.935 136.638 68.5933 136.313 67.4335C136.253 67.2282 136.15 67.0383 136.01 66.8765C135.87 66.7148 135.697 66.585 135.502 66.4962C135.205 66.3781 134.883 66.3379 134.565 66.3795C134.443 66.3794 133.316 66.791 133.795 66.2961L133.011 66.1927C133.097 66.2786 133.164 66.3829 133.205 66.4979C133.247 66.6129 133.262 66.7358 133.249 66.8574C133.251 66.9442 133.275 67.0292 133.319 67.104C133.363 67.1788 133.426 67.2408 133.501 67.2841C133.577 67.3273 133.662 67.3502 133.749 67.3506C133.836 67.351 133.921 67.3289 133.997 67.2863C134.111 67.2387 134.236 67.2237 134.358 67.2432C134.48 67.2627 134.594 67.3158 134.688 67.3966C134.781 67.4774 134.85 67.5827 134.887 67.7007C134.924 67.8186 134.928 67.9445 134.897 68.0642C134.87 68.1793 134.885 68.3002 134.938 68.4055C134.992 68.5108 135.081 68.5939 135.19 68.64C135.299 68.6861 135.42 68.6924 135.533 68.6576C135.646 68.6228 135.743 68.5493 135.807 68.45C136.14 67.8521 136.542 66.6627 136.044 66.0379C135.712 65.6157 135.071 65.7417 134.672 65.9874C134.426 66.1615 134.197 66.3583 133.987 66.5753C133.585 66.9306 133.322 67.0966 133.472 66.4156C133.722 65.1763 134.905 64.19 135.985 63.6954L135.255 63.1335C134.871 64.5735 134.185 65.9154 133.243 67.07L134.093 67.4226C134.069 66.9664 134.187 66.5138 134.429 66.1268C134.672 65.7398 135.029 65.4371 135.45 65.2601L134.961 65.2599L135.22 65.6853C135.124 66.3133 136.084 66.5828 136.18 65.9482C136.307 65.1276 135.789 64.0608 134.829 64.4624C133.682 64.9404 133.087 66.2526 133.11 67.4222C133.109 67.8209 133.674 68.1302 133.963 67.7781C135.021 66.4948 135.793 65.0011 136.228 63.3964C136.251 63.3012 136.246 63.2013 136.214 63.1089C136.181 63.0165 136.122 62.9356 136.044 62.8761C135.966 62.8165 135.873 62.7809 135.775 62.7735C135.678 62.7662 135.58 62.7874 135.494 62.8346C134.498 63.2841 133.657 64.0163 133.074 64.9401C132.669 65.6045 132.16 66.6409 132.571 67.4053C132.639 67.5276 132.73 67.6353 132.839 67.7222C132.949 67.8091 133.074 67.8734 133.209 67.9115C133.343 67.9496 133.484 67.9606 133.622 67.944C133.761 67.9274 133.895 67.8834 134.017 67.8146C134.324 67.6326 134.605 67.4091 134.851 67.1505C134.974 67.0409 135.11 66.8515 135.273 66.8184C135.419 66.7188 135.413 66.7752 135.25 66.9945C135.247 67.3388 135.147 67.6753 134.96 67.9646L135.87 68.3471C135.953 68.0369 135.943 67.7095 135.843 67.4045C135.743 67.0996 135.557 66.8301 135.307 66.6286C135.058 66.4271 134.755 66.3023 134.436 66.2692C134.117 66.2361 133.795 66.2962 133.509 66.4422L134.26 66.8744C134.275 66.4516 134.143 66.0366 133.885 65.7014C133.845 65.6367 133.792 65.5817 133.729 65.5404C133.666 65.499 133.594 65.4724 133.519 65.4625C133.444 65.4526 133.368 65.4596 133.296 65.4831C133.224 65.5065 133.158 65.5458 133.104 65.598C132.599 66.1261 132.502 67.0398 133.136 67.5285C133.611 67.8909 133.844 67.5288 134.366 67.446C136.137 67.2175 135.103 68.0145 134.478 68.0408C134.199 68.0706 133.917 68.0502 133.644 67.9806C132.951 67.7455 132.908 67.4431 133.515 67.0735C134.11 67.3163 134.366 66.3528 133.781 66.1133L133.768 66.1Z" fill="#AC1637"/>
<path d="M132.967 67.9202C133.375 69.2495 131.687 69.6873 130.886 70.1455C130.324 70.4604 129.834 70.8891 129.447 71.4042C128.609 72.5269 128.296 73.9555 128.02 75.3011C127.893 75.929 128.853 76.1953 128.983 75.5673C129.136 74.5786 129.419 73.6144 129.825 72.7002C130.424 71.511 131.281 71.1126 132.398 70.5017C133.514 69.8908 134.322 68.9442 133.927 67.6548C133.742 67.0434 132.778 67.3054 132.967 67.9202V67.9202Z" fill="#AC1637"/>
<path d="M134.628 67.2532C134.391 67.286 134.174 67.4063 134.02 67.5906C133.866 67.7749 133.787 68.0099 133.797 68.2497C133.797 68.6451 134.059 68.8977 134.239 69.2135C134.664 69.8595 134.989 70.5666 135.201 71.3105C135.361 72.0249 135.516 73.3042 135.144 73.9686C134.456 75.201 133.213 74.9646 132.153 74.9641C131.156 74.9637 130.385 75.2957 130.419 73.9068C130.439 73.126 130.985 72.3354 131.417 71.7209L130.506 71.6009C130.698 72.6155 130.799 73.6453 130.807 74.6778C130.807 75.1397 131.515 75.3958 131.734 74.9274C132.269 73.8039 132.693 72.6313 133.002 71.4258L132.022 71.2925L132.193 73.8178C132.196 73.9256 132.234 74.0296 132.3 74.1144C132.367 74.1992 132.459 74.2603 132.563 74.2887C132.667 74.3171 132.777 74.3112 132.878 74.272C132.978 74.2327 133.063 74.1622 133.12 74.0708C133.237 73.9424 133.322 73.7889 133.37 73.6223C133.403 73.4661 133.098 72.4127 132.975 72.7881L133.951 72.9215L134.022 70.5225L133.025 70.655C133.236 71.3316 133.299 72.0454 133.211 72.7484C133.147 73.3032 134.081 73.4299 134.207 72.8817L134.833 69.659L133.923 69.7749C134.139 70.2207 134.198 70.7265 134.092 71.2103C134.018 71.8483 135.015 71.842 135.089 71.2108C135.173 70.5492 135.068 69.8771 134.784 69.2735C134.733 69.1903 134.66 69.1236 134.572 69.0815C134.484 69.0393 134.386 69.0236 134.29 69.0363C134.193 69.0489 134.102 69.0893 134.028 69.1526C133.954 69.2159 133.901 69.2993 133.873 69.3927L133.244 72.6155L134.224 72.7488C134.324 71.9568 134.248 71.1524 134.002 70.3929C133.969 70.2785 133.896 70.1797 133.796 70.1146C133.696 70.0494 133.577 70.0222 133.458 70.0378C133.34 70.0535 133.232 70.1109 133.152 70.1997C133.073 70.2886 133.028 70.4029 133.025 70.5221L132.955 72.921C132.954 73.5025 133.762 73.5859 133.935 73.0544L133.988 72.8916C134.011 72.8067 134.012 72.7173 133.989 72.6322C133.967 72.5472 133.923 72.4693 133.862 72.4064C132.829 71.2829 132.619 73.0704 132.26 73.5653L133.19 73.8183L133.018 71.2929C132.982 70.7547 132.185 70.5882 132.038 71.1596C131.757 72.2834 131.367 73.3771 130.874 74.4253L131.804 74.6782C131.794 73.5563 131.683 72.4376 131.473 71.3355C131.387 70.8769 130.786 70.8966 130.563 71.2155C129.898 72.1721 128.748 74.2616 129.634 75.4083C130.408 76.4054 132.844 76.0211 133.884 75.9584C135.525 75.866 136.12 74.8263 136.3 73.278C136.386 72.5366 136.345 71.7859 136.178 71.0584C136.089 70.6663 135.183 68.1805 134.91 68.2302C135.542 68.1142 135.273 67.1505 134.645 67.2665L134.628 67.2532Z" fill="#AC1637"/>
<path d="M132.697 69.4918L129.974 73.0825L130.835 73.5846L132.83 70.7013L131.919 70.3155L130.924 74.1063C130.897 74.2214 130.912 74.3422 130.966 74.4476C131.019 74.5529 131.108 74.6359 131.217 74.6821C131.326 74.7282 131.448 74.7344 131.56 74.6997C131.673 74.6649 131.77 74.5914 131.835 74.4921C132.287 73.7432 132.795 73.0293 133.354 72.3563L132.523 71.8708C132.3 72.7291 131.87 73.5195 131.27 74.1729L132.104 74.6584C132.155 74.1992 132.277 73.7509 132.466 73.3294C132.722 72.7547 131.912 72.246 131.606 72.824C131.325 73.3505 131.003 73.8547 130.645 74.3321L131.555 74.4521L131.759 73.5052L130.848 73.3852L130.994 74.216C131.018 74.2995 131.063 74.3755 131.125 74.4363C131.188 74.4971 131.264 74.5407 131.349 74.5629C131.433 74.585 131.521 74.5849 131.605 74.5626C131.689 74.5403 131.766 74.4965 131.828 74.4356C132.671 73.5639 133.347 72.545 133.823 71.4294L132.966 71.4291C133.191 71.8447 133.349 72.2933 133.433 72.7583C133.553 73.3565 134.347 73.1342 134.41 72.6259C134.554 71.5129 134.627 70.3921 134.631 69.27L133.634 69.2696L133.633 71.3596C133.633 71.9012 134.52 72.061 134.614 71.4929C134.68 70.9889 134.846 70.5031 135.103 70.0644L134.229 70.064C134.439 70.4038 134.554 70.7942 134.561 71.1938C134.56 71.326 134.613 71.4528 134.706 71.5463C134.8 71.6398 134.927 71.6924 135.059 71.6925C135.191 71.6925 135.318 71.6401 135.411 71.5466C135.505 71.4532 135.557 71.3265 135.557 71.1943L135.684 70.5298L134.724 70.5294C134.82 71.1175 135.184 74.4304 133.885 74.0411C133.666 73.9878 133.602 74.0011 133.695 74.0776L133.991 73.4464L134.686 71.9747L133.756 71.7218C133.816 72.4063 133.878 73.3832 133.466 73.9678C133.134 74.4428 132.11 74.6318 131.589 74.3524C131.244 74.1068 130.95 73.7977 130.722 73.4417L130.04 74.1059C130.592 74.5082 131.485 75.4954 132.196 75.5522C132.738 75.5956 133.193 75.1472 133.549 74.7885C134.095 74.2252 134.52 73.557 134.8 72.8243C135.079 72.0916 135.207 71.3098 135.176 70.5262C135.176 70.3941 135.123 70.2673 135.03 70.1738C134.936 70.0802 134.81 70.0277 134.677 70.0276C134.545 70.0276 134.418 70.08 134.325 70.1735C134.231 70.2669 134.179 70.3936 134.179 70.5258L134.178 71.6622C134.178 71.7944 134.231 71.9212 134.324 72.0147C134.417 72.1082 134.544 72.1607 134.676 72.1608C134.809 72.1609 134.935 72.1084 135.029 72.015C135.122 71.9215 135.175 71.7948 135.175 71.6626L135.176 68.8749C135.176 68.7427 135.124 68.6159 135.03 68.5224C134.937 68.4289 134.81 68.3763 134.678 68.3763C134.546 68.3762 134.419 68.4287 134.326 68.5221C134.232 68.6155 134.179 68.7423 134.179 68.8744C134.177 69.5426 134.119 70.2095 134.006 70.868L134.986 71.0013C134.908 70.2074 134.872 69.4099 134.877 68.6122C134.876 68.4928 134.831 68.3779 134.752 68.2884C134.673 68.199 134.565 68.1409 134.446 68.1247C134.328 68.1086 134.208 68.1354 134.108 68.2004C134.007 68.2655 133.934 68.3643 133.9 68.4789C133.751 69.1135 133.568 69.7381 133.391 70.3593L134.302 70.2401L134.232 69.9743C134.186 69.3396 133.189 69.3359 133.235 69.9738C133.246 70.2429 133.316 70.5061 133.441 70.7448C133.634 71.1503 134.235 71.0076 134.351 70.6256C134.541 70.001 134.711 69.3764 134.861 68.7451L133.881 68.6118C133.875 69.4095 133.911 70.207 133.989 71.0009C134.039 71.5126 134.863 71.7322 134.966 71.1342C135.099 70.3838 135.169 69.6236 135.176 68.8616L134.179 68.8612L134.178 71.6489L135.175 71.6493L135.176 70.513L134.179 70.5125C134.237 71.766 133.801 72.9922 132.964 73.9277C132.835 74.0749 132.695 74.2125 132.546 74.3396C132.31 74.5654 132.094 74.5321 131.904 74.2363C131.433 74.0401 130.944 73.5348 130.533 73.2389C130.121 72.943 129.556 73.5276 129.848 73.9198C130.612 74.9368 131.751 76.0703 133.17 75.5825C134.662 75.0548 134.865 73.0347 134.753 71.7056C134.717 71.2637 134.056 70.9644 133.826 71.456C133.494 72.157 133.161 72.8546 132.828 73.5589C132.712 73.8047 132.496 74.1435 132.529 74.4359C132.638 75.1836 133.545 75.061 134.104 75.0181C136.267 74.8562 135.926 71.7892 135.677 70.2474C135.595 69.7356 134.85 69.8151 134.717 70.2469C134.611 70.5504 134.556 70.8692 134.554 71.1905L135.551 71.1909C135.515 70.6196 135.355 70.0629 135.083 69.5593C135.038 69.485 134.975 69.4234 134.9 69.3807C134.825 69.338 134.739 69.3155 134.653 69.3154C134.566 69.3154 134.481 69.3378 134.405 69.3805C134.33 69.4232 134.267 69.4846 134.222 69.5589C133.925 70.0717 133.724 70.6348 133.63 71.22L134.627 71.3534L134.628 69.2634C134.628 69.1312 134.575 69.0044 134.482 68.9109C134.389 68.8174 134.262 68.7648 134.13 68.7648C133.997 68.7647 133.871 68.8172 133.777 68.9106C133.684 69.004 133.631 69.1308 133.631 69.263C133.627 70.3851 133.553 71.5058 133.41 72.6188L134.391 72.4863C134.278 71.943 134.087 71.4191 133.823 70.931C133.778 70.8567 133.715 70.7952 133.64 70.7524C133.565 70.7097 133.48 70.6872 133.393 70.6872C133.306 70.6871 133.221 70.7095 133.146 70.7522C133.07 70.7949 133.007 70.8564 132.962 70.9307C132.529 71.9711 131.905 72.9218 131.124 73.7342L131.958 73.9539L131.812 73.1231C131.736 72.6812 131.111 72.6676 130.902 73.0031C130.736 73.2529 130.624 73.534 130.572 73.8289C130.52 74.1238 130.529 74.4262 130.598 74.7175C130.681 75.1894 131.279 75.1398 131.509 74.8375C131.867 74.3612 132.188 73.8582 132.47 73.3328L131.609 72.8273C131.379 73.3237 131.222 73.8508 131.143 74.3921C131.083 74.8307 131.605 75.2895 131.977 74.8776C132.692 74.0963 133.209 73.1555 133.487 72.1337C133.61 71.6819 132.986 71.253 132.653 71.6482C132.042 72.3805 131.486 73.1578 130.991 73.9734L131.901 74.3592L132.916 70.5818C132.943 70.4667 132.928 70.3458 132.875 70.2405C132.821 70.1351 132.732 70.0521 132.623 70.006C132.514 69.9599 132.393 69.9536 132.28 69.9884C132.167 70.0231 132.07 70.0966 132.006 70.1959L130.011 73.0825C129.639 73.6173 130.492 74.0795 130.871 73.5846L133.584 69.9973C133.97 69.4857 133.106 69.0002 132.724 69.4918L132.697 69.4918Z" fill="#AC1637"/>
<path d="M175.083 81.5007C179.071 79.0636 182.242 75.4266 185.766 72.3845C189.588 69.0867 193.6 66.015 197.731 63.1061C205.755 57.4609 214.18 52.4107 222.599 47.3738C222.708 47.3049 222.786 47.1963 222.816 47.0709C222.847 46.9456 222.828 46.8132 222.763 46.7017C222.698 46.5901 222.592 46.5082 222.468 46.473C222.344 46.4378 222.211 46.4522 222.097 46.513C213.679 51.5499 205.25 56.5902 197.227 62.2453C193.441 64.9018 189.745 67.7179 186.202 70.7068C182.346 73.9613 178.912 78.0135 174.568 80.6399C174.02 80.972 174.521 81.8361 175.07 81.5007L175.083 81.5007Z" fill="#AC1637"/>
<path d="M235.474 31.9031C231.154 32.3399 226.502 33.4377 223.842 37.2144C221.545 40.463 221.592 46.1316 223.747 49.4685C226.194 53.2607 231.198 53.399 235.086 52.1746C238.974 50.9502 242.999 48.8022 242.965 44.157C242.946 41.665 242.046 39.0696 241.054 36.8098C240.197 34.859 238.68 33.1538 236.38 33.3688C235.746 33.4283 235.739 34.4251 236.38 34.3656C239.46 34.0812 240.449 37.7399 241.179 40.0494C241.842 42.2061 242.456 44.7582 241.412 46.9009C240.367 49.0436 237.852 50.1357 235.702 50.9189C233.375 51.7619 230.82 52.2758 228.391 51.5803C223.581 50.2326 222.254 44.1349 223.642 39.8094C225.239 34.826 230.888 33.3631 235.49 32.8999C236.121 32.8371 236.128 31.8403 235.49 31.9031L235.474 31.9031Z" fill="#AC1637"/>
<path d="M242.103 70.449C237.783 70.8858 233.131 71.9836 230.471 75.7603C228.174 79.0089 228.221 84.6775 230.376 88.0144C232.823 91.8066 237.827 91.9449 241.715 90.7205C245.603 89.4961 249.628 87.3481 249.593 82.7029C249.575 80.2109 248.675 77.6155 247.683 75.3557C246.826 73.4049 245.309 71.6997 243.009 71.9147C242.375 71.9742 242.367 72.971 243.009 72.9115C246.089 72.6271 247.078 76.2858 247.808 78.5953C248.471 80.752 249.085 83.3041 248.041 85.4468C246.996 87.5895 244.481 88.6816 242.33 89.4648C240.004 90.3078 237.449 90.8217 235.02 90.1262C230.21 88.7785 228.883 82.6808 230.271 78.3553C231.868 73.3719 237.517 71.909 242.119 71.4458C242.75 71.383 242.757 70.3862 242.119 70.449L242.103 70.449Z" fill="#AC1637"/>
<path d="M228.954 41.6056L232.099 45.1954C232.161 45.2555 232.238 45.2986 232.322 45.3203C232.406 45.342 232.494 45.3416 232.577 45.3192C232.661 45.2968 232.737 45.2532 232.799 45.1926C232.861 45.1319 232.906 45.0563 232.93 44.9732C233.595 43.2257 233.47 41.4148 233.626 39.5774C233.799 37.6784 234.277 35.8196 235.041 34.0723C236.575 30.5285 239.176 27.5507 242.481 25.5528C243.029 25.2208 242.528 24.3567 241.979 24.692C238.721 26.6524 236.106 29.5224 234.457 32.949C233.649 34.6165 233.089 36.3925 232.793 38.2214C232.46 40.3777 232.761 42.6372 231.963 44.7069L232.797 44.4847L229.669 40.9015C229.244 40.4195 228.542 41.1269 228.964 41.6056L228.954 41.6056Z" fill="#AC1637"/>
<path d="M176.686 85.3853C193.824 84.8698 210.967 84.7664 228.114 85.075C228.756 85.0753 228.756 84.0785 228.115 84.0782C210.972 83.7652 193.829 83.8686 176.686 84.3885C176.045 84.4081 176.041 85.4049 176.686 85.3853Z" fill="#AC1637"/>
<path d="M231.7 75.5813C237.558 77.8832 243.192 80.7173 248.533 84.048C249.077 84.3805 249.58 83.5268 249.035 83.1877C243.624 79.8158 237.915 76.9483 231.98 74.6211C231.385 74.385 231.125 75.3484 231.717 75.5813L231.7 75.5813Z" fill="#AC1637"/>
<path d="M242.342 71.0701C236.398 77.9935 232.952 86.7134 232.559 95.8299C232.532 96.4712 233.529 96.4716 233.556 95.8304C233.937 86.9756 237.279 78.5049 243.046 71.7749C243.461 71.2899 242.761 70.5819 242.342 71.0701Z" fill="#AC1637"/>
<path d="M109.447 81.7395L146.585 81.2703L150.854 81.2157C151.622 81.216 152.389 81.1897 153.157 81.1867C154.237 81.1872 154.964 82.0846 154.944 83.1811C154.893 85.507 153.431 85.4233 151.517 85.5055L146.902 85.7129L128.108 86.5322C124.742 86.6803 121.373 86.8616 118.007 86.9764C114.97 87.0682 109.196 86.0755 110.547 81.657C110.733 81.0423 109.773 80.7794 109.583 81.3907C108.918 83.5635 110.093 85.7702 111.986 86.9107C114.674 88.5267 118.216 87.98 121.183 87.8483L144.256 86.8116L149.858 86.5647C151.294 86.4989 153.291 86.7922 154.61 86.1249C156.159 85.3447 156.433 82.2447 155.456 80.9385C154.955 80.2738 154.25 80.2137 153.463 80.1834C151.396 80.1028 149.293 80.2381 147.223 80.2638L135.72 80.4117L109.434 80.7328C108.793 80.7325 108.792 81.7293 109.433 81.7296L109.447 81.7395Z" fill="#AC1637"/>
<path d="M1.93359 49V23.4062H11.127C14.4199 23.4062 16.9219 24.0098 18.6328 25.2168C20.3555 26.4238 21.2168 28.1758 21.2168 30.4727C21.2168 31.7969 20.9121 32.9277 20.3027 33.8652C19.6934 34.8027 18.7969 35.4941 17.6133 35.9395C18.9492 36.291 19.9746 36.9473 20.6895 37.9082C21.4043 38.8691 21.7617 40.041 21.7617 41.4238C21.7617 43.9316 20.9648 45.8184 19.3711 47.084C17.7891 48.3379 15.4395 48.9766 12.3223 49H1.93359ZM8.10352 38.1191V44.2539H12.1465C13.2598 44.2539 14.1152 44.002 14.7129 43.498C15.3105 42.9824 15.6094 42.2617 15.6094 41.3359C15.6094 39.2031 14.5488 38.1309 12.4277 38.1191H8.10352ZM8.10352 34.0762H11.3203C12.668 34.0645 13.6289 33.8184 14.2031 33.3379C14.7773 32.8574 15.0645 32.1484 15.0645 31.2109C15.0645 30.1328 14.7539 29.3594 14.1328 28.8906C13.5117 28.4102 12.5098 28.1699 11.127 28.1699H8.10352V34.0762ZM24.1523 39.3145C24.1523 37.416 24.5215 35.7285 25.2598 34.252C25.998 32.7637 27.0586 31.6211 28.4414 30.8242C29.8242 30.0273 31.4473 29.6289 33.3105 29.6289C36.1582 29.6289 38.4023 30.5137 40.043 32.2832C41.6836 34.041 42.5039 36.4375 42.5039 39.4727V39.6836C42.5039 42.6484 41.6777 45.0039 40.0254 46.75C38.3848 48.4844 36.1582 49.3516 33.3457 49.3516C30.6387 49.3516 28.4648 48.543 26.8242 46.9258C25.1836 45.2969 24.2988 43.0938 24.1699 40.3164L24.1523 39.3145ZM30.0762 39.6836C30.0762 41.4414 30.3516 42.7305 30.9023 43.5508C31.4531 44.3711 32.2676 44.7812 33.3457 44.7812C35.4551 44.7812 36.5332 43.1582 36.5801 39.9121V39.3145C36.5801 35.9043 35.4902 34.1992 33.3105 34.1992C31.3301 34.1992 30.2578 35.6699 30.0938 38.6113L30.0762 39.6836ZM55.8281 49C55.6172 48.6133 55.4297 48.0449 55.2656 47.2949C54.1758 48.666 52.6523 49.3516 50.6953 49.3516C48.9023 49.3516 47.3789 48.8125 46.125 47.7344C44.8711 46.6445 44.2441 45.2793 44.2441 43.6387C44.2441 41.5762 45.0059 40.0176 46.5293 38.9629C48.0527 37.9082 50.2676 37.3809 53.1738 37.3809H55.002V36.3789C55.002 34.6328 54.2461 33.7598 52.7344 33.7598C51.3281 33.7598 50.625 34.4512 50.625 35.834H44.7012C44.7012 33.9941 45.4805 32.5 47.0391 31.3516C48.6094 30.2031 50.6074 29.6289 53.0332 29.6289C55.459 29.6289 57.375 30.2207 58.7812 31.4043C60.1875 32.5879 60.9082 34.2109 60.9434 36.2734V44.6934C60.9668 46.4395 61.2363 47.7754 61.752 48.7012V49H55.8281ZM52.1191 45.1328C52.8574 45.1328 53.4668 44.9746 53.9473 44.6582C54.4395 44.3418 54.791 43.9844 55.002 43.5859V40.5449H53.2793C51.2168 40.5449 50.1855 41.4707 50.1855 43.3223C50.1855 43.8613 50.3672 44.3008 50.7305 44.6406C51.0938 44.9688 51.5566 45.1328 52.1191 45.1328ZM74.1973 43.6562C74.1973 43.1523 73.9336 42.748 73.4062 42.4434C72.8789 42.1387 71.877 41.8223 70.4004 41.4941C68.9238 41.166 67.7051 40.7383 66.7441 40.2109C65.7832 39.6719 65.0508 39.0215 64.5469 38.2598C64.043 37.498 63.791 36.625 63.791 35.6406C63.791 33.8945 64.5117 32.459 65.9531 31.334C67.3945 30.1973 69.2812 29.6289 71.6133 29.6289C74.1211 29.6289 76.1367 30.1973 77.6602 31.334C79.1836 32.4707 79.9453 33.9648 79.9453 35.8164H74.0039C74.0039 34.293 73.2012 33.5312 71.5957 33.5312C70.9746 33.5312 70.4531 33.707 70.0312 34.0586C69.6094 34.3984 69.3984 34.8262 69.3984 35.3418C69.3984 35.8691 69.6562 36.2969 70.1719 36.625C70.6875 36.9531 71.5078 37.2227 72.6328 37.4336C73.7695 37.6445 74.7656 37.8965 75.6211 38.1895C78.4805 39.1738 79.9102 40.9375 79.9102 43.4805C79.9102 45.2148 79.1367 46.627 77.5898 47.7168C76.0547 48.8066 74.0625 49.3516 71.6133 49.3516C69.9844 49.3516 68.5312 49.0586 67.2539 48.4727C65.9766 47.8867 64.9805 47.0898 64.2656 46.082C63.5508 45.0742 63.1934 44.0137 63.1934 42.9004H68.7305C68.7539 43.7793 69.0469 44.4238 69.6094 44.834C70.1719 45.2324 70.8926 45.4316 71.7715 45.4316C72.5801 45.4316 73.1836 45.2676 73.582 44.9395C73.9922 44.6113 74.1973 44.1836 74.1973 43.6562ZM8.10352 82.3164V91H1.93359V65.4062H12.1465C14.1035 65.4062 15.832 65.7695 17.332 66.4961C18.8438 67.2109 20.0098 68.2363 20.8301 69.5723C21.6621 70.8965 22.0781 72.4023 22.0781 74.0898C22.0781 76.5859 21.1816 78.584 19.3887 80.084C17.6074 81.5723 15.1582 82.3164 12.041 82.3164H8.10352ZM8.10352 77.5527H12.1465C13.3418 77.5527 14.25 77.2539 14.8711 76.6562C15.5039 76.0586 15.8203 75.2148 15.8203 74.125C15.8203 72.9297 15.498 71.9746 14.8535 71.2598C14.209 70.5449 13.3301 70.1816 12.2168 70.1699H8.10352V77.5527ZM36.6152 77.3418L34.6641 77.2012C32.8008 77.2012 31.6055 77.7871 31.0781 78.959V91H25.1543V71.9805H30.709L30.9023 74.4238C31.8984 72.5605 33.2871 71.6289 35.0684 71.6289C35.7012 71.6289 36.252 71.6992 36.7207 71.8398L36.6152 77.3418ZM48.9375 91C48.7266 90.6133 48.5391 90.0449 48.375 89.2949C47.2852 90.666 45.7617 91.3516 43.8047 91.3516C42.0117 91.3516 40.4883 90.8125 39.2344 89.7344C37.9805 88.6445 37.3535 87.2793 37.3535 85.6387C37.3535 83.5762 38.1152 82.0176 39.6387 80.9629C41.1621 79.9082 43.377 79.3809 46.2832 79.3809H48.1113V78.3789C48.1113 76.6328 47.3555 75.7598 45.8438 75.7598C44.4375 75.7598 43.7344 76.4512 43.7344 77.834H37.8105C37.8105 75.9941 38.5898 74.5 40.1484 73.3516C41.7188 72.2031 43.7168 71.6289 46.1426 71.6289C48.5684 71.6289 50.4844 72.2207 51.8906 73.4043C53.2969 74.5879 54.0176 76.2109 54.0527 78.2734V86.6934C54.0762 88.4395 54.3457 89.7754 54.8613 90.7012V91H48.9375ZM45.2285 87.1328C45.9668 87.1328 46.5762 86.9746 47.0566 86.6582C47.5488 86.3418 47.9004 85.9844 48.1113 85.5859V82.5449H46.3887C44.3262 82.5449 43.2949 83.4707 43.2949 85.3223C43.2949 85.8613 43.4766 86.3008 43.8398 86.6406C44.2031 86.9688 44.666 87.1328 45.2285 87.1328ZM46.7051 64H52.9629L48.0762 69.5195H43.2422L46.7051 64ZM64.248 67.252V71.9805H67.377V76.0938H64.248V84.7949C64.248 85.5098 64.377 86.0078 64.6348 86.2891C64.8926 86.5703 65.4023 86.7109 66.1641 86.7109C66.75 86.7109 67.2422 86.6758 67.6406 86.6055V90.8418C66.5742 91.1816 65.4609 91.3516 64.3008 91.3516C62.2617 91.3516 60.7559 90.8711 59.7832 89.9102C58.8105 88.9492 58.3242 87.4902 58.3242 85.5332V76.0938H55.8984V71.9805H58.3242V67.252H64.248ZM75.9727 91H70.0312V71.9805H75.9727V91ZM69.6797 67.0762C69.6797 66.2324 69.9844 65.541 70.5938 65.002C71.2031 64.4629 71.9941 64.1934 72.9668 64.1934C73.9395 64.1934 74.7305 64.4629 75.3398 65.002C75.9492 65.541 76.2539 66.2324 76.2539 67.0762C76.2539 67.9199 75.9492 68.6113 75.3398 69.1504C74.7305 69.6895 73.9395 69.959 72.9668 69.959C71.9941 69.959 71.2031 69.6895 70.5938 69.1504C69.9844 68.6113 69.6797 67.9199 69.6797 67.0762ZM87.6797 86.7812C88.5117 86.7812 89.1562 86.5586 89.6133 86.1133C90.0703 85.6562 90.293 85.0234 90.2812 84.2148H95.8359C95.8359 86.3008 95.0859 88.0117 93.5859 89.3477C92.0977 90.6836 90.1758 91.3516 87.8203 91.3516C85.0547 91.3516 82.875 90.4844 81.2812 88.75C79.6875 87.0156 78.8906 84.6133 78.8906 81.543V81.2969C78.8906 79.375 79.2422 77.6816 79.9453 76.2168C80.6602 74.7402 81.6855 73.6094 83.0215 72.8242C84.3574 72.0273 85.9395 71.6289 87.7676 71.6289C90.2402 71.6289 92.2031 72.3145 93.6562 73.6855C95.1094 75.0566 95.8359 76.9141 95.8359 79.2578H90.2812C90.2812 78.2734 90.041 77.5176 89.5605 76.9902C89.0801 76.4629 88.4355 76.1992 87.627 76.1992C86.0918 76.1992 85.1953 77.1777 84.9375 79.1348C84.8555 79.7559 84.8145 80.6113 84.8145 81.7012C84.8145 83.6113 85.043 84.9355 85.5 85.6738C85.957 86.4121 86.6836 86.7812 87.6797 86.7812ZM109.055 91C108.844 90.6133 108.656 90.0449 108.492 89.2949C107.402 90.666 105.879 91.3516 103.922 91.3516C102.129 91.3516 100.605 90.8125 99.3516 89.7344C98.0977 88.6445 97.4707 87.2793 97.4707 85.6387C97.4707 83.5762 98.2324 82.0176 99.7559 80.9629C101.279 79.9082 103.494 79.3809 106.4 79.3809H108.229V78.3789C108.229 76.6328 107.473 75.7598 105.961 75.7598C104.555 75.7598 103.852 76.4512 103.852 77.834H97.9277C97.9277 75.9941 98.707 74.5 100.266 73.3516C101.836 72.2031 103.834 71.6289 106.26 71.6289C108.686 71.6289 110.602 72.2207 112.008 73.4043C113.414 74.5879 114.135 76.2109 114.17 78.2734V86.6934C114.193 88.4395 114.463 89.7754 114.979 90.7012V91H109.055ZM105.346 87.1328C106.084 87.1328 106.693 86.9746 107.174 86.6582C107.666 86.3418 108.018 85.9844 108.229 85.5859V82.5449H106.506C104.443 82.5449 103.412 83.4707 103.412 85.3223C103.412 85.8613 103.594 86.3008 103.957 86.6406C104.32 86.9688 104.783 87.1328 105.346 87.1328ZM127.424 85.6562C127.424 85.1523 127.16 84.748 126.633 84.4434C126.105 84.1387 125.104 83.8223 123.627 83.4941C122.15 83.166 120.932 82.7383 119.971 82.2109C119.01 81.6719 118.277 81.0215 117.773 80.2598C117.27 79.498 117.018 78.625 117.018 77.6406C117.018 75.8945 117.738 74.459 119.18 73.334C120.621 72.1973 122.508 71.6289 124.84 71.6289C127.348 71.6289 129.363 72.1973 130.887 73.334C132.41 74.4707 133.172 75.9648 133.172 77.8164H127.23C127.23 76.293 126.428 75.5312 124.822 75.5312C124.201 75.5312 123.68 75.707 123.258 76.0586C122.836 76.3984 122.625 76.8262 122.625 77.3418C122.625 77.8691 122.883 78.2969 123.398 78.625C123.914 78.9531 124.734 79.2227 125.859 79.4336C126.996 79.6445 127.992 79.8965 128.848 80.1895C131.707 81.1738 133.137 82.9375 133.137 85.4805C133.137 87.2148 132.363 88.627 130.816 89.7168C129.281 90.8066 127.289 91.3516 124.84 91.3516C123.211 91.3516 121.758 91.0586 120.48 90.4727C119.203 89.8867 118.207 89.0898 117.492 88.082C116.777 87.0742 116.42 86.0137 116.42 84.9004H121.957C121.98 85.7793 122.273 86.4238 122.836 86.834C123.398 87.2324 124.119 87.4316 124.998 87.4316C125.807 87.4316 126.41 87.2676 126.809 86.9395C127.219 86.6113 127.424 86.1836 127.424 85.6562Z" fill="white"/>
</svg>
